STARTFONT 2.1
COMMENT
COMMENT Converted from OpenType font "NimbusSans-Regular.otf" by "otf2bdf 3.0".
COMMENT
FONT -FreeType-Nimbus Sans-Medium-R-Normal--91-660-100-100-P-476-ISO10646-1
SIZE 66 100 100
FONTBOUNDINGBOX 114 126 -19 -27
STARTPROPERTIES 19
FOUNDRY "FreeType"
FAMILY_NAME "Nimbus Sans"
WEIGHT_NAME "Medium"
SLANT "R"
SETWIDTH_NAME "Normal"
ADD_STYLE_NAME ""
PIXEL_SIZE 91
POINT_SIZE 660
RESOLUTION_X 100
RESOLUTION_Y 100
SPACING "P"
AVERAGE_WIDTH 476
CHARSET_REGISTRY "ISO10646"
CHARSET_ENCODING "1"
FONT_ASCENT 67
FONT_DESCENT 24
COPYRIGHT "(URW)++,Copyright 2014 by (URW)++ Design & Development"
_OTF_FONTFILE "NimbusSans-Regular.otf"
_OTF_PSNAME "NimbusSans-Regular"
ENDPROPERTIES
CHARS 854
STARTCHAR 0020
ENCODING 32
SWIDTH 272 0
DWIDTH 25 0
BBX 0 0 0 0
BITMAP
ENDCHAR
STARTCHAR 0021
ENCODING 33
SWIDTH 272 0
DWIDTH 25 0
BBX 8 67 11 0
BITMAP
FF
FF
FF
FF
FF
FF
FF
FF
FF
FF
FF
FF
FF
FF
FF
FF
FF
FF
FF
FF
FF
FF
FF
FF
FF
FF
FF
FF
FF
FF
FF
FF
7F
7F
7F
7F
7F
7E
7E
7E
7E
7E
3E
3E
3E
3E
3E
3C
3C
3C
3C
3C
00
00
00
00
00
FF
FF
FF
FF
FF
FF
FF
FF
FF
FF
ENDCHAR
STARTCHAR 0022
ENCODING 34
SWIDTH 360 0
DWIDTH 33 0
BBX 23 22 5 43
BITMAP
FF03FE
FF03FE
FF03FE
FF03FE
FF03FE
FF03FE
FF03FE
FF03FE
FF03FE
FF03FE
FF03FE
FF01FE
FF01FC
FF01FC
7E01FC
7E01FC
7E00FC
7E00F8
7E00F8
3C00F8
3C00F8
3C0078
ENDCHAR
STARTCHAR 0023
ENCODING 35
SWIDTH 556 0
DWIDTH 51 0
BBX 49 66 1 -2
BITMAP
00003F800FE000
00003F800FE000
00003F800FE000
00007F000FE000
00007F000FE000
00007F001FC000
00007F001FC000
00007F001FC000
00007E001FC000
0000FE001FC000
0000FE001FC000
0000FE003F8000
0000FE003F8000
0000FE003F8000
0001FC003F8000
0001FC003F8000
0001FC007F0000
0001FC007F0000
0FFFFFFFFFFF80
0FFFFFFFFFFF80
0FFFFFFFFFFF80
0FFFFFFFFFFF80
0FFFFFFFFFFF80
0FFFFFFFFFFF80
0003F800FE0000
0007F000FE0000
0007F000FE0000
0007F001FC0000
0007F001FC0000
0007F001FC0000
000FF001FC0000
000FE001FC0000
000FE001FC0000
000FE003F80000
000FE003F80000
000FE003F80000
001FC003F80000
001FC003F80000
001FC003F80000
001FC007F00000
001FC007F00000
FFFFFFFFFFFC00
FFFFFFFFFFFC00
FFFFFFFFFFFC00
FFFFFFFFFFFC00
FFFFFFFFFFFC00
FFFFFFFFFFFC00
007F000FE00000
007F000FE00000
007F000FE00000
007F001FC00000
007F001FC00000
007F001FC00000
00FE001FC00000
00FE001FC00000
00FE003F800000
00FE003F800000
00FE003F800000
01FC003F800000
01FC003F800000
01FC007F000000
01FC007F000000
01FC007F000000
01F8007F000000
03F8007F000000
03F8007F000000
ENDCHAR
STARTCHAR 0024
ENCODING 36
SWIDTH 556 0
DWIDTH 51 0
BBX 44 83 4 -12
BITMAP
00001F000000
00001F000000
00001F000000
00001F000000
00001F000000
00003FC00000
0003FFFC0000
001FFFFF8000
007FFFFFE000
00FFFFFFF000
03FFFFFFF800
07FFFFFFFC00
0FFF1F0FFE00
0FFC1F03FF00
1FF01F01FF00
1FE01F00FF80
3FC01F007F80
3FC01F007F80
7F801F003FC0
7F801F003FC0
7F001F001FC0
7F001F001FC0
7F001F001FC0
7F001F000000
7F001F000000
7F801F000000
7F801F000000
7F801F000000
7FC01F000000
3FE01F000000
3FF01F000000
1FF81F000000
1FFE1F000000
0FFFDF000000
0FFFFF000000
07FFFFE00000
01FFFFFE0000
00FFFFFF8000
003FFFFFE000
000FFFFFF800
0001FFFFFE00
00003FFFFF00
00001FFFFF80
00001F1FFFC0
00001F07FFC0
00001F01FFE0
00001F007FE0
00001F003FE0
00001F001FF0
00001F000FF0
00001F000FF0
00001F000FF0
FE001F0007F0
FE001F0007F0
FE001F0007F0
FE001F0007F0
FE001F000FF0
FF001F000FF0
FF001F000FF0
FF001F000FE0
7F801F001FE0
7F801F003FE0
7FC01F003FC0
3FE01F007FC0
3FF81F01FF80
1FFC1F03FF00
0FFF9F3FFF00
07FFFFFFFE00
03FFFFFFFC00
01FFFFFFF000
007FFFFFE000
001FFFFF0000
0003FFF80000
00001F000000
00001F000000
00001F000000
00001F000000
00001F000000
00001F000000
00001F000000
00001F000000
00001F000000
00001F000000
ENDCHAR
STARTCHAR 0025
ENCODING 37
SWIDTH 894 0
DWIDTH 82 0
BBX 76 67 3 -2
BITMAP
00000000000007E00000
0000000000000FC00000
0000000000000FC00000
003FF80000001F800000
00FFFE0000001F800000
03FFFF0000003F000000
07FFFFC000003F000000
0FFFFFE000007E000000
1FFFFFF00000FC000000
3FF03FF00000FC000000
3FC00FF80001F8000000
7F8003F80001F8000000
7F0001FC0003F0000000
FE0001FC0003F0000000
FE0000FC0007E0000000
FC0000FE0007E0000000
FC0000FE000FC0000000
FC00007E000FC0000000
FC00007E001F80000000
FC00007E003F00000000
FC0000FE003F00000000
FE0000FE007E00000000
FE0000FC007E00000000
7F0001FC00FC00000000
7F0003FC00FC00000000
7F8007F801F800000000
3FE00FF801F800000000
1FFCFFF003F000000000
1FFFFFE003F000000000
0FFFFFC007E000000000
07FFFF800FC000000000
01FFFF000FC000000000
007FFC001F8000000000
001FE0001F8000000000
000000003F0000000000
000000003F0000000000
000000007E0001FFC000
000000007E0007FFF000
00000000FC001FFFF800
00000000FC003FFFFE00
00000001F8007FFFFF00
00000003F800FFFFFF00
00000003F001FF81FF80
00000007E001FE007FC0
00000007E003FC003FC0
0000000FC003F8001FE0
0000000FC007F0000FE0
0000001F8007F00007E0
0000001F8007E00007F0
0000003F0007E00007F0
0000003F0007E00007F0
0000007E000FE00007F0
000000FE0007E00007F0
000000FC0007E00007F0
000001F80007E00007E0
000001F80007F0000FE0
000003F00007F0000FE0
000003F00003F8001FE0
000007E00003FC003FC0
000007E00001FF007F80
00000FC00001FFE7FF80
00000FC00000FFFFFF00
00001F8000007FFFFE00
00001F8000003FFFFC00
00003F0000000FFFF800
00007E00000007FFE000
00007E00000000FF0000
ENDCHAR
STARTCHAR 0026
ENCODING 38
SWIDTH 665 0
DWIDTH 61 0
BBX 53 67 5 -2
BITMAP
00001FE0000000
0000FFFC000000
0003FFFF000000
0007FFFF800000
001FFFFFC00000
001FFFFFE00000
003FFDFFF00000
007FC01FF00000
007F800FF80000
00FF0007F80000
00FF0003F80000
00FE0003FC0000
01FE0003FC0000
01FE0001FC0000
01FE0001FC0000
01FE0003FC0000
01FE0003FC0000
00FE0003FC0000
00FF0007F80000
00FF0007F80000
007F800FF80000
007FC01FF00000
003FE03FE00000
003FE0FFC00000
001FF1FF800000
000FFFFF000000
000FFFFE000000
0007FFFC000000
0003FFF0000000
0003FFE0000000
0007FF80000000
001FFFC0000000
003FFFE0000000
00FFFFF0000000
01FFDFF800FF00
03FF0FF800FF00
07FE07FC00FE00
0FFC07FE00FE00
1FF003FF00FE00
3FE001FF80FE00
3FC000FF81FE00
7FC0007FC1FE00
7F80007FE1FC00
FF00003FF3FC00
FF00001FFBFC00
FF00000FFFF800
FF000007FFF800
FE000007FFF000
FE000003FFF000
FF000001FFE000
FF000000FFE000
FF0000007FC000
FF0000007FE000
FF800000FFF000
7F800001FFF800
7FC00003FFFC00
7FE00007FFFE00
3FF0001FFFFE00
3FFC003FFBFF00
1FFF81FFF1FF80
0FFFFFFFE0FFC0
0FFFFFFFC07FE0
07FFFFFF007FE0
01FFFFFE003FF0
00FFFFF8001FF8
003FFFE0000000
0003FF00000000
ENDCHAR
STARTCHAR 0027
ENCODING 39
SWIDTH 196 0
DWIDTH 18 0
BBX 9 22 4 43
BITMAP
FF80
FF80
FF80
FF80
FF80
FF80
FF80
FF80
FF80
FF80
FF80
7F80
7F80
7F00
7F00
7F00
3F00
3F00
3E00
3E00
3E00
1E00
ENDCHAR
STARTCHAR 0028
ENCODING 40
SWIDTH 338 0
DWIDTH 31 0
BBX 19 86 7 -19
BITMAP
0003E0
0003E0
0007C0
000FC0
000F80
001F80
003F00
003F00
007E00
007E00
00FC00
00FC00
01F800
01F800
03F800
03F000
07F000
07E000
07E000
0FE000
0FE000
0FC000
1FC000
1FC000
1F8000
3F8000
3F8000
3F8000
3F8000
7F0000
7F0000
7F0000
7F0000
7F0000
FF0000
FF0000
FE0000
FE0000
FE0000
FE0000
FE0000
FE0000
FE0000
FE0000
FE0000
FE0000
FE0000
FE0000
FE0000
FE0000
FF0000
FF0000
FF0000
7F0000
7F0000
7F0000
7F0000
7F8000
3F8000
3F8000
3F8000
3F8000
1FC000
1FC000
1FC000
0FC000
0FE000
0FE000
07E000
07F000
03F000
03F800
03F800
01F800
01FC00
00FC00
00FE00
007E00
003E00
003F00
001F80
001F80
000FC0
0007C0
0007E0
0003E0
ENDCHAR
STARTCHAR 0029
ENCODING 41
SWIDTH 338 0
DWIDTH 31 0
BBX 19 86 4 -19
BITMAP
F80000
FC0000
7C0000
3E0000
3F0000
1F0000
1F8000
0FC000
0FC000
07E000
07E000
07F000
03F000
03F800
01F800
01FC00
01FC00
00FC00
00FE00
00FE00
007E00
007F00
007F00
007F00
003F80
003F80
003F80
003FC0
001FC0
001FC0
001FC0
001FC0
001FE0
001FE0
000FE0
000FE0
000FE0
000FE0
000FE0
000FE0
000FE0
000FE0
000FE0
000FE0
000FE0
000FE0
000FE0
000FE0
000FE0
000FE0
000FE0
000FE0
001FE0
001FE0
001FC0
001FC0
001FC0
001FC0
003FC0
003F80
003F80
003F80
003F00
007F00
007F00
007E00
00FE00
00FE00
00FC00
01FC00
01FC00
01F800
03F800
03F000
03F000
07E000
07E000
0FC000
0FC000
1F8000
1F0000
3F0000
3E0000
7E0000
7C0000
F80000
ENDCHAR
STARTCHAR 002A
ENCODING 42
SWIDTH 392 0
DWIDTH 36 0
BBX 27 26 4 41
BITMAP
001F0000
001F0000
001F0000
001F0000
001F0000
001F0000
001F0000
601F00C0
7C1F07C0
7F9F3FE0
FFFFFFE0
FFFFFFE0
7FFFFFC0
0FFFFE00
00FFE000
007FC000
00FFE000
00FFF000
01FBF000
03F1F800
07F1FC00
0FE0FE00
0FC07E00
0FC07E00
07803C00
01001800
ENDCHAR
STARTCHAR 002B
ENCODING 43
SWIDTH 589 0
DWIDTH 54 0
BBX 44 44 5 -1
BITMAP
00001F800000
00001F800000
00001F800000
00001F800000
00001F800000
00001F800000
00001F800000
00001F800000
00001F800000
00001F800000
00001F800000
00001F800000
00001F800000
00001F800000
00001F800000
00001F800000
00001F800000
00001F800000
00001F800000
FFFFFFFFFFF0
FFFFFFFFFFF0
FFFFFFFFFFF0
FFFFFFFFFFF0
FFFFFFFFFFF0
FFFFFFFFFFF0
00001F800000
00001F800000
00001F800000
00001F800000
00001F800000
00001F800000
00001F800000
00001F800000
00001F800000
00001F800000
00001F800000
00001F800000
00001F800000
00001F800000
00001F800000
00001F800000
00001F800000
00001F800000
00001F800000
ENDCHAR
STARTCHAR 002C
ENCODING 44
SWIDTH 272 0
DWIDTH 25 0
BBX 10 23 8 -14
BITMAP
FFC0
FFC0
FFC0
FFC0
FFC0
FFC0
FFC0
FFC0
FFC0
FFC0
07C0
07C0
07C0
07C0
0780
0780
0780
0780
0F00
1F00
FE00
FC00
F800
ENDCHAR
STARTCHAR 002D
ENCODING 45
SWIDTH 338 0
DWIDTH 31 0
BBX 22 7 4 22
BITMAP
FFFFFC
FFFFFC
FFFFFC
FFFFFC
FFFFFC
FFFFFC
FFFFFC
ENDCHAR
STARTCHAR 002E
ENCODING 46
SWIDTH 272 0
DWIDTH 25 0
BBX 10 10 8 0
BITMAP
FFC0
FFC0
FFC0
FFC0
FFC0
FFC0
FFC0
FFC0
FFC0
FFC0
ENDCHAR
STARTCHAR 002F
ENCODING 47
SWIDTH 272 0
DWIDTH 25 0
BBX 27 69 -1 -2
BITMAP
000003E0
000003E0
000007C0
000007C0
000007C0
00000F80
00000F80
00000F80
00001F00
00001F00
00001F00
00003E00
00003E00
00003E00
00007C00
00007C00
00007C00
0000FC00
0000F800
0000F800
0000F800
0001F000
0001F000
0001F000
0003E000
0003E000
0003E000
0007C000
0007C000
0007C000
000F8000
000F8000
000F8000
001F0000
001F0000
001F0000
003F0000
003E0000
003E0000
003E0000
007C0000
007C0000
007C0000
00F80000
00F80000
00F80000
01F00000
01F00000
01F00000
03E00000
03E00000
03E00000
07C00000
07C00000
07C00000
07C00000
0F800000
0F800000
0F800000
1F000000
1F000000
1F000000
3E000000
3E000000
3E000000
7C000000
7C000000
7C000000
F8000000
ENDCHAR
STARTCHAR 0030
ENCODING 48
SWIDTH 556 0
DWIDTH 51 0
BBX 42 68 4 -2
BITMAP
00007FC00000
0003FFF80000
000FFFFE0000
003FFFFF0000
007FFFFFC000
00FFFFFFE000
01FFFFFFF000
03FFE0FFF000
07FF003FF800
07FE000FFC00
0FFC0007FC00
0FF80003FE00
1FF00003FE00
1FF00001FF00
1FE00001FF00
3FE00000FF00
3FC00000FF80
3FC00000FF80
7FC000007F80
7FC000007F80
7F8000007F80
7F8000007FC0
7F8000007FC0
7F8000003FC0
FF8000003FC0
FF8000003FC0
FF8000003FC0
FF0000003FC0
FF0000003FC0
FF0000003FC0
FF0000003FC0
FF0000003FC0
FF0000003FC0
FF0000003FC0
FF0000003FC0
FF0000003FC0
FF0000003FC0
FF0000003FC0
FF0000003FC0
FF0000003FC0
FF0000003FC0
FF8000003FC0
FF8000003FC0
FF8000003FC0
7F8000003FC0
7F8000003FC0
7F8000007FC0
7F8000007F80
7FC000007F80
7FC000007F80
3FC000007F80
3FC00000FF00
3FE00000FF00
1FE00000FF00
1FE00001FE00
1FF00001FE00
0FF80003FE00
0FF80007FC00
07FC000FFC00
07FE001FF800
03FF807FF000
01FFFFFFE000
00FFFFFFE000
007FFFFFC000
003FFFFF0000
001FFFFE0000
0007FFF80000
0000FFC00000
ENDCHAR
STARTCHAR 0031
ENCODING 49
SWIDTH 556 0
DWIDTH 51 0
BBX 23 66 9 0
BITMAP
00007E
00007E
00007E
0000FE
0000FE
0000FE
0001FE
0003FE
0003FE
0007FE
001FFE
00FFFE
1FFFFE
FFFFFE
FFFFFE
FFFFFE
FFFFFE
FFFFFE
FFFFFE
0001FE
0001FE
0001FE
0001FE
0001FE
0001FE
0001FE
0001FE
0001FE
0001FE
0001FE
0001FE
0001FE
0001FE
0001FE
0001FE
0001FE
0001FE
0001FE
0001FE
0001FE
0001FE
0001FE
0001FE
0001FE
0001FE
0001FE
0001FE
0001FE
0001FE
0001FE
0001FE
0001FE
0001FE
0001FE
0001FE
0001FE
0001FE
0001FE
0001FE
0001FE
0001FE
0001FE
0001FE
0001FE
0001FE
0001FE
ENDCHAR
STARTCHAR 0032
ENCODING 50
SWIDTH 556 0
DWIDTH 51 0
BBX 44 66 3 0
BITMAP
00003FF00000
0003FFFF0000
000FFFFFC000
003FFFFFF000
007FFFFFF800
00FFFFFFFC00
01FFFFFFFE00
03FFE03FFF00
07FF8007FF80
07FE0001FF80
0FFC0000FFC0
0FF800007FC0
1FF000003FE0
1FF000003FE0
1FE000001FE0
3FE000001FF0
3FE000001FF0
3FC000001FF0
3FC000000FF0
3FC000000FF0
3FC000000FF0
3FC000001FF0
3FC000001FF0
000000001FE0
000000001FE0
000000003FE0
000000003FE0
000000007FC0
00000000FFC0
00000001FF80
00000003FF00
00000007FF00
0000001FFE00
0000007FFC00
000000FFF800
000003FFF000
00000FFFC000
00003FFF8000
00007FFE0000
0001FFFC0000
0003FFF00000
000FFFC00000
001FFF000000
003FFC000000
007FF8000000
00FFE0000000
01FFC0000000
03FF00000000
07FE00000000
0FFC00000000
0FF800000000
1FF000000000
1FE000000000
3FE000000000
3FC000000000
3FC000000000
7FC000000000
7F8000000000
7FFFFFFFFFE0
7FFFFFFFFFE0
7FFFFFFFFFE0
7FFFFFFFFFE0
FFFFFFFFFFE0
FFFFFFFFFFE0
FFFFFFFFFFE0
FFFFFFFFFFE0
ENDCHAR
STARTCHAR 0033
ENCODING 51
SWIDTH 556 0
DWIDTH 51 0
BBX 43 68 3 -2
BITMAP
0000FFE00000
0007FFFE0000
001FFFFF8000
007FFFFFE000
00FFFFFFF000
01FFFFFFF800
03FFFFFFFC00
07FFC07FFE00
0FFE000FFE00
0FFC0007FF00
1FF80001FF00
1FF00001FF80
1FE00000FF80
3FE00000FF80
3FC000007F80
3FC000007F80
3FC000007F80
3FC000007F80
7FC000007F80
7F8000007F80
7F8000007F80
000000007F80
000000007F80
00000000FF80
00000000FF00
00000001FF00
00000003FE00
0000000FFC00
000001FFFC00
00007FFFF000
00007FFFE000
00007FFF8000
00007FFFC000
00007FFFF000
00007FFFFC00
00007FFFFE00
0000000FFF00
00000003FF80
00000000FF80
000000007FC0
000000007FC0
000000003FE0
000000003FE0
000000001FE0
000000001FE0
000000001FE0
000000001FE0
FF0000001FE0
FF0000001FE0
FF0000001FE0
FF8000001FE0
7F8000001FE0
7F8000003FE0
7F8000003FE0
7FC000003FC0
3FC000007FC0
3FE00000FFC0
3FF00001FF80
1FF80003FF80
1FFE0007FF00
0FFFC07FFE00
07FFFFFFFC00
03FFFFFFF800
01FFFFFFF000
00FFFFFFE000
003FFFFF8000
000FFFFE0000
0000FFE00000
ENDCHAR
STARTCHAR 0034
ENCODING 52
SWIDTH 556 0
DWIDTH 51 0
BBX 45 66 3 0
BITMAP
00000007E000
0000000FE000
0000001FE000
0000003FE000
0000003FE000
0000007FE000
000000FFE000
000000FFE000
000001FFE000
000003FFE000
000007FFE000
000007FFE000
00000FFFE000
00001FFFE000
00001FDFE000
00003FDFE000
00007F9FE000
00007F1FE000
0000FF1FE000
0001FE1FE000
0003FC1FE000
0003F81FE000
0007F81FE000
000FF01FE000
000FE01FE000
001FE01FE000
003FC01FE000
007F801FE000
007F801FE000
00FF001FE000
01FE001FE000
01FC001FE000
03FC001FE000
07F8001FE000
07F0001FE000
0FF0001FE000
1FE0001FE000
3FC0001FE000
3FC0001FE000
7F80001FE000
FF00001FE000
FF00001FE000
FE00001FE000
FFFFFFFFFFF8
FFFFFFFFFFF8
FFFFFFFFFFF8
FFFFFFFFFFF8
FFFFFFFFFFF8
FFFFFFFFFFF8
FFFFFFFFFFF8
0000001FE000
0000001FE000
0000001FE000
0000001FE000
0000001FE000
0000001FE000
0000001FE000
0000001FE000
0000001FE000
0000001FE000
0000001FE000
0000001FE000
0000001FE000
0000001FE000
0000001FE000
0000001FE000
ENDCHAR
STARTCHAR 0035
ENCODING 53
SWIDTH 556 0
DWIDTH 51 0
BBX 44 67 3 -2
BITMAP
01FFFFFFFF80
01FFFFFFFF80
01FFFFFFFF80
01FFFFFFFF80
03FFFFFFFF80
03FFFFFFFF80
03FFFFFFFF80
03FFFFFFFF80
03FC00000000
03F800000000
03F800000000
07F800000000
07F800000000
07F800000000
07F800000000
07F800000000
07F000000000
07F000000000
07F000000000
0FF000000000
0FF000000000
0FF000000000
0FF01FF00000
0FE1FFFE0000
0FE7FFFFC000
0FEFFFFFE000
1FFFFFFFF800
1FFFFFFFFC00
1FFFFFFFFE00
1FFFC07FFF00
1FFE000FFF00
1FF80003FF80
1FF00001FF80
3FE00000FFC0
3FC000007FC0
000000003FE0
000000003FE0
000000001FE0
000000001FF0
000000001FF0
000000001FF0
000000000FF0
000000000FF0
000000000FF0
000000000FF0
000000000FF0
000000000FF0
000000000FF0
000000001FF0
FF0000001FE0
7F8000001FE0
7F8000001FE0
7FC000003FE0
7FC000003FC0
3FE000007FC0
3FE00000FF80
3FF00001FF80
1FFC0003FF00
0FFE000FFE00
0FFFC07FFE00
07FFFFFFFC00
03FFFFFFF800
01FFFFFFF000
007FFFFFC000
001FFFFF0000
0007FFFC0000
0000FFE00000
ENDCHAR
STARTCHAR 0036
ENCODING 54
SWIDTH 556 0
DWIDTH 51 0
BBX 43 68 4 -2
BITMAP
00001FF00000
0001FFFE0000
0007FFFF8000
000FFFFFC000
003FFFFFF000
007FFFFFF800
00FFFFFFF800
01FFF07FFC00
03FF800FFE00
03FE0007FE00
07FC0001FF00
07F80001FF00
0FF80000FF80
0FF00000FF80
1FF000007F80
1FE000007F80
3FE000007FC0
3FC000000000
3FC000000000
3FC000000000
7F8000000000
7F8000000000
7F8000000000
7F8000000000
7F8000000000
7F803FF00000
FF01FFFE0000
FF07FFFF8000
FF0FFFFFE000
FF1FFFFFF000
FF3FFFFFF800
FF7FFFFFFC00
FFFFE07FFE00
FFFF000FFF00
FFFC0003FF00
FFF80001FF80
FFF00000FF80
FFE00000FFC0
FFE000007FC0
FFC000003FC0
FFC000003FE0
FF8000003FE0
FF8000003FE0
FF8000001FE0
FF8000001FE0
7F8000001FE0
7F8000001FE0
7F8000001FE0
7F8000001FE0
7F8000001FE0
7F8000003FE0
3FC000003FC0
3FC000003FC0
3FC000007FC0
1FE000007FC0
1FF00000FF80
0FF00001FF80
0FF80003FF00
07FE0007FF00
07FF000FFE00
03FFE07FFC00
01FFFFFFF800
00FFFFFFF000
007FFFFFE000
003FFFFFC000
001FFFFF0000
0007FFFC0000
00007FE00000
ENDCHAR
STARTCHAR 0037
ENCODING 55
SWIDTH 556 0
DWIDTH 51 0
BBX 44 65 4 0
BITMAP
FFFFFFFFFFF0
FFFFFFFFFFF0
FFFFFFFFFFF0
FFFFFFFFFFF0
FFFFFFFFFFF0
FFFFFFFFFFF0
FFFFFFFFFFF0
FFFFFFFFFFE0
000000001FC0
000000003FC0
000000003F80
000000007F00
00000000FF00
00000000FE00
00000001FC00
00000003FC00
00000003F800
00000007F000
0000000FF000
0000000FE000
0000001FC000
0000003FC000
0000003F8000
0000007F8000
0000007F0000
000000FE0000
000001FE0000
000001FC0000
000003FC0000
000003F80000
000007F80000
000007F00000
00000FF00000
00000FE00000
00001FE00000
00001FC00000
00003FC00000
00003F800000
00007F800000
00007F800000
0000FF000000
0000FF000000
0000FE000000
0001FE000000
0001FE000000
0003FC000000
0003FC000000
0003FC000000
0007F8000000
0007F8000000
0007F8000000
000FF0000000
000FF0000000
000FF0000000
001FF0000000
001FE0000000
001FE0000000
001FE0000000
003FE0000000
003FC0000000
003FC0000000
003FC0000000
007FC0000000
007FC0000000
007F80000000
ENDCHAR
STARTCHAR 0038
ENCODING 56
SWIDTH 556 0
DWIDTH 51 0
BBX 44 68 3 -2
BITMAP
00007FE00000
0003FFFE0000
000FFFFF8000
003FFFFFE000
007FFFFFF000
00FFFFFFF800
01FFFFFFFC00
03FFE07FFE00
07FF000FFE00
07FE0003FF00
0FF80001FF00
0FF80000FF80
1FF00000FF80
1FF000007F80
1FE000007FC0
1FE000007FC0
1FE000007FC0
1FE000007FC0
1FE000007FC0
1FE000007FC0
1FE000007FC0
1FF000007F80
1FF00000FF80
0FF80000FF80
0FF80001FF00
07FC0003FF00
03FF0007FE00
01FFC03FFC00
00FFFFFFF800
007FFFFFE000
003FFFFFC000
001FFFFFC000
007FFFFFE000
00FFFFFFF800
03FFFFFFFC00
07FF801FFE00
0FFE0007FF00
0FF80001FF80
1FF00000FFC0
3FE000007FC0
3FE000003FE0
7FC000003FE0
7FC000001FE0
7F8000001FF0
7F8000001FF0
7F8000000FF0
FF8000000FF0
FF8000000FF0
FF8000000FF0
FF8000000FF0
7F8000000FF0
7F8000001FF0
7F8000001FF0
7FC000001FE0
3FC000003FE0
3FE000003FE0
3FF000007FC0
1FF80000FFC0
1FFC0001FF80
0FFF0007FF00
07FFE03FFF00
03FFFFFFFE00
01FFFFFFFC00
00FFFFFFF000
007FFFFFE000
001FFFFF8000
0007FFFE0000
00007FE00000
ENDCHAR
STARTCHAR 0039
ENCODING 57
SWIDTH 556 0
DWIDTH 51 0
BBX 44 68 3 -2
BITMAP
00007FE00000
0003FFFC0000
000FFFFF0000
003FFFFFC000
007FFFFFE000
01FFFFFFF000
03FFFFFFF800
07FFC07FFC00
07FF001FFC00
0FFC0007FE00
1FF80003FF00
1FF00001FF00
3FE00000FF80
3FE000007F80
3FC000007F80
7FC000003FC0
7F8000003FC0
7F8000003FC0
7F8000001FC0
7F8000001FE0
7F8000001FE0
7F8000001FE0
FF8000001FE0
7F8000001FE0
7F8000001FE0
7F8000001FE0
7F8000003FF0
7FC000003FF0
7FC000003FF0
3FE000007FF0
3FE00000FFF0
3FF00000FFF0
1FF80001FFF0
1FFC0007FFF0
0FFE000FFFF0
07FFC07FFFF0
07FFFFFFFFF0
03FFFFFFDFF0
01FFFFFF9FF0
007FFFFE1FE0
003FFFFC1FE0
000FFFF01FE0
0000FF801FE0
000000001FE0
000000001FE0
000000001FE0
000000003FE0
000000003FC0
000000003FC0
000000003FC0
000000007FC0
3FC000007F80
3FC000007F80
3FE00000FF00
1FE00001FF00
1FF00001FF00
1FF00003FE00
0FF80007FC00
0FFC000FFC00
07FF001FF800
07FFC0FFF000
03FFFFFFF000
01FFFFFFE000
00FFFFFF8000
007FFFFF0000
001FFFFC0000
0007FFF00000
0000FF800000
ENDCHAR
STARTCHAR 003A
ENCODING 58
SWIDTH 272 0
DWIDTH 25 0
BBX 10 48 10 0
BITMAP
FFC0
FFC0
FFC0
FFC0
FFC0
FFC0
FFC0
FFC0
FFC0
FFC0
0000
0000
0000
0000
0000
0000
0000
0000
0000
0000
0000
0000
0000
0000
0000
0000
0000
0000
0000
0000
0000
0000
0000
0000
0000
0000
0000
0000
FFC0
FFC0
FFC0
FFC0
FFC0
FFC0
FFC0
FFC0
FFC0
FFC0
ENDCHAR
STARTCHAR 003B
ENCODING 59
SWIDTH 272 0
DWIDTH 25 0
BBX 10 61 10 -14
BITMAP
FFC0
FFC0
FFC0
FFC0
FFC0
FFC0
FFC0
FFC0
FFC0
FFC0
0000
0000
0000
0000
0000
0000
0000
0000
0000
0000
0000
0000
0000
0000
0000
0000
0000
0000
0000
0000
0000
0000
0000
0000
0000
0000
0000
0000
FFC0
FFC0
FFC0
FFC0
FFC0
FFC0
FFC0
FFC0
FFC0
FFC0
03C0
03C0
03C0
03C0
07C0
0780
0780
0780
0F00
1F00
FE00
FC00
F800
ENDCHAR
STARTCHAR 003C
ENCODING 60
SWIDTH 589 0
DWIDTH 54 0
BBX 45 44 4 -1
BITMAP
000000000018
000000000078
0000000003F8
000000000FF8
000000003FF8
00000001FFF8
00000007FFF8
0000001FFFF0
000000FFFF80
000003FFFE00
00000FFFF000
00007FFFC000
0001FFFE0000
000FFFF80000
003FFFE00000
00FFFF000000
07FFFC000000
1FFFE0000000
7FFF80000000
FFFC00000000
FFF000000000
FF8000000000
FFE000000000
FFF800000000
FFFE00000000
7FFFC0000000
0FFFF0000000
03FFFE000000
00FFFF800000
001FFFF00000
0007FFFC0000
0001FFFF0000
00003FFFE000
00000FFFF800
000003FFFF00
0000007FFFC0
0000001FFFF0
00000003FFF8
00000000FFF8
000000003FF8
0000000007F8
0000000001F8
000000000078
000000000008
ENDCHAR
STARTCHAR 003D
ENCODING 61
SWIDTH 589 0
DWIDTH 54 0
BBX 44 22 5 10
BITMAP
FFFFFFFFFFF0
FFFFFFFFFFF0
FFFFFFFFFFF0
FFFFFFFFFFF0
FFFFFFFFFFF0
FFFFFFFFFFF0
000000000000
000000000000
000000000000
000000000000
000000000000
000000000000
000000000000
000000000000
000000000000
000000000000
FFFFFFFFFFF0
FFFFFFFFFFF0
FFFFFFFFFFF0
FFFFFFFFFFF0
FFFFFFFFFFF0
FFFFFFFFFFF0
ENDCHAR
STARTCHAR 003E
ENCODING 62
SWIDTH 589 0
DWIDTH 54 0
BBX 44 44 5 -1
BITMAP
800000000000
F00000000000
FC0000000000
FF0000000000
FFE000000000
FFF800000000
FFFF00000000
7FFFC0000000
1FFFF0000000
03FFFE000000
00FFFF800000
003FFFE00000
0007FFFC0000
0001FFFF0000
00003FFFC000
00000FFFF800
000003FFFE00
0000007FFFC0
0000001FFFF0
00000003FFF0
00000000FFF0
000000003FF0
000000003FF0
00000000FFF0
00000003FFF0
0000001FFFE0
0000007FFF80
000003FFFE00
00000FFFF000
00007FFFC000
0001FFFE0000
000FFFF80000
003FFFE00000
00FFFF000000
07FFFC000000
1FFFF0000000
FFFF80000000
FFFE00000000
FFF800000000
FFC000000000
FF0000000000
F80000000000
E00000000000
800000000000
ENDCHAR
STARTCHAR 003F
ENCODING 63
SWIDTH 556 0
DWIDTH 51 0
BBX 40 68 7 0
BITMAP
0001FF8000
001FFFF800
007FFFFE00
01FFFFFF80
03FFFFFFC0
07FFFFFFE0
0FFFFFFFF0
0FFF01FFF8
1FF8003FF8
3FF0001FFC
3FE00007FC
3FC00003FE
7F800003FE
7F800001FE
7F800001FE
7F000001FF
FF000001FF
FF000001FF
FF000001FF
FF000001FF
FF000001FE
00000001FE
00000003FE
00000003FE
00000007FC
00000007FC
0000000FF8
0000001FF8
0000003FF0
0000007FE0
000000FFC0
000001FF80
000003FF00
000007FE00
00000FFC00
00001FF800
00003FF000
00007FE000
0000FFC000
0000FF8000
0000FF8000
0001FF0000
0001FF0000
0001FE0000
0001FE0000
0001FE0000
0001FE0000
0001FE0000
0001FE0000
0001FE0000
0000000000
0000000000
0000000000
0000000000
0000000000
0000000000
0000000000
0000000000
0001FE0000
0001FE0000
0001FE0000
0001FE0000
0001FE0000
0001FE0000
0001FE0000
0001FE0000
0001FE0000
0001FE0000
ENDCHAR
STARTCHAR 0040
ENCODING 64
SWIDTH 1014 0
DWIDTH 93 0
BBX 84 81 3 -13
BITMAP
0000000001FFF000000000
000000003FFFFF80000000
00000001FFFFFFF0000000
0000000FFFFFFFFC000000
0000003FFFFFFFFF800000
000000FFFFFFFFFFC00000
000003FFFFFFFFFFF00000
00000FFFFC007FFFFC0000
00001FFFC00003FFFE0000
00003FFE0000007FFF0000
0000FFF80000001FFF8000
0001FFE000000007FFC000
0003FF8000000001FFE000
0007FF0000000000FFF000
000FFC00000000003FF800
001FF800000000001FFC00
003FF000000000000FFE00
003FE0000000000007FE00
007FC0000000000003FF00
00FF80000000000001FF00
01FF0000007E000001FF80
01FE000003FFC00000FF80
03FE00001FFFF03F807FC0
03FC00003FFFF87F807FC0
07F80000FFFFFC7F803FE0
07F80001FFFFFE7F003FE0
0FF00003FF81FEFF001FE0
0FF00007FE007FFF001FE0
1FE0000FF8003FFF001FF0
1FE0001FF0001FFE001FF0
1FC0003FE0000FFE000FF0
3FC0003FC0000FFE000FF0
3FC0007FC00007FC000FF0
3F8000FF800007FC000FF0
7F8000FF000007FC000FF0
7F8001FF000007F8000FF0
7F8001FE000007F8000FF0
7F0001FE000007F8000FF0
7F0003FE00000FF0000FF0
FF0003FC00000FF0000FF0
FF0003FC00000FF0000FF0
FF0003FC00000FE0001FE0
FF0007FC00001FE0001FE0
FF0007FC00001FE0001FE0
FF0007F800001FC0003FC0
FF0007F800003FC0003FC0
FF0007FC00003FC0003FC0
FF0007FC00003F80007F80
FF0007FC00007F8000FF80
7F8003FC00007F8000FF00
7F8003FE0000FF8001FE00
7F8003FE0001FF0003FE00
7F8001FF0003FF0007FC00
7FC001FF8007FF000FF800
3FC000FFC00FFF801FF800
3FE000FFF03FFFC07FF000
3FE0007FFFFF7FF7FFE000
1FF0003FFFFE3FFFFFC000
1FF0001FFFFC3FFFFF8000
0FF8000FFFF01FFFFE0000
0FFC0003FFE00FFFF80000
07FC0000FF0007FFE00000
07FE0000000001FF000000
03FF000000000000000000
01FF800000000000000000
00FFC00000000000000000
00FFF00000000000000000
007FF80000000000000000
003FFC0000000000000000
001FFF0000000000000000
000FFFC000000000000000
0003FFF000000030000000
0001FFFF000003F8000000
0000FFFFF8007FF8000000
00003FFFFFFFFFF8000000
00000FFFFFFFFFFC000000
000003FFFFFFFFFC000000
000000FFFFFFFFFC000000
0000003FFFFFFFC0000000
00000003FFFFFE00000000
000000001FFF8000000000
ENDCHAR
STARTCHAR 0041
ENCODING 65
SWIDTH 665 0
DWIDTH 61 0
BBX 58 67 2 0
BITMAP
000001FFE0000000
000001FFE0000000
000001FFE0000000
000003FFF0000000
000003FFF0000000
000007FFF0000000
000007FFF8000000
000007FFF8000000
00000FFFF8000000
00000FFFFC000000
00000FF7FC000000
00001FF3FC000000
00001FF3FE000000
00001FE3FE000000
00003FE1FE000000
00003FE1FF000000
00003FC1FF000000
00007FC0FF800000
00007F80FF800000
0000FF80FF800000
0000FF807FC00000
0000FF007FC00000
0001FF007FC00000
0001FF003FE00000
0001FE003FE00000
0003FE003FE00000
0003FE001FF00000
0003FC001FF00000
0007FC001FF00000
0007FC000FF80000
0007F8000FF80000
000FF8000FF80000
000FF00007FC0000
001FF00007FC0000
001FF00007FC0000
001FE00003FE0000
003FE00003FE0000
003FE00003FF0000
003FC00001FF0000
007FC00001FF0000
007FFFFFFFFF8000
007FFFFFFFFF8000
00FFFFFFFFFF8000
00FFFFFFFFFFC000
00FFFFFFFFFFC000
01FFFFFFFFFFC000
01FFFFFFFFFFE000
03FF0000003FE000
03FE0000003FE000
03FE0000003FF000
07FC0000001FF000
07FC0000001FF000
07FC0000001FF800
0FF80000000FF800
0FF80000000FF800
0FF80000000FFC00
1FF000000007FC00
1FF000000007FE00
1FF000000007FE00
3FE000000003FE00
3FE000000003FF00
3FE000000003FF00
7FC000000001FF00
7FC000000001FF80
FFC000000001FF80
FF8000000000FF80
FF8000000000FFC0
ENDCHAR
STARTCHAR 0042
ENCODING 66
SWIDTH 665 0
DWIDTH 61 0
BBX 50 67 7 0
BITMAP
FFFFFFFF800000
FFFFFFFFF80000
FFFFFFFFFE0000
FFFFFFFFFF0000
FFFFFFFFFFC000
FFFFFFFFFFE000
FFFFFFFFFFF000
FFFFFFFFFFF000
FF800000FFF800
FF8000003FFC00
FF8000000FFC00
FF80000007FC00
FF80000007FE00
FF80000003FE00
FF80000003FE00
FF80000003FE00
FF80000001FE00
FF80000001FE00
FF80000001FE00
FF80000001FE00
FF80000003FE00
FF80000003FE00
FF80000003FC00
FF80000003FC00
FF80000007FC00
FF8000000FF800
FF8000001FF000
FF8000003FF000
FF800001FFE000
FFFFFFFFFFC000
FFFFFFFFFF0000
FFFFFFFFFC0000
FFFFFFFFFF0000
FFFFFFFFFFC000
FFFFFFFFFFE000
FFFFFFFFFFF800
FFFFFFFFFFFC00
FF8000001FFE00
FF80000007FF00
FF80000003FF00
FF80000001FF80
FF80000000FF80
FF80000000FF80
FF800000007FC0
FF800000007FC0
FF800000007FC0
FF800000003FC0
FF800000003FC0
FF800000003FC0
FF800000003FC0
FF800000007FC0
FF800000007FC0
FF800000007FC0
FF800000007F80
FF80000000FF80
FF80000001FF80
FF80000003FF00
FF80000007FF00
FF8000001FFE00
FFFFFFFFFFFE00
FFFFFFFFFFFC00
FFFFFFFFFFF800
FFFFFFFFFFF000
FFFFFFFFFFE000
FFFFFFFFFF8000
FFFFFFFFFE0000
FFFFFFFFF00000
ENDCHAR
STARTCHAR 0043
ENCODING 67
SWIDTH 720 0
DWIDTH 66 0
BBX 58 70 4 -2
BITMAP
0000007FF8000000
000007FFFF800000
00003FFFFFF00000
0000FFFFFFFC0000
0003FFFFFFFE0000
0007FFFFFFFF0000
000FFFFFFFFFC000
001FFFFFFFFFE000
003FFE0007FFE000
007FF80000FFF000
00FFE000003FF800
01FFC000001FF800
01FF8000000FFC00
03FF00000007FC00
07FE00000007FE00
07FC00000003FE00
0FF800000003FE00
0FF800000001FF00
1FF000000001FF00
1FF000000001FF00
1FE000000000FF00
3FE000000000FF80
3FE0000000000000
3FC0000000000000
3FC0000000000000
7FC0000000000000
7FC0000000000000
7FC0000000000000
7F80000000000000
7F80000000000000
7F80000000000000
7F80000000000000
7F80000000000000
FF80000000000000
FF80000000000000
FF80000000000000
FF80000000000000
FF80000000000000
7F80000000000000
7F80000000000000
7F80000000000000
7F80000000000000
7FC0000000000000
7FC0000000000000
7FC0000000007FC0
7FC0000000007FC0
3FC0000000007FC0
3FE0000000007F80
3FE000000000FF80
1FF000000000FF80
1FF000000000FF80
1FF800000001FF80
0FF800000001FF00
0FFC00000003FF00
07FC00000003FE00
07FE00000007FE00
03FF00000007FE00
03FF8000000FFC00
01FFC000001FFC00
00FFF000007FF800
00FFFC0000FFF000
007FFF0007FFE000
003FFFFFFFFFE000
001FFFFFFFFFC000
0007FFFFFFFF0000
0003FFFFFFFE0000
0000FFFFFFF80000
00007FFFFFF00000
00000FFFFF800000
000000FFF8000000
ENDCHAR
STARTCHAR 0044
ENCODING 68
SWIDTH 720 0
DWIDTH 66 0
BBX 53 67 8 0
BITMAP
FFFFFFFF000000
FFFFFFFFE00000
FFFFFFFFFC0000
FFFFFFFFFF0000
FFFFFFFFFF8000
FFFFFFFFFFE000
FFFFFFFFFFF000
FFFFFFFFFFF800
FF800001FFFC00
FF8000003FFC00
FF8000000FFE00
FF80000007FF00
FF80000003FF00
FF80000001FF80
FF80000000FF80
FF80000000FFC0
FF800000007FC0
FF800000003FE0
FF800000003FE0
FF800000003FE0
FF800000001FF0
FF800000001FF0
FF800000001FF0
FF800000000FF0
FF800000000FF0
FF800000000FF8
FF800000000FF8
FF800000000FF8
FF800000000FF8
FF8000000007F8
FF8000000007F8
FF8000000007F8
FF8000000007F8
FF8000000007F8
FF8000000007F8
FF8000000007F8
FF8000000007F8
FF8000000007F8
FF800000000FF8
FF800000000FF8
FF800000000FF8
FF800000000FF8
FF800000000FF0
FF800000000FF0
FF800000001FF0
FF800000001FF0
FF800000001FF0
FF800000001FE0
FF800000003FE0
FF800000003FE0
FF800000007FC0
FF800000007FC0
FF80000000FF80
FF80000001FF80
FF80000003FF00
FF80000007FF00
FF8000000FFE00
FF8000003FFC00
FF800001FFF800
FFFFFFFFFFF800
FFFFFFFFFFF000
FFFFFFFFFFC000
FFFFFFFFFF8000
FFFFFFFFFF0000
FFFFFFFFFC0000
FFFFFFFFE00000
FFFFFFFE000000
ENDCHAR
STARTCHAR 0045
ENCODING 69
SWIDTH 665 0
DWIDTH 61 0
BBX 48 67 8 0
BITMAP
FFFFFFFFFFFE
FFFFFFFFFFFE
FFFFFFFFFFFE
FFFFFFFFFFFE
FFFFFFFFFFFE
FFFFFFFFFFFE
FFFFFFFFFFFE
FFFFFFFFFFFE
FF8000000000
FF8000000000
FF8000000000
FF8000000000
FF8000000000
FF8000000000
FF8000000000
FF8000000000
FF8000000000
FF8000000000
FF8000000000
FF8000000000
FF8000000000
FF8000000000
FF8000000000
FF8000000000
FF8000000000
FF8000000000
FF8000000000
FF8000000000
FF8000000000
FFFFFFFFFFF8
FFFFFFFFFFF8
FFFFFFFFFFF8
FFFFFFFFFFF8
FFFFFFFFFFF8
FFFFFFFFFFF8
FFFFFFFFFFF8
FFFFFFFFFFF8
FF8000000000
FF8000000000
FF8000000000
FF8000000000
FF8000000000
FF8000000000
FF8000000000
FF8000000000
FF8000000000
FF8000000000
FF8000000000
FF8000000000
FF8000000000
FF8000000000
FF8000000000
FF8000000000
FF8000000000
FF8000000000
FF8000000000
FF8000000000
FF8000000000
FF8000000000
FFFFFFFFFFFF
FFFFFFFFFFFF
FFFFFFFFFFFF
FFFFFFFFFFFF
FFFFFFFFFFFF
FFFFFFFFFFFF
FFFFFFFFFFFF
FFFFFFFFFFFF
ENDCHAR
STARTCHAR 0046
ENCODING 70
SWIDTH 610 0
DWIDTH 56 0
BBX 45 67 8 0
BITMAP
FFFFFFFFFFF8
FFFFFFFFFFF8
FFFFFFFFFFF8
FFFFFFFFFFF8
FFFFFFFFFFF8
FFFFFFFFFFF8
FFFFFFFFFFF8
FFFFFFFFFFF8
FF8000000000
FF8000000000
FF8000000000
FF8000000000
FF8000000000
FF8000000000
FF8000000000
FF8000000000
FF8000000000
FF8000000000
FF8000000000
FF8000000000
FF8000000000
FF8000000000
FF8000000000
FF8000000000
FF8000000000
FF8000000000
FF8000000000
FF8000000000
FF8000000000
FFFFFFFFFF80
FFFFFFFFFF80
FFFFFFFFFF80
FFFFFFFFFF80
FFFFFFFFFF80
FFFFFFFFFF80
FFFFFFFFFF80
FFFFFFFFFF80
FF8000000000
FF8000000000
FF8000000000
FF8000000000
FF8000000000
FF8000000000
FF8000000000
FF8000000000
FF8000000000
FF8000000000
FF8000000000
FF8000000000
FF8000000000
FF8000000000
FF8000000000
FF8000000000
FF8000000000
FF8000000000
FF8000000000
FF8000000000
FF8000000000
FF8000000000
FF8000000000
FF8000000000
FF8000000000
FF8000000000
FF8000000000
FF8000000000
FF8000000000
FF8000000000
ENDCHAR
STARTCHAR 0047
ENCODING 71
SWIDTH 774 0
DWIDTH 71 0
BBX 61 70 4 -2
BITMAP
0000003FFE000000
000007FFFFE00000
00001FFFFFFC0000
00007FFFFFFF0000
0001FFFFFFFFC000
0007FFFFFFFFE000
000FFFFFFFFFF000
001FFFFFFFFFF800
003FFF8001FFFC00
007FFC00003FFE00
00FFF000000FFF00
01FFE0000007FF00
01FF80000003FF80
03FF00000001FFC0
07FE00000000FFC0
07FE000000007FE0
0FFC000000003FE0
0FF8000000003FE0
1FF8000000001FF0
1FF0000000001FF0
3FE0000000001FF0
3FE0000000000000
3FE0000000000000
3FC0000000000000
7FC0000000000000
7FC0000000000000
7F80000000000000
7F80000000000000
7F80000000000000
FF80000000000000
FF80000000000000
FF80000000000000
FF8000007FFFFFF8
FF8000007FFFFFF8
FF8000007FFFFFF8
FF8000007FFFFFF8
FF8000007FFFFFF8
FF8000007FFFFFF8
FF8000007FFFFFF8
FF8000007FFFFFF8
FF800000000007F8
FF800000000007F8
7F800000000007F8
7FC00000000007F8
7FC00000000007F8
7FC00000000007F8
7FC00000000007F8
3FE00000000007F8
3FE00000000007F8
3FF0000000000FF8
1FF0000000000FF8
1FF8000000001FF8
0FF8000000001FF8
0FFC000000003FF8
07FE000000003FF8
07FE000000007FF8
03FF00000000FFF8
03FFC0000001FFF8
01FFE0000007FFF8
00FFF800000FFFF8
007FFE00003FF3F8
003FFF8001FFE3F8
001FFFFFFFFFC3F8
000FFFFFFFFF83F8
0007FFFFFFFF01F8
0001FFFFFFFC01F8
0000FFFFFFF801F8
00003FFFFFE001F8
000007FFFF000000
0000007FF0000000
ENDCHAR
STARTCHAR 0048
ENCODING 72
SWIDTH 720 0
DWIDTH 66 0
BBX 51 67 8 0
BITMAP
FF000000003FE0
FF000000003FE0
FF000000003FE0
FF000000003FE0
FF000000003FE0
FF000000003FE0
FF000000003FE0
FF000000003FE0
FF000000003FE0
FF000000003FE0
FF000000003FE0
FF000000003FE0
FF000000003FE0
FF000000003FE0
FF000000003FE0
FF000000003FE0
FF000000003FE0
FF000000003FE0
FF000000003FE0
FF000000003FE0
FF000000003FE0
FF000000003FE0
FF000000003FE0
FF000000003FE0
FF000000003FE0
FF000000003FE0
FF000000003FE0
FF000000003FE0
FF000000003FE0
FFFFFFFFFFFFE0
FFFFFFFFFFFFE0
FFFFFFFFFFFFE0
FFFFFFFFFFFFE0
FFFFFFFFFFFFE0
FFFFFFFFFFFFE0
FFFFFFFFFFFFE0
FFFFFFFFFFFFE0
FF000000003FE0
FF000000003FE0
FF000000003FE0
FF000000003FE0
FF000000003FE0
FF000000003FE0
FF000000003FE0
FF000000003FE0
FF000000003FE0
FF000000003FE0
FF000000003FE0
FF000000003FE0
FF000000003FE0
FF000000003FE0
FF000000003FE0
FF000000003FE0
FF000000003FE0
FF000000003FE0
FF000000003FE0
FF000000003FE0
FF000000003FE0
FF000000003FE0
FF000000003FE0
FF000000003FE0
FF000000003FE0
FF000000003FE0
FF000000003FE0
FF000000003FE0
FF000000003FE0
FF000000003FE0
ENDCHAR
STARTCHAR 0049
ENCODING 73
SWIDTH 272 0
DWIDTH 25 0
BBX 9 67 9 0
BITMAP
FF80
FF80
FF80
FF80
FF80
FF80
FF80
FF80
FF80
FF80
FF80
FF80
FF80
FF80
FF80
FF80
FF80
FF80
FF80
FF80
FF80
FF80
FF80
FF80
FF80
FF80
FF80
FF80
FF80
FF80
FF80
FF80
FF80
FF80
FF80
FF80
FF80
FF80
FF80
FF80
FF80
FF80
FF80
FF80
FF80
FF80
FF80
FF80
FF80
FF80
FF80
FF80
FF80
FF80
FF80
FF80
FF80
FF80
FF80
FF80
FF80
FF80
FF80
FF80
FF80
FF80
FF80
ENDCHAR
STARTCHAR 004A
ENCODING 74
SWIDTH 501 0
DWIDTH 46 0
BBX 37 69 2 -2
BITMAP
00000007F8
00000007F8
00000007F8
00000007F8
00000007F8
00000007F8
00000007F8
00000007F8
00000007F8
00000007F8
00000007F8
00000007F8
00000007F8
00000007F8
00000007F8
00000007F8
00000007F8
00000007F8
00000007F8
00000007F8
00000007F8
00000007F8
00000007F8
00000007F8
00000007F8
00000007F8
00000007F8
00000007F8
00000007F8
00000007F8
00000007F8
00000007F8
00000007F8
00000007F8
00000007F8
00000007F8
00000007F8
00000007F8
00000007F8
00000007F8
00000007F8
00000007F8
00000007F8
00000007F8
00000007F8
FF000007F8
FF000007F8
FF000007F8
FF000007F8
FF00000FF8
FF00000FF8
FF00000FF8
FF00000FF8
FF80000FF8
FF80000FF8
FF80000FF0
FFC0001FF0
FFC0001FF0
7FE0003FF0
7FF0007FE0
3FF800FFE0
3FFE07FFC0
1FFFFFFF80
0FFFFFFF00
07FFFFFE00
03FFFFFC00
00FFFFF800
003FFFC000
0007FE0000
ENDCHAR
STARTCHAR 004B
ENCODING 75
SWIDTH 665 0
DWIDTH 61 0
BBX 53 67 7 0
BITMAP
FF800000003FF8
FF800000007FF0
FF80000000FFE0
FF80000001FFC0
FF80000003FF80
FF80000007FF00
FF8000000FFE00
FF8000001FFC00
FF8000003FF800
FF8000007FF000
FF800000FFE000
FF800001FFC000
FF800003FF8000
FF800007FF0000
FF80000FFE0000
FF80001FFC0000
FF80003FF80000
FF80007FF00000
FF8000FFE00000
FF8001FFC00000
FF8003FF800000
FF8007FF000000
FF800FFE000000
FF801FFC000000
FF803FF8000000
FF807FF0000000
FF80FFE0000000
FF81FFC0000000
FF83FFE0000000
FF87FFE0000000
FF8FFFF0000000
FF9FFFF8000000
FFBFFFF8000000
FFFFEFFC000000
FFFFC7FE000000
FFFF83FF000000
FFFF03FF000000
FFFE01FF800000
FFFC00FFC00000
FFF800FFC00000
FFF0007FE00000
FFE0003FF00000
FFC0003FF00000
FF80001FF80000
FF80000FFC0000
FF80000FFC0000
FF800007FE0000
FF800003FF0000
FF800001FF8000
FF800001FF8000
FF800000FFC000
FF8000007FE000
FF8000007FE000
FF8000003FF000
FF8000001FF800
FF8000001FF800
FF8000000FFC00
FF80000007FE00
FF80000007FE00
FF80000003FF00
FF80000001FF80
FF80000001FFC0
FF80000000FFC0
FF800000007FE0
FF800000003FF0
FF800000003FF0
FF800000001FF8
ENDCHAR
STARTCHAR 004C
ENCODING 76
SWIDTH 556 0
DWIDTH 51 0
BBX 42 67 7 0
BITMAP
FF8000000000
FF8000000000
FF8000000000
FF8000000000
FF8000000000
FF8000000000
FF8000000000
FF8000000000
FF8000000000
FF8000000000
FF8000000000
FF8000000000
FF8000000000
FF8000000000
FF8000000000
FF8000000000
FF8000000000
FF8000000000
FF8000000000
FF8000000000
FF8000000000
FF8000000000
FF8000000000
FF8000000000
FF8000000000
FF8000000000
FF8000000000
FF8000000000
FF8000000000
FF8000000000
FF8000000000
FF8000000000
FF8000000000
FF8000000000
FF8000000000
FF8000000000
FF8000000000
FF8000000000
FF8000000000
FF8000000000
FF8000000000
FF8000000000
FF8000000000
FF8000000000
FF8000000000
FF8000000000
FF8000000000
FF8000000000
FF8000000000
FF8000000000
FF8000000000
FF8000000000
FF8000000000
FF8000000000
FF8000000000
FF8000000000
FF8000000000
FF8000000000
FF8000000000
FFFFFFFFFFC0
FFFFFFFFFFC0
FFFFFFFFFFC0
FFFFFFFFFFC0
FFFFFFFFFFC0
FFFFFFFFFFC0
FFFFFFFFFFC0
FFFFFFFFFFC0
ENDCHAR
STARTCHAR 004D
ENCODING 77
SWIDTH 829 0
DWIDTH 76 0
BBX 63 67 7 0
BITMAP
FFF0000000001FFE
FFF0000000003FFE
FFF8000000003FFE
FFF8000000003FFE
FFF8000000007FFE
FFFC000000007FFE
FFFC000000007FFE
FFFC00000000FFFE
FFFE00000000FFFE
FFFE00000000FFFE
FFFE00000001FFFE
FFFF00000001FDFE
FFFF00000001FDFE
FF7F00000003FDFE
FF7F80000003F9FE
FF7F80000003F9FE
FF3F80000007F9FE
FF3FC0000007F1FE
FF1FC0000007F1FE
FF1FC000000FF1FE
FF1FE000000FE1FE
FF0FE000000FE1FE
FF0FE000001FE1FE
FF0FF000001FC1FE
FF07F000001FC1FE
FF07F000003FC1FE
FF07F800003F81FE
FF03F800003F81FE
FF03F800007F81FE
FF03FC00007F01FE
FF01FC00007F01FE
FF01FC0000FF01FE
FF01FE0000FE01FE
FF00FE0000FE01FE
FF00FE0001FE01FE
FF00FF0001FC01FE
FF007F0001FC01FE
FF007F0003FC01FE
FF007F8003F801FE
FF003F8003F801FE
FF003F8007F801FE
FF003FC007F001FE
FF001FC007F001FE
FF001FC00FF001FE
FF001FE00FE001FE
FF000FE00FE001FE
FF000FE01FE001FE
FF000FF01FC001FE
FF0007F01FC001FE
FF0007F83FC001FE
FF0007F83F8001FE
FF0003F83F8001FE
FF0003FC7F8001FE
FF0003FC7F0001FE
FF0001FC7F0001FE
FF0001FEFF0001FE
FF0001FEFE0001FE
FF0000FEFE0001FE
FF0000FFFE0001FE
FF0000FFFC0001FE
FF00007FFC0001FE
FF00007FFC0001FE
FF00007FF80001FE
FF00003FF80001FE
FF00003FF80001FE
FF00003FF00001FE
FF00001FF00001FE
ENDCHAR
STARTCHAR 004E
ENCODING 78
SWIDTH 720 0
DWIDTH 66 0
BBX 52 67 7 0
BITMAP
FFC00000000FF0
FFC00000000FF0
FFE00000000FF0
FFE00000000FF0
FFF00000000FF0
FFF80000000FF0
FFF80000000FF0
FFFC0000000FF0
FFFE0000000FF0
FFFE0000000FF0
FFFF0000000FF0
FFFF8000000FF0
FFFF8000000FF0
FF7FC000000FF0
FF7FC000000FF0
FF3FE000000FF0
FF3FF000000FF0
FF1FF000000FF0
FF0FF800000FF0
FF0FFC00000FF0
FF07FC00000FF0
FF03FE00000FF0
FF03FF00000FF0
FF01FF00000FF0
FF00FF80000FF0
FF00FF80000FF0
FF007FC0000FF0
FF007FE0000FF0
FF003FE0000FF0
FF001FF0000FF0
FF001FF8000FF0
FF000FF8000FF0
FF0007FC000FF0
FF0007FE000FF0
FF0003FE000FF0
FF0001FF000FF0
FF0001FF800FF0
FF0000FF800FF0
FF0000FFC00FF0
FF00007FC00FF0
FF00003FE00FF0
FF00003FF00FF0
FF00001FF00FF0
FF00000FF80FF0
FF00000FFC0FF0
FF000007FC0FF0
FF000003FE0FF0
FF000003FF0FF0
FF000001FF0FF0
FF000001FF8FF0
FF000000FF8FF0
FF0000007FCFF0
FF0000007FEFF0
FF0000003FEFF0
FF0000001FFFF0
FF0000001FFFF0
FF0000000FFFF0
FF00000007FFF0
FF00000007FFF0
FF00000003FFF0
FF00000003FFF0
FF00000001FFF0
FF00000000FFF0
FF00000000FFF0
FF000000007FF0
FF000000003FF0
FF000000003FF0
ENDCHAR
STARTCHAR 004F
ENCODING 79
SWIDTH 774 0
DWIDTH 71 0
BBX 65 70 3 -2
BITMAP
0000001FFE00000000
000001FFFFE0000000
00000FFFFFFC000000
00003FFFFFFF000000
0000FFFFFFFFC00000
0003FFFFFFFFE00000
0007FFFFFFFFF80000
000FFFFFFFFFFC0000
001FFFC000FFFE0000
003FFE00003FFF0000
007FF800000FFF8000
00FFE0000003FFC000
01FFC0000001FFE000
03FF80000000FFE000
03FF000000007FF000
07FE000000003FF000
07FC000000001FF800
0FFC000000000FF800
0FF8000000000FFC00
1FF80000000007FC00
1FF00000000007FE00
1FF00000000003FE00
3FE00000000003FE00
3FE00000000001FF00
3FC00000000001FF00
3FC00000000001FF00
7FC00000000000FF00
7FC00000000000FF00
7FC00000000000FF80
7F800000000000FF80
7F800000000000FF80
7F800000000000FF80
7F800000000000FF80
7F800000000000FF80
FF800000000000FF80
FF800000000000FF80
7F800000000000FF80
7F800000000000FF80
7F800000000000FF80
7F800000000000FF80
7F800000000000FF80
7FC00000000000FF80
7FC00000000000FF00
7FC00000000000FF00
7FC00000000001FF00
3FE00000000001FF00
3FE00000000001FF00
3FE00000000003FE00
1FF00000000003FE00
1FF00000000003FE00
1FF80000000007FC00
0FF8000000000FFC00
0FFC000000000FF800
07FC000000001FF800
07FE000000003FF000
03FF000000003FF000
03FF80000000FFE000
01FFC0000001FFC000
00FFF0000003FFC000
007FF800000FFF8000
007FFE00003FFF0000
003FFFC000FFFE0000
000FFFFFFFFFFC0000
0007FFFFFFFFF80000
0003FFFFFFFFE00000
0000FFFFFFFFC00000
00007FFFFFFF000000
00000FFFFFFC000000
000003FFFFE0000000
0000001FFE00000000
ENDCHAR
STARTCHAR 0050
ENCODING 80
SWIDTH 665 0
DWIDTH 61 0
BBX 49 67 8 0
BITMAP
FFFFFFFFC00000
FFFFFFFFF80000
FFFFFFFFFF0000
FFFFFFFFFF8000
FFFFFFFFFFE000
FFFFFFFFFFF000
FFFFFFFFFFF800
FFFFFFFFFFF800
FF8000007FFC00
FF8000001FFC00
FF8000000FFE00
FF80000007FE00
FF80000003FF00
FF80000003FF00
FF80000001FF00
FF80000001FF00
FF80000001FF00
FF80000000FF80
FF80000000FF80
FF80000000FF80
FF80000000FF80
FF80000000FF80
FF80000001FF00
FF80000001FF00
FF80000001FF00
FF80000003FF00
FF80000003FF00
FF80000007FE00
FF8000000FFE00
FF8000003FFC00
FF800001FFFC00
FFFFFFFFFFF800
FFFFFFFFFFF000
FFFFFFFFFFE000
FFFFFFFFFFC000
FFFFFFFFFF8000
FFFFFFFFFE0000
FFFFFFFFF00000
FFFFFFFC000000
FF800000000000
FF800000000000
FF800000000000
FF800000000000
FF800000000000
FF800000000000
FF800000000000
FF800000000000
FF800000000000
FF800000000000
FF800000000000
FF800000000000
FF800000000000
FF800000000000
FF800000000000
FF800000000000
FF800000000000
FF800000000000
FF800000000000
FF800000000000
FF800000000000
FF800000000000
FF800000000000
FF800000000000
FF800000000000
FF800000000000
FF800000000000
FF800000000000
ENDCHAR
STARTCHAR 0051
ENCODING 81
SWIDTH 774 0
DWIDTH 71 0
BBX 65 73 3 -5
BITMAP
0000001FFE00000000
000001FFFFE0000000
00000FFFFFFC000000
00003FFFFFFF000000
0000FFFFFFFFC00000
0003FFFFFFFFE00000
0007FFFFFFFFF80000
000FFFFFFFFFFC0000
001FFFC000FFFE0000
003FFE00003FFF0000
007FF800000FFF8000
00FFE0000003FFC000
01FFC0000001FFE000
03FF80000000FFE000
03FF000000007FF000
07FE000000003FF000
07FC000000001FF800
0FFC000000000FF800
0FF8000000000FFC00
1FF80000000007FC00
1FF00000000007FE00
1FF00000000003FE00
3FE00000000003FE00
3FE00000000001FF00
3FC00000000001FF00
7FC00000000001FF00
7FC00000000000FF00
7FC00000000000FF00
7FC00000000000FF80
7F800000000000FF80
7F800000000000FF80
7F800000000000FF80
7F800000000000FF80
7F800000000000FF80
FF800000000000FF80
FF800000000000FF80
7F800000000000FF80
7F800000000000FF80
7F800000000000FF80
7F800000000000FF80
7F800000000000FF80
7FC00000000000FF80
7FC00000000000FF00
7FC00000000000FF00
7FC00000000001FF00
3FE00000000001FF00
3FE00000000001FF00
3FE00000000003FE00
1FF00000000003FE00
1FF00000004003FE00
1FF8000000E007FC00
0FF8000001F00FFC00
0FFC000003F80FF800
07FC000007FC1FF800
07FE000007FF3FF000
03FF000003FFBFF000
03FF800000FFFFE000
01FFC000007FFFC000
00FFF000003FFFC000
007FF800001FFF8000
007FFE00003FFF0000
003FFFC000FFFF0000
000FFFFFFFFFFFC000
0007FFFFFFFFFFE000
0003FFFFFFFFFFF000
0000FFFFFFFFFFF800
00007FFFFFFF0FFC00
00000FFFFFFC07FF00
000003FFFFE003FF00
0000001FFE0001FE00
00000000000000FC00
000000000000003800
000000000000001800
ENDCHAR
STARTCHAR 0052
ENCODING 82
SWIDTH 720 0
DWIDTH 66 0
BBX 53 67 9 0
BITMAP
FFFFFFFFF00000
FFFFFFFFFF0000
FFFFFFFFFFC000
FFFFFFFFFFF000
FFFFFFFFFFF800
FFFFFFFFFFFC00
FFFFFFFFFFFE00
FFFFFFFFFFFF00
FF0000000FFF80
FF00000003FF80
FF00000001FFC0
FF00000000FFC0
FF00000000FFC0
FF000000007FC0
FF000000007FE0
FF000000007FE0
FF000000003FE0
FF000000003FE0
FF000000003FE0
FF000000003FE0
FF000000003FE0
FF000000003FC0
FF000000007FC0
FF000000007FC0
FF000000007FC0
FF00000000FF80
FF00000000FF80
FF00000001FF00
FF00000003FE00
FF0000000FFC00
FFFFFFFFFFF800
FFFFFFFFFFF000
FFFFFFFFFFC000
FFFFFFFFFF8000
FFFFFFFFFFC000
FFFFFFFFFFF000
FFFFFFFFFFF800
FFFFFFFFFFFC00
FF0000003FFE00
FF00000007FE00
FF00000003FF00
FF00000001FF00
FF00000000FF00
FF00000000FF80
FF00000000FF80
FF000000007F80
FF000000007F80
FF000000007F80
FF000000007F80
FF000000007F80
FF000000007F80
FF000000007F80
FF000000007F80
FF000000007F80
FF000000007F80
FF000000007F80
FF000000007F80
FF000000007FC0
FF000000007FC0
FF000000007FC0
FF000000007FC0
FF000000007FC0
FF000000003FE0
FF000000003FF0
FF000000003FF8
FF000000003FF8
FF000000001FF8
ENDCHAR
STARTCHAR 0053
ENCODING 83
SWIDTH 665 0
DWIDTH 61 0
BBX 53 70 4 -2
BITMAP
00000FFF800000
0000FFFFF80000
0007FFFFFE0000
001FFFFFFF8000
003FFFFFFFE000
007FFFFFFFF000
00FFFFFFFFF800
01FFFC03FFFC00
03FFC0003FFE00
07FF00000FFF00
07FE000003FF00
0FFC000001FF80
0FF8000000FF80
1FF00000007FC0
1FF00000007FC0
1FE00000003FC0
1FE00000003FC0
1FE00000003FE0
3FE00000003FE0
3FE00000001FE0
3FE00000001FE0
1FE00000000000
1FF00000000000
1FF80000000000
1FFC0000000000
1FFE0000000000
0FFF8000000000
0FFFE000000000
07FFFE00000000
03FFFFC0000000
03FFFFFC000000
00FFFFFFC00000
007FFFFFFC0000
001FFFFFFF8000
0007FFFFFFE000
00007FFFFFF800
00000FFFFFFE00
000000FFFFFF00
0000000FFFFF80
00000000FFFFC0
000000001FFFC0
0000000003FFE0
0000000000FFE0
00000000007FF0
00000000003FF0
00000000001FF8
00000000000FF8
FF800000000FF8
FF800000000FF8
7F800000000FF8
7F800000000FF8
7F800000000FF8
7F800000000FF8
7FC00000000FF8
7FC00000000FF0
3FE00000001FF0
3FF00000001FF0
1FF80000003FE0
1FFC0000007FE0
0FFE000000FFC0
0FFF800003FFC0
07FFE0000FFF80
03FFFFFFFFFF00
01FFFFFFFFFE00
00FFFFFFFFFC00
007FFFFFFFF800
001FFFFFFFE000
0007FFFFFF8000
0000FFFFFC0000
00000FFF800000
ENDCHAR
STARTCHAR 0054
ENCODING 84
SWIDTH 610 0
DWIDTH 56 0
BBX 52 67 2 0
BITMAP
FFFFFFFFFFFFF0
FFFFFFFFFFFFF0
FFFFFFFFFFFFF0
FFFFFFFFFFFFF0
FFFFFFFFFFFFF0
FFFFFFFFFFFFF0
FFFFFFFFFFFFF0
FFFFFFFFFFFFF0
000003FC000000
000003FC000000
000003FC000000
000003FC000000
000003FC000000
000003FC000000
000003FC000000
000003FC000000
000003FC000000
000003FC000000
000003FC000000
000003FC000000
000003FC000000
000003FC000000
000003FC000000
000003FC000000
000003FC000000
000003FC000000
000003FC000000
000003FC000000
000003FC000000
000003FC000000
000003FC000000
000003FC000000
000003FC000000
000003FC000000
000003FC000000
000003FC000000
000003FC000000
000003FC000000
000003FC000000
000003FC000000
000003FC000000
000003FC000000
000003FC000000
000003FC000000
000003FC000000
000003FC000000
000003FC000000
000003FC000000
000003FC000000
000003FC000000
000003FC000000
000003FC000000
000003FC000000
000003FC000000
000003FC000000
000003FC000000
000003FC000000
000003FC000000
000003FC000000
000003FC000000
000003FC000000
000003FC000000
000003FC000000
000003FC000000
000003FC000000
000003FC000000
000003FC000000
ENDCHAR
STARTCHAR 0055
ENCODING 85
SWIDTH 720 0
DWIDTH 66 0
BBX 51 69 8 -2
BITMAP
FF000000001FE0
FF000000001FE0
FF000000001FE0
FF000000001FE0
FF000000001FE0
FF000000001FE0
FF000000001FE0
FF000000001FE0
FF000000001FE0
FF000000001FE0
FF000000001FE0
FF000000001FE0
FF000000001FE0
FF000000001FE0
FF000000001FE0
FF000000001FE0
FF000000001FE0
FF000000001FE0
FF000000001FE0
FF000000001FE0
FF000000001FE0
FF000000001FE0
FF000000001FE0
FF000000001FE0
FF000000001FE0
FF000000001FE0
FF000000001FE0
FF000000001FE0
FF000000001FE0
FF000000001FE0
FF000000001FE0
FF000000001FE0
FF000000001FE0
FF000000001FE0
FF000000001FE0
FF000000001FE0
FF000000001FE0
FF000000001FE0
FF000000001FE0
FF000000001FE0
FF000000001FE0
FF000000001FE0
FF000000001FE0
FF000000001FE0
FF000000001FE0
FF000000001FE0
FF000000001FE0
FF000000001FE0
FF000000001FE0
FF800000003FE0
FF800000003FE0
FF800000003FE0
FF800000003FE0
7FC00000007FC0
7FC00000007FC0
7FE0000000FFC0
3FF0000001FF80
3FF8000003FF80
1FFC000007FF00
1FFF00001FFE00
0FFFC0007FFE00
07FFFFFFFFFC00
03FFFFFFFFF800
01FFFFFFFFF000
00FFFFFFFFC000
003FFFFFFF0000
000FFFFFFC0000
0001FFFFF00000
00001FFE000000
ENDCHAR
STARTCHAR 0056
ENCODING 86
SWIDTH 665 0
DWIDTH 61 0
BBX 56 67 3 0
BITMAP
FF8000000001FF
FF8000000001FF
7FC000000003FE
7FC000000003FE
7FC000000003FE
3FE000000007FC
3FE000000007FC
3FF000000007FC
1FF00000000FF8
1FF00000000FF8
1FF80000000FF0
0FF80000001FF0
0FF80000001FF0
07FC0000001FE0
07FC0000003FE0
07FC0000003FE0
03FE0000003FC0
03FE0000007FC0
03FE0000007FC0
01FF0000007F80
01FF000000FF80
01FF000000FF80
00FF800000FF00
00FF800001FF00
007F800001FF00
007FC00001FE00
007FC00003FE00
003FC00003FE00
003FE00003FC00
003FE00007FC00
001FE00007FC00
001FF00007F800
001FF0000FF800
000FF8000FF800
000FF8000FF000
000FF8001FF000
0007FC001FE000
0007FC001FE000
0003FC003FE000
0003FE003FC000
0003FE003FC000
0001FE003FC000
0001FF007F8000
0001FF007F8000
0000FF007F8000
0000FF80FF0000
0000FF80FF0000
00007F80FF0000
00007FC1FE0000
00007FC1FE0000
00003FC1FE0000
00003FE3FC0000
00001FE3FC0000
00001FE3FC0000
00001FF7F80000
00000FF7F80000
00000FF7F80000
00000FFFF00000
000007FFF00000
000007FFF00000
000007FFE00000
000003FFE00000
000003FFC00000
000003FFC00000
000001FFC00000
000001FF800000
000000FF800000
ENDCHAR
STARTCHAR 0057
ENCODING 87
SWIDTH 949 0
DWIDTH 87 0
BBX 83 67 2 0
BITMAP
FFC0000007FC0000003FE0
FFC0000007FE0000007FE0
7FC000000FFE0000007FE0
7FC000000FFE0000007FC0
7FE000000FFE0000007FC0
7FE000001FFF000000FFC0
3FE000001FFF000000FFC0
3FE000001FFF000000FF80
3FF000001FFF800000FF80
3FF000003FFF800001FF80
1FF000003FFF800001FF00
1FF000003FFF800001FF00
1FF000003FBFC00001FF00
1FF800007FBFC00001FF00
0FF800007FBFC00003FE00
0FF800007F3FC00003FE00
0FF80000FF1FE00003FE00
0FFC0000FF1FE00003FE00
07FC0000FF1FE00007FC00
07FC0000FE0FF00007FC00
07FC0001FE0FF00007FC00
07FE0001FE0FF00007FC00
03FE0001FE0FF00007F800
03FE0001FC07F8000FF800
03FE0003FC07F8000FF800
01FE0003FC07F8000FF800
01FF0003FC03FC000FF000
01FF0007F803FC001FF000
01FF0007F803FC001FF000
00FF0007F803FC001FF000
00FF8007F001FE001FE000
00FF800FF001FE001FE000
00FF800FF001FE003FE000
007F800FF001FF003FE000
007FC00FE000FF003FC000
007FC01FE000FF003FC000
007FC01FE000FF007FC000
003FC01FE0007F807FC000
003FC03FC0007F807F8000
003FE03FC0007F807F8000
003FE03FC0007F80FF8000
001FE03F80003FC0FF8000
001FE07F80003FC0FF0000
001FF07F80003FC0FF0000
001FF07F80001FE0FF0000
000FF07F00001FE1FF0000
000FF0FF00001FE1FE0000
000FF8FF00001FE1FE0000
000FF8FF00000FF1FE0000
0007F9FE00000FF3FE0000
0007F9FE00000FF3FC0000
0007F9FE00000FFBFC0000
0007FDFC000007FBFC0000
0003FFFC000007FBFC0000
0003FFFC000007FFF80000
0003FFFC000003FFF80000
0003FFF8000003FFF80000
0001FFF8000003FFF80000
0001FFF8000003FFF00000
0001FFF8000001FFF00000
0001FFF0000001FFF00000
0000FFF0000001FFF00000
0000FFF0000000FFE00000
0000FFE0000000FFE00000
0000FFE0000000FFE00000
00007FE0000000FFE00000
00007FE00000007FC00000
ENDCHAR
STARTCHAR 0058
ENCODING 88
SWIDTH 665 0
DWIDTH 61 0
BBX 57 67 2 0
BITMAP
3FF000000003FF00
3FF800000007FE00
1FF800000007FE00
0FFC0000000FFC00
07FE0000001FF800
07FE0000001FF800
03FF0000003FF000
01FF8000007FE000
01FF8000007FE000
00FFC00000FFC000
007FE00001FF8000
007FE00001FF0000
003FF00003FF0000
001FF80007FE0000
001FF80007FC0000
000FFC000FFC0000
0007FE001FF80000
0007FE001FF00000
0003FF003FF00000
0001FF807FE00000
0001FF807FC00000
0000FFC0FFC00000
00007FE1FF800000
00007FE1FF000000
00003FF3FE000000
00001FF3FE000000
00001FFFFC000000
00000FFFF8000000
000007FFF8000000
000003FFF0000000
000003FFE0000000
000001FFE0000000
000000FFC0000000
000001FFC0000000
000003FFE0000000
000003FFF0000000
000007FFF8000000
00000FFFF8000000
00000FFFFC000000
00001FF7FE000000
00003FF3FE000000
00003FE3FF000000
00007FC1FF800000
0000FFC0FF800000
0001FF80FFC00000
0001FF007FE00000
0003FF003FE00000
0007FE003FF00000
0007FE001FF80000
000FFC000FF80000
001FF8000FFC0000
001FF80007FE0000
003FF00007FF0000
007FE00003FF0000
007FE00001FF8000
00FFC00001FFC000
01FF800000FFC000
01FF8000007FE000
03FF0000007FF000
07FE0000003FF000
0FFE0000001FF800
0FFC0000001FFC00
1FF80000000FFC00
3FF800000007FE00
3FF000000007FF00
7FE000000003FF00
FFE000000001FF80
ENDCHAR
STARTCHAR 0059
ENCODING 89
SWIDTH 665 0
DWIDTH 61 0
BBX 59 67 1 0
BITMAP
FFE0000000007FE0
7FF0000000007FE0
3FF000000000FFC0
3FF800000001FF80
1FF800000001FF80
0FFC00000003FF00
0FFE00000003FF00
07FE00000007FE00
03FF0000000FFC00
03FF0000000FFC00
01FF8000001FF800
01FFC000001FF800
00FFC000003FF000
007FE000003FE000
007FE000007FE000
003FF00000FFC000
001FF80000FF8000
001FF80001FF8000
000FFC0001FF0000
000FFC0003FF0000
0007FE0007FE0000
0003FF0007FC0000
0003FF000FFC0000
0001FF800FF80000
0000FF801FF00000
0000FFC01FF00000
00007FE03FE00000
00003FE07FE00000
00003FF07FC00000
00001FF0FF800000
00001FF8FF800000
00000FFDFF000000
000007FFFF000000
000007FFFE000000
000003FFFC000000
000001FFFC000000
000001FFF8000000
000000FFF0000000
0000007FF0000000
0000007FE0000000
0000003FE0000000
0000003FC0000000
0000003FC0000000
0000003FC0000000
0000003FC0000000
0000003FC0000000
0000003FC0000000
0000003FC0000000
0000003FC0000000
0000003FC0000000
0000003FC0000000
0000003FC0000000
0000003FC0000000
0000003FC0000000
0000003FC0000000
0000003FC0000000
0000003FC0000000
0000003FC0000000
0000003FC0000000
0000003FC0000000
0000003FC0000000
0000003FC0000000
0000003FC0000000
0000003FC0000000
0000003FC0000000
0000003FC0000000
0000003FC0000000
ENDCHAR
STARTCHAR 005A
ENCODING 90
SWIDTH 610 0
DWIDTH 56 0
BBX 50 67 3 0
BITMAP
3FFFFFFFFFFFC0
3FFFFFFFFFFFC0
3FFFFFFFFFFFC0
3FFFFFFFFFFFC0
3FFFFFFFFFFFC0
3FFFFFFFFFFFC0
3FFFFFFFFFFFC0
3FFFFFFFFFFFC0
0000000001FFC0
0000000003FF80
0000000007FF00
0000000007FE00
000000000FFE00
000000001FFC00
000000003FF800
000000003FF000
000000007FE000
00000000FFE000
00000001FFC000
00000003FF8000
00000003FF0000
00000007FF0000
0000000FFE0000
0000001FFC0000
0000001FF80000
0000003FF80000
0000007FF00000
000000FFE00000
000000FFC00000
000001FF800000
000003FF800000
000007FF000000
00000FFE000000
00000FFC000000
00001FFC000000
00003FF8000000
00007FF0000000
00007FE0000000
0000FFC0000000
0001FFC0000000
0003FF80000000
0007FF00000000
0007FE00000000
000FFE00000000
001FFC00000000
003FF800000000
003FF000000000
007FF000000000
00FFE000000000
01FFC000000000
01FF8000000000
03FF0000000000
07FF0000000000
0FFE0000000000
1FFC0000000000
1FF80000000000
3FF80000000000
7FF00000000000
FFE00000000000
FFFFFFFFFFFFC0
FFFFFFFFFFFFC0
FFFFFFFFFFFFC0
FFFFFFFFFFFFC0
FFFFFFFFFFFFC0
FFFFFFFFFFFFC0
FFFFFFFFFFFFC0
FFFFFFFFFFFFC0
ENDCHAR
STARTCHAR 005B
ENCODING 91
SWIDTH 272 0
DWIDTH 25 0
BBX 17 87 6 -20
BITMAP
FFFF80
FFFF80
FFFF80
FFFF80
FFFF80
FFFF80
FFFF80
FE0000
FE0000
FE0000
FE0000
FE0000
FE0000
FE0000
FE0000
FE0000
FE0000
FE0000
FE0000
FE0000
FE0000
FE0000
FE0000
FE0000
FE0000
FE0000
FE0000
FE0000
FE0000
FE0000
FE0000
FE0000
FE0000
FE0000
FE0000
FE0000
FE0000
FE0000
FE0000
FE0000
FE0000
FE0000
FE0000
FE0000
FE0000
FE0000
FE0000
FE0000
FE0000
FE0000
FE0000
FE0000
FE0000
FE0000
FE0000
FE0000
FE0000
FE0000
FE0000
FE0000
FE0000
FE0000
FE0000
FE0000
FE0000
FE0000
FE0000
FE0000
FE0000
FE0000
FE0000
FE0000
FE0000
FE0000
FE0000
FE0000
FE0000
FE0000
FE0000
FE0000
FFFF80
FFFF80
FFFF80
FFFF80
FFFF80
FFFF80
FFFF80
ENDCHAR
STARTCHAR 005C
ENCODING 92
SWIDTH 272 0
DWIDTH 25 0
BBX 27 69 -1 -2
BITMAP
F8000000
7C000000
7C000000
7C000000
3E000000
3E000000
3E000000
1F000000
1F000000
1F000000
0F800000
0F800000
0F800000
0FC00000
07C00000
07C00000
07E00000
03E00000
03E00000
03E00000
01F00000
01F00000
01F00000
00F80000
00F80000
00F80000
007C0000
007C0000
007C0000
003E0000
003E0000
003E0000
003F0000
001F0000
001F0000
001F0000
000F8000
000F8000
000F8000
0007C000
0007C000
0007C000
0003E000
0003E000
0003E000
0001F000
0001F000
0001F000
0000F800
0000F800
0000F800
0000FC00
00007C00
00007C00
00007C00
00003E00
00003E00
00003E00
00001F00
00001F00
00001F00
00000F80
00000F80
00000F80
000007C0
000007C0
000007C0
000007E0
000003E0
ENDCHAR
STARTCHAR 005D
ENCODING 93
SWIDTH 272 0
DWIDTH 25 0
BBX 17 87 2 -20
BITMAP
FFFF80
FFFF80
FFFF80
FFFF80
FFFF80
FFFF80
FFFF80
003F80
003F80
003F80
003F80
003F80
003F80
003F80
003F80
003F80
003F80
003F80
003F80
003F80
003F80
003F80
003F80
003F80
003F80
003F80
003F80
003F80
003F80
003F80
003F80
003F80
003F80
003F80
003F80
003F80
003F80
003F80
003F80
003F80
003F80
003F80
003F80
003F80
003F80
003F80
003F80
003F80
003F80
003F80
003F80
003F80
003F80
003F80
003F80
003F80
003F80
003F80
003F80
003F80
003F80
003F80
003F80
003F80
003F80
003F80
003F80
003F80
003F80
003F80
003F80
003F80
003F80
003F80
003F80
003F80
003F80
003F80
003F80
003F80
FFFF80
FFFF80
FFFF80
FFFF80
FFFF80
FFFF80
FFFF80
ENDCHAR
STARTCHAR 005E
ENCODING 94
SWIDTH 469 0
DWIDTH 43 0
BBX 35 35 4 30
BITMAP
0003F80000
0007F80000
0007FC0000
0007FC0000
000FFE0000
000FFE0000
001FFE0000
001FFF0000
001FBF0000
003FBF8000
003F1F8000
007F1F8000
007E0FC000
007E0FC000
00FE0FE000
00FC07E000
01FC07E000
01F803F000
01F803F000
03F803F800
03F001F800
07F001FC00
07E000FC00
07E000FC00
0FE000FE00
0FC0007E00
1FC0007F00
1F80003F00
1F80003F00
3F80003F80
3F00001F80
7F00001FC0
7E00000FC0
7E00000FC0
FC00000FE0
ENDCHAR
STARTCHAR 005F
ENCODING 95
SWIDTH 556 0
DWIDTH 51 0
BBX 55 5 -2 -16
BITMAP
FFFFFFFFFFFFFE
FFFFFFFFFFFFFE
FFFFFFFFFFFFFE
FFFFFFFFFFFFFE
FFFFFFFFFFFFFE
ENDCHAR
STARTCHAR 0060
ENCODING 96
SWIDTH 338 0
DWIDTH 31 0
BBX 18 14 3 54
BITMAP
FFC000
7FC000
3FE000
1FF000
0FF000
07F800
03FC00
01FC00
00FE00
007F00
003F00
001F80
000F80
0007C0
ENDCHAR
STARTCHAR 0061
ENCODING 97
SWIDTH 556 0
DWIDTH 51 0
BBX 45 51 4 -2
BITMAP
0000FFF00000
000FFFFE0000
007FFFFF8000
00FFFFFFE000
03FFFFFFF000
07FFFFFFF800
07FFFFFFFC00
0FFF807FFC00
1FFC000FFE00
1FF00003FE00
1FE00001FE00
3FE00001FE00
3FC00001FE00
3FC00000FE00
3FC00000FE00
00000000FE00
00000000FE00
00000000FE00
00000001FE00
00000003FE00
0000000FFE00
000001FFFE00
0001FFFFFE00
003FFFFFFE00
00FFFFFFFE00
03FFFFFEFE00
0FFFFFF8FE00
1FFFFE00FE00
3FFF8000FE00
3FF80000FE00
7FE00000FE00
7FC00000FE00
FF800000FE00
FF000000FE00
FF000000FE00
FF000000FE00
FF000001FE00
FF000001FE00
FF000003FE00
FF000007FE00
FF80000FFE00
7FC0001FFE00
7FE0007FFF00
7FF801FFFF00
3FFFFFFEFFE8
1FFFFFFCFFF8
1FFFFFF8FFF8
0FFFFFE07FF8
03FFFFC07FF8
00FFFF003FF8
001FF0000FF0
ENDCHAR
STARTCHAR 0062
ENCODING 98
SWIDTH 556 0
DWIDTH 51 0
BBX 43 69 5 -2
BITMAP
FF0000000000
FF0000000000
FF0000000000
FF0000000000
FF0000000000
FF0000000000
FF0000000000
FF0000000000
FF0000000000
FF0000000000
FF0000000000
FF0000000000
FF0000000000
FF0000000000
FF0000000000
FF0000000000
FF0000000000
FF0000000000
FF003FE00000
FF01FFFE0000
FF07FFFF8000
FF0FFFFFC000
FF3FFFFFE000
FF7FFFFFF000
FF7FFFFFF800
FFFFC0FFFC00
FFFE001FFE00
FFFC000FFE00
FFF80003FF00
FFF00001FF00
FFE00001FF80
FFC00000FF80
FFC000007FC0
FF8000007FC0
FF8000007FC0
FF8000003FC0
FF0000003FC0
FF0000003FE0
FF0000001FE0
FF0000001FE0
FF0000001FE0
FF0000001FE0
FF0000001FE0
FF0000001FE0
FF0000001FE0
FF0000001FE0
FF0000001FE0
FF0000001FE0
FF0000001FE0
FF0000003FC0
FF0000003FC0
FF8000003FC0
FF8000003FC0
FF8000007F80
FFC000007F80
FFC00000FF80
FFE00001FF00
FFF00001FF00
FFF80003FE00
FFFC000FFE00
FFFE001FFC00
FFFFC0FFFC00
FEFFFFFFF800
FE7FFFFFF000
FE3FFFFFE000
FE1FFFFF8000
FE0FFFFF0000
0003FFFC0000
00007FE00000
ENDCHAR
STARTCHAR 0063
ENCODING 99
SWIDTH 501 0
DWIDTH 46 0
BBX 41 51 3 -2
BITMAP
0000FFC00000
0007FFFC0000
001FFFFF0000
003FFFFF8000
00FFFFFFE000
01FFFFFFF000
03FFFFFFF800
07FFC07FF800
07FE001FFC00
0FFC0007FC00
1FF80003FE00
1FF00003FE00
3FE00001FE00
3FC00001FF00
3FC00000FF00
7FC00000FF00
7F800000FF00
7F8000000000
7F8000000000
FF0000000000
FF0000000000
FF0000000000
FF0000000000
FF0000000000
FF0000000000
FF0000000000
FF0000000000
FF0000000000
FF0000000000
FF0000000000
FF0000000000
FF0000000000
FF8000000000
7F8000007F80
7F8000007F80
7F800000FF00
7FC00000FF00
3FC00000FF00
3FE00001FF00
1FF00001FE00
1FF80003FE00
0FFC0007FC00
0FFE001FFC00
07FFC07FF800
03FFFFFFF000
01FFFFFFE000
00FFFFFFC000
007FFFFF8000
001FFFFF0000
0007FFF80000
0000FFC00000
ENDCHAR
STARTCHAR 0064
ENCODING 100
SWIDTH 556 0
DWIDTH 51 0
BBX 43 69 2 -2
BITMAP
000000000FE0
000000000FE0
000000000FE0
000000000FE0
000000000FE0
000000000FE0
000000000FE0
000000000FE0
000000000FE0
000000000FE0
000000000FE0
000000000FE0
000000000FE0
000000000FE0
000000000FE0
000000000FE0
000000000FE0
000000000FE0
0000FFC00FE0
0007FFF80FE0
001FFFFE0FE0
003FFFFF0FE0
00FFFFFF8FE0
01FFFFFFCFE0
03FFFFFFEFE0
03FFE07FFFE0
07FF800FFFE0
0FFE0007FFE0
0FFC0001FFE0
1FF80000FFE0
1FF00000FFE0
3FE000007FE0
3FE000003FE0
3FC000003FE0
7FC000003FE0
7FC000001FE0
7F8000001FE0
7F8000001FE0
7F8000001FE0
7F8000000FE0
FF8000000FE0
FF0000000FE0
FF0000000FE0
FF0000000FE0
FF0000000FE0
FF0000000FE0
7F8000000FE0
7F8000000FE0
7F8000001FE0
7F8000001FE0
7F8000001FE0
7FC000001FE0
7FC000003FE0
3FC000003FE0
3FE000003FE0
3FE000007FE0
1FF00000FFE0
1FF80000FFE0
0FFC0001FFE0
0FFE0003FFE0
07FF800FFFE0
03FFE07FF7E0
03FFFFFFE7E0
01FFFFFFC7E0
00FFFFFF87E0
003FFFFF07E0
001FFFFE07E0
0007FFF80000
0000FFC00000
ENDCHAR
STARTCHAR 0065
ENCODING 101
SWIDTH 556 0
DWIDTH 51 0
BBX 43 51 4 -2
BITMAP
00007FE00000
0003FFFC0000
001FFFFF0000
003FFFFFC000
00FFFFFFE000
01FFFFFFF000
03FFFFFFF800
07FFC07FFC00
07FE000FFE00
0FFC0007FF00
1FF80003FF00
1FF00001FF80
3FE00000FF80
3FC000007F80
3FC000007FC0
7F8000003FC0
7F8000003FC0
7F8000003FC0
FF0000003FE0
FF0000001FE0
FF0000001FE0
FF0000001FE0
FFFFFFFFFFE0
FFFFFFFFFFE0
FFFFFFFFFFE0
FFFFFFFFFFE0
FFFFFFFFFFE0
FFFFFFFFFFE0
FF0000000000
FF0000000000
FF0000000000
FF0000000000
FF0000000000
FF0000000000
7F8000000000
7F8000003FC0
7F8000003FC0
3FC000007F80
3FE00000FF80
3FE00000FF80
1FF00001FF00
1FFC0003FF00
0FFE000FFE00
07FFC07FFC00
03FFFFFFF800
01FFFFFFF000
00FFFFFFE000
007FFFFFC000
001FFFFF0000
0007FFFC0000
0000FFE00000
ENDCHAR
STARTCHAR 0066
ENCODING 102
SWIDTH 272 0
DWIDTH 25 0
BBX 22 67 2 0
BITMAP
0007FC
001FFC
003FFC
007FFC
00FFFC
01FFFC
01FFFC
03FF00
03FC00
03FC00
03FC00
03FC00
03FC00
03FC00
03FC00
03FC00
03FC00
03FC00
03FC00
FFFFFC
FFFFFC
FFFFFC
FFFFFC
FFFFFC
FFFFFC
03FC00
03FC00
03FC00
03FC00
03FC00
03FC00
03FC00
03FC00
03FC00
03FC00
03FC00
03FC00
03FC00
03FC00
03FC00
03FC00
03FC00
03FC00
03FC00
03FC00
03FC00
03FC00
03FC00
03FC00
03FC00
03FC00
03FC00
03FC00
03FC00
03FC00
03FC00
03FC00
03FC00
03FC00
03FC00
03FC00
03FC00
03FC00
03FC00
03FC00
03FC00
03FC00
ENDCHAR
STARTCHAR 0067
ENCODING 103
SWIDTH 556 0
DWIDTH 51 0
BBX 41 69 3 -20
BITMAP
0000FF000000
0007FFE03F80
001FFFF83F80
003FFFFC3F80
00FFFFFE3F80
01FFFFFF3F80
03FFFFFFBF80
03FF80FFFF80
07FE003FFF80
0FFC000FFF80
0FF80007FF80
1FF00003FF80
1FE00003FF80
3FE00001FF80
3FC00001FF80
3FC00000FF80
7F800000FF80
7F800000FF80
7F8000007F80
7F8000007F80
7F8000007F80
FF0000007F80
FF0000007F80
FF0000007F80
FF0000007F80
FF0000007F80
FF0000007F80
FF0000007F80
FF0000007F80
FF0000007F80
FF8000007F80
7F8000007F80
7F8000007F80
7F800000FF80
7F800000FF80
7FC00000FF80
3FC00001FF80
3FE00001FF80
3FE00003FF80
1FF00003FF80
1FF80007FF80
0FFC000FFF80
07FE003FFF80
07FF80FFFF80
03FFFFFF7F80
01FFFFFE7F80
00FFFFFC7F80
007FFFF87F80
001FFFF07F80
0007FFC07F80
0001FE007F80
000000007F80
000000007F00
000000007F00
3FC00000FF00
3FC00000FF00
3FC00000FE00
3FC00001FE00
1FE00003FE00
1FF00003FC00
1FF8000FFC00
0FFC001FF800
07FFE3FFF000
03FFFFFFE000
01FFFFFFC000
00FFFFFF8000
007FFFFE0000
001FFFF80000
0001FF800000
ENDCHAR
STARTCHAR 0068
ENCODING 104
SWIDTH 556 0
DWIDTH 51 0
BBX 39 67 6 0
BITMAP
FF00000000
FF00000000
FF00000000
FF00000000
FF00000000
FF00000000
FF00000000
FF00000000
FF00000000
FF00000000
FF00000000
FF00000000
FF00000000
FF00000000
FF00000000
FF00000000
FF00000000
FF00000000
FF001FF000
FF00FFFE00
FF03FFFF80
FF0FFFFFC0
FF1FFFFFF0
FF3FFFFFF0
FF7FFFFFF8
FFFF007FF8
FFFC001FFC
FFF80007FC
FFF00007FC
FFE00003FE
FFE00003FE
FFC00001FE
FFC00001FE
FF800001FE
FF800001FE
FF800001FE
FF000001FE
FF000001FE
FF000001FE
FF000001FE
FF000001FE
FF000001FE
FF000001FE
FF000001FE
FF000001FE
FF000001FE
FF000001FE
FF000001FE
FF000001FE
FF000001FE
FF000001FE
FF000001FE
FF000001FE
FF000001FE
FF000001FE
FF000001FE
FF000001FE
FF000001FE
FF000001FE
FF000001FE
FF000001FE
FF000001FE
FF000001FE
FF000001FE
FF000001FE
FF000001FE
FF000001FE
ENDCHAR
STARTCHAR 0069
ENCODING 105
SWIDTH 218 0
DWIDTH 20 0
BBX 8 67 6 0
BITMAP
FF
FF
FF
FF
FF
FF
FF
FF
FF
FF
00
00
00
00
00
00
00
00
00
FF
FF
FF
FF
FF
FF
FF
FF
FF
FF
FF
FF
FF
FF
FF
FF
FF
FF
FF
FF
FF
FF
FF
FF
FF
FF
FF
FF
FF
FF
FF
FF
FF
FF
FF
FF
FF
FF
FF
FF
FF
FF
FF
FF
FF
FF
FF
FF
ENDCHAR
STARTCHAR 006A
ENCODING 106
SWIDTH 218 0
DWIDTH 20 0
BBX 16 87 -2 -20
BITMAP
00FF
00FF
00FF
00FF
00FF
00FF
00FF
00FF
00FF
00FF
0000
0000
0000
0000
0000
0000
0000
0000
0000
00FF
00FF
00FF
00FF
00FF
00FF
00FF
00FF
00FF
00FF
00FF
00FF
00FF
00FF
00FF
00FF
00FF
00FF
00FF
00FF
00FF
00FF
00FF
00FF
00FF
00FF
00FF
00FF
00FF
00FF
00FF
00FF
00FF
00FF
00FF
00FF
00FF
00FF
00FF
00FF
00FF
00FF
00FF
00FF
00FF
00FF
00FF
00FF
00FF
00FF
00FF
00FF
00FF
00FF
00FF
00FF
00FF
00FF
00FF
01FF
03FF
FFFF
FFFE
FFFE
FFFC
FFF8
FFE0
FF00
ENDCHAR
STARTCHAR 006B
ENCODING 107
SWIDTH 501 0
DWIDTH 46 0
BBX 41 67 5 0
BITMAP
FF0000000000
FF0000000000
FF0000000000
FF0000000000
FF0000000000
FF0000000000
FF0000000000
FF0000000000
FF0000000000
FF0000000000
FF0000000000
FF0000000000
FF0000000000
FF0000000000
FF0000000000
FF0000000000
FF0000000000
FF0000000000
FF0000000000
FF00000FFC00
FF00001FF800
FF00003FF000
FF00007FE000
FF0000FFC000
FF0001FF8000
FF0003FF0000
FF0007FE0000
FF000FFC0000
FF001FF80000
FF003FF00000
FF007FE00000
FF00FFC00000
FF01FF800000
FF03FE000000
FF07FC000000
FF0FF8000000
FF1FFC000000
FF3FFE000000
FF7FFE000000
FFFFFF000000
FFFFFF000000
FFFEFF800000
FFFCFFC00000
FFF87FC00000
FFF03FE00000
FFE03FF00000
FFC01FF00000
FF801FF80000
FF000FF80000
FF0007FC0000
FF0007FE0000
FF0003FE0000
FF0001FF0000
FF0001FF8000
FF0000FF8000
FF0000FFC000
FF00007FC000
FF00003FE000
FF00003FF000
FF00001FF000
FF00000FF800
FF00000FFC00
FF000007FC00
FF000007FE00
FF000003FE00
FF000001FF00
FF000001FF80
ENDCHAR
STARTCHAR 006C
ENCODING 108
SWIDTH 218 0
DWIDTH 20 0
BBX 8 67 6 0
BITMAP
FF
FF
FF
FF
FF
FF
FF
FF
FF
FF
FF
FF
FF
FF
FF
FF
FF
FF
FF
FF
FF
FF
FF
FF
FF
FF
FF
FF
FF
FF
FF
FF
FF
FF
FF
FF
FF
FF
FF
FF
FF
FF
FF
FF
FF
FF
FF
FF
FF
FF
FF
FF
FF
FF
FF
FF
FF
FF
FF
FF
FF
FF
FF
FF
FF
FF
FF
ENDCHAR
STARTCHAR 006D
ENCODING 109
SWIDTH 829 0
DWIDTH 76 0
BBX 64 49 6 0
BITMAP
00007FE00007FE00
FE03FFFC003FFFC0
FE07FFFE00FFFFE0
FE1FFFFF01FFFFF0
FE3FFFFF83FFFFF8
FE7FFFFFC7FFFFFC
FEFFFFFFEFFFFFFE
FEFE00FFFFE01FFE
FFFC007FFF8007FE
FFF0003FFF0003FF
FFE0001FFE0001FF
FFC0001FFC0001FF
FFC0000FFC0000FF
FF80000FF80000FF
FF80000FF80000FF
FF80000FF80000FF
FF00000FF00000FF
FF00000FF00000FF
FF00000FF00000FF
FF00000FF00000FF
FF00000FF00000FF
FF00000FF00000FF
FF00000FF00000FF
FF00000FF00000FF
FF00000FF00000FF
FF00000FF00000FF
FF00000FF00000FF
FF00000FF00000FF
FF00000FF00000FF
FF00000FF00000FF
FF00000FF00000FF
FF00000FF00000FF
FF00000FF00000FF
FF00000FF00000FF
FF00000FF00000FF
FF00000FF00000FF
FF00000FF00000FF
FF00000FF00000FF
FF00000FF00000FF
FF00000FF00000FF
FF00000FF00000FF
FF00000FF00000FF
FF00000FF00000FF
FF00000FF00000FF
FF00000FF00000FF
FF00000FF00000FF
FF00000FF00000FF
FF00000FF00000FF
FF00000FF00000FF
ENDCHAR
STARTCHAR 006E
ENCODING 110
SWIDTH 556 0
DWIDTH 51 0
BBX 39 49 6 0
BITMAP
00003FF000
FE01FFFE00
FE07FFFF80
FE0FFFFFC0
FE1FFFFFF0
FE3FFFFFF0
FE7FFFFFF8
FE7F803FFC
FEFE001FFC
FFF80007FC
FFF00007FC
FFE00003FE
FFE00003FE
FFC00001FE
FFC00001FE
FF800001FE
FF800001FE
FF800001FE
FF000001FE
FF000001FE
FF000001FE
FF000001FE
FF000001FE
FF000001FE
FF000001FE
FF000001FE
FF000001FE
FF000001FE
FF000001FE
FF000001FE
FF000001FE
FF000001FE
FF000001FE
FF000001FE
FF000001FE
FF000001FE
FF000001FE
FF000001FE
FF000001FE
FF000001FE
FF000001FE
FF000001FE
FF000001FE
FF000001FE
FF000001FE
FF000001FE
FF000001FE
FF000001FE
FF000001FE
ENDCHAR
STARTCHAR 006F
ENCODING 111
SWIDTH 556 0
DWIDTH 51 0
BBX 44 51 3 -2
BITMAP
00007FE00000
0003FFFE0000
001FFFFF8000
003FFFFFE000
00FFFFFFF000
01FFFFFFF800
03FFFFFFFC00
03FFC07FFE00
07FF000FFE00
0FFC0003FF00
0FF80001FF80
1FF00000FF80
1FF00000FFC0
3FE000007FC0
3FC000003FC0
3FC000003FE0
7FC000003FE0
7F8000001FE0
7F8000001FE0
7F8000001FE0
7F8000001FE0
7F8000000FF0
FF0000000FF0
FF0000000FF0
FF0000000FF0
FF0000000FF0
FF0000000FF0
FF0000000FF0
FF0000000FF0
7F8000000FF0
7F8000001FF0
7F8000001FE0
7F8000001FE0
7F8000001FE0
7FC000003FE0
3FC000003FE0
3FC000003FC0
3FE000007FC0
1FF00000FFC0
1FF00000FF80
0FF80001FF80
0FFC0003FF00
07FF000FFE00
07FFE03FFE00
03FFFFFFFC00
01FFFFFFF800
00FFFFFFF000
003FFFFFC000
001FFFFF8000
0007FFFE0000
00007FE00000
ENDCHAR
STARTCHAR 0070
ENCODING 112
SWIDTH 556 0
DWIDTH 51 0
BBX 43 69 5 -20
BITMAP
00007FE00000
FE03FFFC0000
FE07FFFF0000
FE1FFFFFC000
FE3FFFFFE000
FE7FFFFFF000
FEFFFFFFF800
FEFFC0FFFC00
FFFE001FFE00
FFFC000FFE00
FFF80003FF00
FFF00001FF00
FFE00001FF80
FFC00000FF80
FFC000007F80
FF8000007FC0
FF8000007FC0
FF8000003FC0
FF0000003FC0
FF0000003FE0
FF0000001FE0
FF0000001FE0
FF0000001FE0
FF0000001FE0
FF0000001FE0
FF0000001FE0
FF0000001FE0
FF0000001FE0
FF0000001FE0
FF0000001FE0
FF0000001FE0
FF0000003FE0
FF0000003FC0
FF8000003FC0
FF8000003FC0
FFC000007FC0
FFC000007F80
FFC00000FF80
FFE00001FF80
FFF00001FF00
FFF80003FF00
FFFC0007FE00
FFFE001FFE00
FFFFC0FFFC00
FFFFFFFFF800
FF7FFFFFF000
FF3FFFFFE000
FF1FFFFFC000
FF07FFFF0000
FF01FFFC0000
FF003FE00000
FF0000000000
FF0000000000
FF0000000000
FF0000000000
FF0000000000
FF0000000000
FF0000000000
FF0000000000
FF0000000000
FF0000000000
FF0000000000
FF0000000000
FF0000000000
FF0000000000
FF0000000000
FF0000000000
FF0000000000
FF0000000000
ENDCHAR
STARTCHAR 0071
ENCODING 113
SWIDTH 556 0
DWIDTH 51 0
BBX 43 69 2 -20
BITMAP
00007FC00000
0003FFF807E0
000FFFFE07E0
003FFFFF87E0
007FFFFFC7E0
00FFFFFFE7E0
01FFFFFFF7E0
03FFE07FFFE0
07FF800FFFE0
07FE0003FFE0
0FFC0001FFE0
1FF80000FFE0
1FF00000FFE0
1FE000007FE0
3FE000003FE0
3FC000003FE0
3FC000003FE0
7FC000001FE0
7F8000001FE0
7F8000001FE0
7F8000001FE0
7F8000000FE0
7F8000000FE0
FF0000000FE0
FF0000000FE0
FF0000000FE0
FF0000000FE0
FF0000000FE0
FF8000000FE0
7F8000000FE0
7F8000001FE0
7F8000001FE0
7F8000001FE0
7FC000001FE0
7FC000003FE0
3FC000003FE0
3FE000003FE0
3FE000007FE0
1FF00000FFE0
1FF80000FFE0
1FFC0001FFE0
0FFE0003FFE0
07FF800FFFE0
07FFE07FFFE0
03FFFFFFEFE0
01FFFFFFCFE0
00FFFFFF8FE0
007FFFFF0FE0
001FFFFE0FE0
0007FFF80FE0
0000FFC00FE0
000000000FE0
000000000FE0
000000000FE0
000000000FE0
000000000FE0
000000000FE0
000000000FE0
000000000FE0
000000000FE0
000000000FE0
000000000FE0
000000000FE0
000000000FE0
000000000FE0
000000000FE0
000000000FE0
000000000FE0
000000000FE0
ENDCHAR
STARTCHAR 0072
ENCODING 114
SWIDTH 338 0
DWIDTH 31 0
BBX 23 49 6 0
BITMAP
00007E
FE01FE
FE03FE
FE07FE
FE0FFE
FE1FFE
FE3FFE
FE7FFE
FEFF80
FEFC00
FFF800
FFF000
FFE000
FFC000
FFC000
FF8000
FF8000
FF8000
FF8000
FF0000
FF0000
FF0000
FF0000
FF0000
FF0000
FF0000
FF0000
FF0000
FF0000
FF0000
FF0000
FF0000
FF0000
FF0000
FF0000
FF0000
FF0000
FF0000
FF0000
FF0000
FF0000
FF0000
FF0000
FF0000
FF0000
FF0000
FF0000
FF0000
FF0000
ENDCHAR
STARTCHAR 0073
ENCODING 115
SWIDTH 501 0
DWIDTH 46 0
BBX 39 51 3 -2
BITMAP
0001FF8000
001FFFF800
007FFFFE00
01FFFFFF00
03FFFFFF80
07FFFFFFC0
0FFFFFFFE0
1FFF01FFF0
1FF8003FF0
3FE0001FF0
3FC0000FF8
3FC0000FF8
7FC00007F8
7F800007F8
7F800007F8
7F80000000
7FC0000000
3FE0000000
3FF0000000
3FFC000000
1FFF000000
1FFFF00000
0FFFFF8000
07FFFFF000
03FFFFFE00
00FFFFFF80
001FFFFFE0
0003FFFFF0
00003FFFF8
000003FFFC
0000003FFC
0000000FFC
00000007FE
00000003FE
00000001FE
FF000001FE
FF800001FE
FF800001FE
7F800001FE
7FC00003FE
7FC00003FC
7FE00007FC
3FF8001FFC
3FFF00FFF8
1FFFFFFFF0
0FFFFFFFE0
07FFFFFFC0
03FFFFFF80
01FFFFFE00
007FFFF800
0007FF8000
ENDCHAR
STARTCHAR 0074
ENCODING 116
SWIDTH 272 0
DWIDTH 25 0
BBX 22 63 1 -2
BITMAP
01FC00
01FC00
01FC00
01FC00
01FC00
01FC00
01FC00
01FC00
01FC00
01FC00
01FC00
01FC00
01FC00
FFFFFC
FFFFFC
FFFFFC
FFFFFC
FFFFFC
FFFFFC
01FC00
01FC00
01FC00
01FC00
01FC00
01FC00
01FC00
01FC00
01FC00
01FC00
01FC00
01FC00
01FC00
01FC00
01FC00
01FC00
01FC00
01FC00
01FC00
01FC00
01FC00
01FC00
01FC00
01FC00
01FC00
01FC00
01FC00
01FC00
01FC00
01FC00
01FC00
01FC00
01FC00
01FC00
01FE00
01FE00
01FE00
01FFFC
01FFFC
01FFFC
00FFFC
007FFC
003FFC
000FF8
ENDCHAR
STARTCHAR 0075
ENCODING 117
SWIDTH 556 0
DWIDTH 51 0
BBX 38 50 6 -2
BITMAP
FF000001FC
FF000001FC
FF000001FC
FF000001FC
FF000001FC
FF000001FC
FF000001FC
FF000001FC
FF000001FC
FF000001FC
FF000001FC
FF000001FC
FF000001FC
FF000001FC
FF000001FC
FF000001FC
FF000001FC
FF000001FC
FF000001FC
FF000001FC
FF000001FC
FF000001FC
FF000001FC
FF000001FC
FF000001FC
FF000001FC
FF000001FC
FF000001FC
FF000001FC
FF000001FC
FF000003FC
FF000003FC
FF000003FC
FF000003FC
FF000007FC
FF000007FC
FF000007FC
FF00000FFC
FF80001FFC
FF80001FFC
FFC0003FFC
7FE000FFFC
7FF803FDFC
3FFFFFFDFC
3FFFFFF9FC
1FFFFFF1FC
0FFFFFE1FC
03FFFF81FC
01FFFE0000
003FF00000
ENDCHAR
STARTCHAR 0076
ENCODING 118
SWIDTH 501 0
DWIDTH 46 0
BBX 43 48 1 0
BITMAP
FF8000001FE0
FF8000003FE0
7F8000003FE0
7FC000003FC0
7FC000007FC0
3FC000007F80
3FE000007F80
1FE00000FF80
1FE00000FF00
1FF00000FF00
0FF00001FF00
0FF00001FE00
0FF80001FE00
07F80003FC00
07F80003FC00
07FC0003FC00
03FC0007F800
03FC0007F800
03FE000FF000
01FE000FF000
01FE000FF000
01FF001FE000
00FF001FE000
00FF001FE000
007F803FC000
007F803FC000
007F803F8000
003FC07F8000
003FC07F8000
003FC07F0000
001FE0FF0000
001FE0FE0000
001FE0FE0000
000FF1FE0000
000FF1FC0000
000FF1FC0000
0007FBFC0000
0007FBF80000
0007FBF80000
0003FFF00000
0003FFF00000
0003FFF00000
0001FFE00000
0001FFE00000
0000FFC00000
0000FFC00000
0000FFC00000
00007F800000
ENDCHAR
STARTCHAR 0077
ENCODING 119
SWIDTH 720 0
DWIDTH 66 0
BBX 64 48 1 0
BITMAP
FF00001FF00001FF
FF00001FF80001FE
FF80003FF80001FE
7F80003FF80003FE
7F80003FF80003FE
7F80003FFC0003FC
7FC0007FFC0003FC
3FC0007FFC0007FC
3FC0007FFC0007F8
3FC0007FFE0007F8
1FE000FFFE0007F8
1FE000FEFE000FF8
1FE000FEFE000FF0
1FF000FEFF000FF0
0FF001FCFF000FF0
0FF001FC7F001FE0
0FF001FC7F001FE0
07F801FC7F801FE0
07F803F87F801FC0
07F803F83F803FC0
07F803F83FC03FC0
03FC03F83FC03FC0
03FC07F03FC03F80
03FC07F01FC07F80
01FC07F01FE07F80
01FE07F01FE07F00
01FE0FE00FE07F00
00FE0FE00FE0FF00
00FE0FE00FF0FF00
00FF0FE00FF0FE00
00FF1FC007F0FE00
007F1FC007F1FE00
007F9FC007F9FC00
007F9FC007F9FC00
003FBF8003FBFC00
003FBF8003FBF800
003FFF8003FFF800
003FFF8003FFF800
001FFF0001FFF800
001FFF0001FFF000
001FFF0001FFF000
000FFF0001FFF000
000FFE0000FFE000
000FFE0000FFE000
000FFE0000FFE000
0007FE0000FFE000
0007FC00007FC000
0007FC00007FC000
ENDCHAR
STARTCHAR 0078
ENCODING 120
SWIDTH 501 0
DWIDTH 46 0
BBX 41 48 2 0
BITMAP
7FC00000FF80
7FC00001FF00
3FE00001FE00
1FF00003FC00
0FF00007FC00
0FF80007F800
07F8000FF000
03FC001FF000
03FE001FE000
01FE003FC000
00FF007FC000
00FF807F8000
007F80FF0000
003FC1FF0000
003FE1FE0000
001FE3FC0000
000FF7F80000
000FFFF80000
0007FFF00000
0003FFE00000
0003FFE00000
0001FFC00000
0000FF800000
0000FF800000
0000FFC00000
0001FFC00000
0003FFE00000
0003FFF00000
0007FFF00000
000FFFF80000
000FF7FC0000
001FE3FC0000
003FE3FE0000
003FC1FF0000
007F80FF0000
00FF80FF8000
00FF007FC000
01FE003FC000
03FE003FE000
07FC001FF000
07F8000FF000
0FF8000FF800
1FF00007FC00
1FE00003FC00
3FE00003FE00
7FC00001FF00
7F800001FF00
FF800000FF80
ENDCHAR
STARTCHAR 0079
ENCODING 121
SWIDTH 501 0
DWIDTH 46 0
BBX 42 68 2 -20
BITMAP
FF0000007FC0
FF0000007F80
7F8000007F80
7F800000FF80
7F800000FF00
3FC00000FF00
3FC00001FE00
3FC00001FE00
1FE00001FE00
1FE00003FC00
1FE00003FC00
0FF00007FC00
0FF00007F800
0FF00007F800
07F8000FF000
07F8000FF000
07F8000FF000
03FC001FE000
03FC001FE000
03FC001FE000
01FE003FC000
01FE003FC000
01FE003FC000
00FF007F8000
00FF007F8000
00FF007F0000
007F80FF0000
007F80FF0000
007F81FE0000
003FC1FE0000
003FC1FE0000
003FC3FC0000
001FE3FC0000
001FE3F80000
001FE7F80000
000FF7F80000
000FF7F00000
000FFFF00000
0007FFF00000
0007FFE00000
0007FFE00000
0003FFE00000
0003FFC00000
0003FFC00000
0001FF800000
0001FF800000
0001FF800000
0000FF000000
0000FF000000
0000FF000000
0001FE000000
0001FE000000
0003FE000000
0003FC000000
0003FC000000
0007F8000000
0007F8000000
000FF8000000
000FF0000000
001FF0000000
1FFFE0000000
1FFFE0000000
1FFFC0000000
1FFFC0000000
1FFF80000000
1FFF00000000
1FFC00000000
07E000000000
ENDCHAR
STARTCHAR 007A
ENCODING 122
SWIDTH 501 0
DWIDTH 46 0
BBX 39 48 3 0
BITMAP
3FFFFFFFFC
3FFFFFFFFC
3FFFFFFFFC
3FFFFFFFFC
3FFFFFFFFC
3FFFFFFFFC
3FFFFFFFFC
0000000FF8
0000001FF0
0000003FE0
0000007FE0
0000007FC0
000000FF80
000001FF00
000003FE00
000007FC00
00000FFC00
00000FF800
00001FF000
00003FE000
00007FC000
0000FF8000
0001FF8000
0001FF0000
0003FE0000
0007FC0000
000FF80000
001FF80000
003FF00000
003FE00000
007FC00000
00FF800000
01FF000000
03FF000000
07FE000000
07FC000000
0FF8000000
1FF0000000
3FE0000000
7FE0000000
FFC0000000
FFFFFFFFFE
FFFFFFFFFE
FFFFFFFFFE
FFFFFFFFFE
FFFFFFFFFE
FFFFFFFFFE
FFFFFFFFFE
ENDCHAR
STARTCHAR 007B
ENCODING 123
SWIDTH 338 0
DWIDTH 31 0
BBX 21 86 4 -19
BITMAP
0003F8
000FF8
003FF8
003FF8
007FF8
00FFF8
00FF80
00FE00
01FE00
01FC00
01FC00
01FC00
01FC00
01FC00
01FC00
01FC00
01FC00
01FC00
01FC00
01FC00
01FC00
01FC00
01FC00
01FC00
01FC00
01FC00
01FC00
01FC00
01FC00
01FC00
01FC00
01FC00
01FC00
01FC00
03FC00
03F800
07F800
07F800
0FF000
3FF000
FFE000
FFC000
FF0000
FF0000
FF8000
FFC000
7FE000
1FF000
0FF000
07F800
03F800
03F800
01FC00
01FC00
01FC00
01FC00
01FC00
01FC00
01FC00
01FC00
01FC00
01FC00
01FC00
01FC00
01FC00
01FC00
01FC00
01FC00
01FC00
01FC00
01FC00
01FC00
01FC00
01FC00
01FC00
01FC00
01FC00
01FE00
00FE00
00FF00
00FFF8
007FF8
007FF8
003FF8
001FF8
0007F8
ENDCHAR
STARTCHAR 007C
ENCODING 124
SWIDTH 261 0
DWIDTH 24 0
BBX 6 86 9 -19
BITMAP
FC
FC
FC
FC
FC
FC
FC
FC
FC
FC
FC
FC
FC
FC
FC
FC
FC
FC
FC
FC
FC
FC
FC
FC
FC
FC
FC
FC
FC
FC
FC
FC
FC
FC
FC
FC
FC
FC
FC
FC
FC
FC
FC
FC
FC
FC
FC
FC
FC
FC
FC
FC
FC
FC
FC
FC
FC
FC
FC
FC
FC
FC
FC
FC
FC
FC
FC
FC
FC
FC
FC
FC
FC
FC
FC
FC
FC
FC
FC
FC
FC
FC
FC
FC
FC
FC
ENDCHAR
STARTCHAR 007D
ENCODING 125
SWIDTH 338 0
DWIDTH 31 0
BBX 21 86 3 -19
BITMAP
FE0000
FFC000
FFE000
FFF000
FFF000
FFF800
0FF800
03FC00
01FC00
01FC00
01FC00
01FC00
01FC00
01FC00
01FC00
01FC00
01FC00
01FC00
01FC00
01FC00
01FC00
01FC00
01FC00
01FC00
01FC00
01FC00
01FC00
01FC00
01FC00
01FC00
01FC00
01FC00
01FC00
01FE00
00FE00
00FE00
00FF00
007F00
007FC0
003FE0
001FF8
000FF8
0007F8
0003F8
000FF8
001FF8
003FF0
007FC0
007F80
00FF00
00FE00
00FE00
00FE00
01FC00
01FC00
01FC00
01FC00
01FC00
01FC00
01FC00
01FC00
01FC00
01FC00
01FC00
01FC00
01FC00
01FC00
01FC00
01FC00
01FC00
01FC00
01FC00
01FC00
01FC00
01FC00
01FC00
01FC00
01FC00
03FC00
07F800
FFF800
FFF800
FFF000
FFE000
FFC000
FF0000
ENDCHAR
STARTCHAR 007E
ENCODING 126
SWIDTH 589 0
DWIDTH 54 0
BBX 40 15 7 25
BITMAP
03F8000000
07FE000000
1FFF80001F
1FFFC0001F
3FFFF0001F
3FFFFC003F
7F0FFF003E
7C03FF803E
7C00FFF0FE
F8007FFFFE
F8001FFFFC
F8000FFFF8
F80003FFF8
000000FFF0
0000003FC0
ENDCHAR
STARTCHAR 00A0
ENCODING 160
SWIDTH 272 0
DWIDTH 25 0
BBX 0 0 0 0
BITMAP
ENDCHAR
STARTCHAR 00A1
ENCODING 161
SWIDTH 338 0
DWIDTH 31 0
BBX 8 67 11 -19
BITMAP
FF
FF
FF
FF
FF
FF
FF
FF
FF
FF
00
00
00
00
00
3C
3C
3C
3C
3C
3C
3C
7C
7E
7E
7E
7E
7E
7E
7E
7E
7E
FE
FF
FF
FF
FF
FF
FF
FF
FF
FF
FF
FF
FF
FF
FF
FF
FF
FF
FF
FF
FF
FF
FF
FF
FF
FF
FF
FF
FF
FF
FF
FF
FF
FF
FF
ENDCHAR
STARTCHAR 00A2
ENCODING 162
SWIDTH 556 0
DWIDTH 51 0
BBX 42 69 5 -11
BITMAP
00000F000000
00000F000000
00000F000000
00000F000000
00000F000000
00000F000000
00000F000000
00000F000000
00000F000000
0000FFF80000
0007FFFF0000
001FFFFFC000
007FFFFFE000
00FFFFFFF000
01FFFFFFF800
03FFFFFFFC00
07FF8F1FFE00
07FE0F07FE00
0FFC0F03FF00
1FF00F01FF00
1FF00F00FF00
3FE00F00FF80
3FC00F007F80
3FC00F007F80
7F800F007F80
7F800F007F80
7F800F000000
FF000F000000
FF000F000000
FF000F000000
FF000F000000
FF000F000000
FF000F000000
FF000F000000
FF000F000000
FF000F000000
FF000F000000
FF000F000000
FF000F000000
FF000F000000
FF000F000000
FF800F003FC0
7F800F003FC0
7F800F003FC0
7F800F007F80
7FC00F007F80
3FC00F007F80
3FE00F00FF80
1FF00F00FF00
1FF80F01FF00
0FFC0F03FE00
0FFE0F07FE00
07FFCF1FFC00
03FFFFFFF800
01FFFFFFF800
00FFFFFFF000
007FFFFFC000
001FFFFF8000
0007FFFE0000
0000FFF00000
00000F000000
00000F000000
00000F000000
00000F000000
00000F000000
00000F000000
00000F000000
00000F000000
00000F000000
ENDCHAR
STARTCHAR 00A3
ENCODING 163
SWIDTH 556 0
DWIDTH 51 0
BBX 47 69 2 -2
BITMAP
00000FFC0000
0000FFFF8000
0003FFFFE000
000FFFFFF800
001FFFFFFE00
007FFFFFFF00
00FFFFFFFF80
01FFF80FFF80
01FFC001FFC0
03FF0000FFE0
07FE00007FE0
07FC00003FF0
0FF800001FF0
0FF800001FF0
0FF000000FF0
1FF000000FF8
1FF000000FF8
1FF0000007F8
1FE0000007F8
1FF0000007F8
1FF0000007F8
1FF000000000
1FF000000000
1FF000000000
0FF800000000
0FF800000000
07FC00000000
07FC00000000
03FE00000000
03FE00000000
01FF00000000
01FF80000000
FFFFFFFF0000
FFFFFFFF0000
FFFFFFFF0000
FFFFFFFF0000
FFFFFFFF0000
001FE0000000
001FF0000000
000FF0000000
000FF0000000
000FF0000000
0007F0000000
0007F0000000
0007F0000000
0007F0000000
0007F0000000
000FF0000000
000FF0000000
000FE0000000
001FE0000000
001FC0000000
003F80000000
003F80000000
007F00000000
00FE00000000
01FC00000000
03F800000000
07F0FFC00030
0FF7FFFC00F0
1FFFFFFFEFF8
3FFFFFFFFFFC
7FFFFFFFFFFC
3FFFFFFFFFFE
1FFFFFFFFFFC
1FF00FFFFFF8
0F8001FFFFF0
0600003FFFC0
00000003FE00
ENDCHAR
STARTCHAR 00A4
ENCODING 164
SWIDTH 556 0
DWIDTH 51 0
BBX 38 37 6 14
BITMAP
0C00000040
1E000000E0
3F01FF03F0
7F8FFFC7F8
FFFFFFFFFC
7FFFFFFFFC
3FFFFFFFF8
1FFFFFFFF0
0FFFFFFFE0
07FF03FFC0
0FFC00FFC0
0FF8003FE0
1FF0001FE0
1FE0001FE0
1FC0000FF0
3FC0000FF0
3FC00007F0
3F800007F0
3F800007F0
3F800007F0
3FC00007F0
3FC0000FF0
1FC0000FF0
1FE0000FE0
1FF0001FE0
0FF8003FE0
0FFC00FFC0
07FF03FFC0
0FFFFFFFE0
1FFFFFFFF0
3FFFFFFFF8
7FFFFFFFFC
7FFFFFFFFC
3FCFFFC7F8
1F81FF03F0
0F000001E0
06000000C0
ENDCHAR
STARTCHAR 00A5
ENCODING 165
SWIDTH 556 0
DWIDTH 51 0
BBX 49 65 1 0
BITMAP
FF000000007F80
7F80000000FF00
3F80000000FE00
3FC0000001FE00
1FE0000001FC00
1FE0000003FC00
0FF0000007F800
0FF0000007F800
07F800000FF000
03F800000FE000
03FC00001FE000
01FE00001FC000
01FE00003FC000
00FF00003F8000
00FF00007F8000
007F8000FF0000
003F8000FE0000
003FC001FE0000
001FE001FC0000
001FE003FC0000
000FF003F80000
0007F007F80000
0007F807F00000
0003F80FF00000
0003FC1FE00000
0001FE1FC00000
0001FE3FC00000
0000FF3F800000
00007F7F800000
00007FFF000000
00003FFF000000
00003FFE000000
07FFFFFFFFF000
07FFFFFFFFF000
07FFFFFFFFF000
07FFFFFFFFF000
07FFFFFFFFF000
000007F8000000
000007F8000000
000007F8000000
000007F8000000
000007F8000000
000007F8000000
000007F8000000
07FFFFFFFFF000
07FFFFFFFFF000
07FFFFFFFFF000
07FFFFFFFFF000
07FFFFFFFFF000
000007F8000000
000007F8000000
000007F8000000
000007F8000000
000007F8000000
000007F8000000
000007F8000000
000007F8000000
000007F8000000
000007F8000000
000007F8000000
000007F8000000
000007F8000000
000007F8000000
000007F8000000
000007F8000000
ENDCHAR
STARTCHAR 00A6
ENCODING 166
SWIDTH 261 0
DWIDTH 24 0
BBX 6 86 9 -19
BITMAP
FC
FC
FC
FC
FC
FC
FC
FC
FC
FC
FC
FC
FC
FC
FC
FC
FC
FC
FC
FC
FC
FC
FC
FC
FC
FC
FC
FC
FC
FC
FC
FC
FC
FC
FC
FC
FC
00
00
00
00
00
00
00
00
00
00
00
00
00
FC
FC
FC
FC
FC
FC
FC
FC
FC
FC
FC
FC
FC
FC
FC
FC
FC
FC
FC
FC
FC
FC
FC
FC
FC
FC
FC
FC
FC
FC
FC
FC
FC
FC
FC
FC
ENDCHAR
STARTCHAR 00A7
ENCODING 167
SWIDTH 556 0
DWIDTH 51 0
BBX 42 86 4 -19
BITMAP
00003FE00000
0001FFFC0000
0007FFFF0000
000FFFFF8000
003FFFFFC000
003FFFFFE000
007FFFFFF000
00FFE07FF000
01FF801FF800
01FF000FF800
03FE0007FC00
03FE0003FC00
03FC0003FC00
03FC0001FC00
03FC0001FC00
03FC0001FE00
03FC0001FE00
03FC0001FE00
03FE0001FE00
03FF00000000
01FF80000000
01FFC0000000
00FFF0000000
007FF8000000
003FFE000000
00FFFF000000
01FFFFC00000
07FFFFF00000
0FF9FFF80000
1FE0FFFE0000
3FC03FFF0000
3F801FFFC000
7F0007FFE000
7F0003FFF000
7F0000FFFC00
FE00007FFE00
FE00001FFE00
FE00000FFF00
FE000003FF80
FF000001FF80
FF000000FFC0
FF8000007FC0
7F8000003FC0
7FC000003FC0
7FF000001FC0
3FF800001FC0
3FFC00001FC0
1FFF00001FC0
0FFF80001FC0
07FFC0001FC0
03FFF0001FC0
01FFF8003FC0
00FFFC003F80
003FFF007F80
001FFF80FF00
0007FFC1FE00
0003FFF7FC00
0000FFFFF800
00007FFFF000
00001FFFC000
00000FFF8000
000003FFC000
000001FFE000
000000FFE000
0000003FF000
0000001FF000
0000000FF800
0000000FF800
1FE00007F800
1FE00007F800
1FE00007F800
1FE00007F800
1FE00007F800
0FF00007F800
0FF0000FF800
0FF8000FF800
0FFC001FF000
07FE003FF000
07FF80FFE000
03FFFFFFC000
01FFFFFFC000
00FFFFFF8000
007FFFFE0000
003FFFFC0000
000FFFF00000
0001FF800000
ENDCHAR
STARTCHAR 00A8
ENCODING 168
SWIDTH 338 0
DWIDTH 31 0
BBX 24 9 3 57
BITMAP
FF81FF
FF81FF
FF81FF
FF81FF
FF81FF
FF81FF
FF81FF
FF81FF
FF81FF
ENDCHAR
STARTCHAR 00A9
ENCODING 169
SWIDTH 741 0
DWIDTH 68 0
BBX 70 70 -1 -2
BITMAP
00000007FF80000000
0000007FFFF8000000
000003FFFFFF000000
00000FFFFFFFC00000
00003FFFFFFFF00000
0000FFFFFFFFFC0000
0001FFF0007FFE0000
0007FF800007FF0000
000FFE000001FFC000
001FF80000007FE000
003FE00000003FF000
007FC00000000FF800
00FF0000000007FC00
01FE0000000003FC00
01FC0001FF0001FE00
03F8000FFFE000FF00
07F8001FFFF0007F80
07F0007FFFFC003F80
0FE000FFFFFE001FC0
0FE001FFFFFE001FC0
1FC003FE01FF000FE0
1F8007F8007F800FE0
3F8007F0003F8007F0
3F000FE0001F8007F0
3F000FE0001FC003F0
7F001FC0001FC003F8
7E001FC0000FC003F8
7E001F80000FE001F8
FE003F8000000001F8
FE003F8000000001F8
FC003F0000000001FC
FC003F0000000001FC
FC003F0000000001FC
FC003F0000000000FC
FC003F0000000000FC
FC003F0000000000FC
FC003F0000000000FC
FC003F0000000000FC
FC003F0000000001FC
FC003F0000000001FC
FE003F000007E001F8
FE003F800007E001F8
7E003F800007E001F8
7E001F80000FE001F8
7F001FC0000FC003F8
7F001FC0001FC003F0
3F000FE0001FC007F0
3F800FF0003F8007F0
3F8007F8007F8007E0
1FC003FC00FF000FE0
1FC003FF83FF001FC0
0FE001FFFFFE001FC0
0FF000FFFFFC003F80
07F8007FFFF8007F80
03F8001FFFE0007F00
03FC0007FFC000FE00
01FE0000780001FE00
00FF0000000007FC00
007FC00000000FF800
003FE00000001FF000
001FF80000007FE000
000FFC000001FFC000
0007FF800007FF8000
0003FFF0003FFE0000
0000FFFFFFFFFC0000
00007FFFFFFFF00000
00001FFFFFFFC00000
000003FFFFFF000000
000000FFFFF8000000
0000000FFF00000000
ENDCHAR
STARTCHAR 00AA
ENCODING 170
SWIDTH 370 0
DWIDTH 34 0
BBX 28 40 3 28
BITMAP
007FC000
03FFF800
07FFFC00
0FFFFE00
1FFFFF00
3F807F00
3F003F00
3F001F00
3E001F80
3E001F80
00001F80
00001F80
00003F80
003FFF80
03FFFF80
0FFFFF80
1FFFFF80
3FFC1F80
7F801F80
7E001F80
7C001F80
FC001F80
FC001F80
FC001F80
7C003F80
7E00FF80
7F03FF80
3FFFFFF0
3FFFEFF0
1FFF8FF0
0FFF07F0
01F80000
00000000
00000000
00000000
7FFFFFC0
7FFFFFC0
7FFFFFC0
7FFFFFC0
7FFFFFC0
ENDCHAR
STARTCHAR 00AB
ENCODING 171
SWIDTH 556 0
DWIDTH 51 0
BBX 33 30 9 10
BITMAP
0004000080
000C000180
001C000780
007C000F80
00FC001F80
01FC003F80
03FC00FF80
0FFC01FF80
1FF803FE00
3FE007FC00
7FC01FF800
FF801FF000
FE001FC000
FC001F8000
F8001F0000
F8001F0000
FC001F8000
FE001FC000
FF801FE000
FFC01FF800
3FE00FFC00
1FF003FE00
0FFC01FF00
07FC00FF80
01FC007F80
00FC001F80
007C000F80
003C000780
000C000380
0004000080
ENDCHAR
STARTCHAR 00AC
ENCODING 172
SWIDTH 589 0
DWIDTH 54 0
BBX 46 26 4 8
BITMAP
FFFFFFFFFFFC
FFFFFFFFFFFC
FFFFFFFFFFFC
FFFFFFFFFFFC
FFFFFFFFFFFC
FFFFFFFFFFFC
0000000001FC
0000000001FC
0000000001FC
0000000001FC
0000000001FC
0000000001FC
0000000001FC
0000000001FC
0000000001FC
0000000001FC
0000000001FC
0000000001FC
0000000001FC
0000000001FC
0000000001FC
0000000001FC
0000000001FC
0000000001FC
0000000001FC
0000000001FC
ENDCHAR
STARTCHAR 00AD
ENCODING 173
SWIDTH 338 0
DWIDTH 31 0
BBX 22 7 4 22
BITMAP
FFFFFC
FFFFFC
FFFFFC
FFFFFC
FFFFFC
FFFFFC
FFFFFC
ENDCHAR
STARTCHAR 00AE
ENCODING 174
SWIDTH 741 0
DWIDTH 68 0
BBX 70 70 -1 -2
BITMAP
00000007FF80000000
0000007FFFF8000000
000003FFFFFF000000
00000FFFFFFFC00000
00003FFFFFFFF00000
0000FFFFFFFFFC0000
0001FFF0003FFE0000
0007FF800007FF8000
000FFC000001FFC000
001FF80000007FE000
003FE00000001FF000
007FC00000000FF800
00FF0000000007FC00
01FE0000000003FE00
03FC0FFFFFC001FE00
03F80FFFFFFC00FF00
07F00FFFFFFE007F80
0FF00FFFFFFF803F80
0FE00FFFFFFF801FC0
1FC00FFFFFFFC01FC0
1FC00FC0007FE00FE0
3F800FC0001FE00FE0
3F800FC0000FE007F0
3F000FC0000FE007F0
7F000FC0000FE003F0
7F000FC00007E003F8
7E000FC00007E003F8
7E000FC00007E001F8
FE000FC0000FE001F8
FE000FC0000FE001FC
FC000FC0001FC001FC
FC000FC0003FC001FC
FC000FFFFFFF8000FC
FC000FFFFFFF0000FC
FC000FFFFFFE0000FC
FC000FFFFFFE0000FC
FC000FFFFFFF8000FC
FC000FFFFFFF8000FC
FC000FC0007FC001FC
FC000FC0001FC001FC
FE000FC0001FC001F8
FE000FC0000FC001F8
7E000FC0000FC001F8
7E000FC0000FE003F8
7F000FC0000FE003F8
7F000FC0000FE003F0
3F800FC0000FE007F0
3F800FC0000FE007F0
1F800FC0000FE00FE0
1FC00FC0000FE00FE0
0FE00FC0000FE01FC0
0FE00FC0000FE01FC0
07F00FC00007F03F80
07F80FC00007F87F80
03FC0FC00007F8FF00
01FC0000000001FE00
01FE0000000003FC00
00FF8000000007FC00
007FC00000000FF800
003FE00000001FF000
001FF80000007FE000
000FFE000001FFC000
0007FF800007FF0000
0001FFF0003FFE0000
0000FFFFFFFFFC0000
00003FFFFFFFF00000
00001FFFFFFFC00000
000003FFFFFF000000
000000FFFFF8000000
00000007FF00000000
ENDCHAR
STARTCHAR 00AF
ENCODING 175
SWIDTH 338 0
DWIDTH 31 0
BBX 25 6 3 58
BITMAP
FFFFFF80
FFFFFF80
FFFFFF80
FFFFFF80
FFFFFF80
FFFFFF80
ENDCHAR
STARTCHAR 00B0
ENCODING 176
SWIDTH 403 0
DWIDTH 37 0
BBX 28 28 4 35
BITMAP
001FC000
00FFF800
03FFFC00
07FFFF00
0FFFFF80
1FF0FF80
1FC01FC0
3F000FE0
3F0007E0
7E0003F0
7C0003F0
7C0001F0
FC0001F0
FC0001F0
FC0001F0
FC0001F0
7C0001F0
7C0003F0
7E0003E0
3F0007E0
3F800FE0
1FC01FC0
1FF0FF80
0FFFFF00
07FFFE00
03FFFC00
00FFF000
001FC000
ENDCHAR
STARTCHAR 00B1
ENCODING 177
SWIDTH 589 0
DWIDTH 54 0
BBX 44 58 5 -1
BITMAP
00001F800000
00001F800000
00001F800000
00001F800000
00001F800000
00001F800000
00001F800000
00001F800000
00001F800000
00001F800000
00001F800000
00001F800000
00001F800000
00001F800000
00001F800000
00001F800000
00001F800000
00001F800000
00001F800000
FFFFFFFFFFF0
FFFFFFFFFFF0
FFFFFFFFFFF0
FFFFFFFFFFF0
FFFFFFFFFFF0
FFFFFFFFFFF0
00001F800000
00001F800000
00001F800000
00001F800000
00001F800000
00001F800000
00001F800000
00001F800000
00001F800000
00001F800000
00001F800000
00001F800000
00001F800000
00001F800000
00001F800000
00001F800000
00001F800000
00001F800000
00001F800000
000000000000
000000000000
000000000000
000000000000
000000000000
000000000000
000000000000
000000000000
FFFFFFFFFFF0
FFFFFFFFFFF0
FFFFFFFFFFF0
FFFFFFFFFFF0
FFFFFFFFFFF0
FFFFFFFFFFF0
ENDCHAR
STARTCHAR 00B2
ENCODING 178
SWIDTH 338 0
DWIDTH 31 0
BBX 28 39 1 26
BITMAP
003FE000
01FFFC00
03FFFE00
0FFFFF80
0FFFFFC0
1FE03FC0
3F800FE0
3F0007E0
3F0007F0
7E0003F0
7E0003F0
7E0003F0
7E0003F0
7E0003F0
000003F0
000007E0
00000FE0
00001FC0
00003FC0
0000FF80
0003FF00
000FFC00
003FF800
007FE000
01FF8000
03FE0000
07F80000
0FE00000
1FC00000
3F800000
3F000000
7F000000
7E000000
7E000000
FFFFFFF0
FFFFFFF0
FFFFFFF0
FFFFFFF0
FFFFFFF0
ENDCHAR
STARTCHAR 00B3
ENCODING 179
SWIDTH 338 0
DWIDTH 31 0
BBX 28 40 1 25
BITMAP
007FC000
01FFF800
07FFFE00
0FFFFF00
1FFFFF80
3FC07F80
3F001FC0
7E000FC0
7E000FC0
7E000FC0
7C0007C0
7C0007C0
FC0007C0
00000FC0
00000FC0
00003F80
000FFF00
001FFE00
001FFC00
001FFE00
001FFF80
0000FFC0
00001FC0
00000FE0
000007E0
000003F0
000003F0
F80003F0
FC0003F0
FC0003F0
FC0003E0
FC0007E0
7E000FE0
7F001FC0
3FC03FC0
3FFFFF80
1FFFFF00
0FFFFE00
03FFF800
007FC000
ENDCHAR
STARTCHAR 00B4
ENCODING 180
SWIDTH 338 0
DWIDTH 31 0
BBX 19 14 8 54
BITMAP
007FE0
00FFC0
00FF80
01FF00
03FE00
03FC00
07F800
0FF000
0FE000
1FC000
3F8000
3F0000
7E0000
FC0000
ENDCHAR
STARTCHAR 00B5
ENCODING 181
SWIDTH 556 0
DWIDTH 51 0
BBX 44 68 6 -20
BITMAP
FF000003FC00
FF000003FC00
FF000003FC00
FF000003FC00
FF000003FC00
FF000003FC00
FF000003FC00
FF000003FC00
FF000003FC00
FF000003FC00
FF000003FC00
FF000003FC00
FF000003FC00
FF000003FC00
FF000003FC00
FF000003FC00
FF000003FC00
FF000003FC00
FF000003FC00
FF000003FC00
FF000003FC00
FF000003FC00
FF000003FC00
FF000003FC00
FF000003FC00
FF000003FC00
FF000003FC00
FF000003FC00
FF000003FC00
FF000003FC00
FF000003FC00
FF000003FC00
FF000003FC00
FF000003FC00
FF000007FC00
FF000007FC00
FF00000FFC00
FF00000FFC00
FF80001FFC00
FF80003FFC00
FFC0007FFC00
FFE000FFFC00
FFF803FFFE00
FFFFFFFDFFD0
FFFFFFF9FFF0
FFFFFFF1FFF0
FFFFFFE0FFF0
FFFFFF80FFF0
FF7FFE007FF0
FF0FF0001FE0
FF0000000000
FF0000000000
FF0000000000
FF0000000000
FF0000000000
FF0000000000
FF0000000000
FF0000000000
FF0000000000
FF0000000000
FF0000000000
FF0000000000
FF0000000000
FF0000000000
FF0000000000
FF0000000000
FF0000000000
FF0000000000
ENDCHAR
STARTCHAR 00B6
ENCODING 182
SWIDTH 534 0
DWIDTH 49 0
BBX 44 83 4 -16
BITMAP
00007FFFFFF0
0007FFFFFFF0
001FFFFFFFF0
003FFFFFFFF0
00FFFFFFFFF0
01FFFFFFFFF0
03FFFF807E00
07FFFF807E00
07FFFF807E00
0FFFFF807E00
1FFFFF807E00
1FFFFF807E00
3FFFFF807E00
3FFFFF807E00
3FFFFF807E00
7FFFFF807E00
7FFFFF807E00
7FFFFF807E00
7FFFFF807E00
7FFFFF807E00
FFFFFF807E00
FFFFFF807E00
FFFFFF807E00
FFFFFF807E00
7FFFFF807E00
7FFFFF807E00
7FFFFF807E00
7FFFFF807E00
7FFFFF807E00
3FFFFF807E00
3FFFFF807E00
3FFFFF807E00
1FFFFF807E00
1FFFFF807E00
0FFFFF807E00
07FFFF807E00
07FFFF807E00
03FFFF807E00
01FFFF807E00
00FFFF807E00
003FFF807E00
000FFF807E00
0001FF807E00
00001F807E00
00001F807E00
00001F807E00
00001F807E00
00001F807E00
00001F807E00
00001F807E00
00001F807E00
00001F807E00
00001F807E00
00001F807E00
00001F807E00
00001F807E00
00001F807E00
00001F807E00
00001F807E00
00001F807E00
00001F807E00
00001F807E00
00001F807E00
00001F807E00
00001F807E00
00001F807E00
00001F807E00
00001F807E00
00001F807E00
00001F807E00
00001F807E00
00001F807E00
00001F807E00
00001F807E00
00001F807E00
00001F807E00
00001F807E00
00001F807E00
00001F807E00
00001F807E00
00001F807E00
00001F807E00
00001F807E00
ENDCHAR
STARTCHAR 00B7
ENCODING 183
SWIDTH 272 0
DWIDTH 25 0
BBX 10 10 10 21
BITMAP
FFC0
FFC0
FFC0
FFC0
FFC0
FFC0
FFC0
FFC0
FFC0
FFC0
ENDCHAR
STARTCHAR 00B8
ENCODING 184
SWIDTH 338 0
DWIDTH 31 0
BBX 22 20 4 -20
BITMAP
001C00
003C00
003C00
003800
007800
007FE0
00FFF0
00FFF8
01CFFC
0001FC
0001FC
0001FC
0001FC
6001FC
7803FC
FE07F8
FFFFF0
7FFFE0
0FFFC0
00FC00
ENDCHAR
STARTCHAR 00B9
ENCODING 185
SWIDTH 338 0
DWIDTH 31 0
BBX 15 39 5 26
BITMAP
003E
003E
003E
007E
007E
00FE
03FE
7FFE
FFFE
FFFE
FFFE
FFFE
007E
007E
007E
007E
007E
007E
007E
007E
007E
007E
007E
007E
007E
007E
007E
007E
007E
007E
007E
007E
007E
007E
007E
007E
007E
007E
007E
ENDCHAR
STARTCHAR 00BA
ENCODING 186
SWIDTH 360 0
DWIDTH 33 0
BBX 26 40 4 28
BITMAP
007F8000
03FFE000
07FFF800
0FFFFC00
1FFFFE00
3FC0FE00
3F007F00
7E003F00
7E001F80
FC001F80
FC000F80
F8000F80
F8000FC0
F8000FC0
F8000FC0
F8000FC0
F8000FC0
F8000FC0
F8000FC0
F8000FC0
FC000F80
FC000F80
FC001F80
7E001F80
7E003F00
3F007F00
3FC1FE00
1FFFFC00
0FFFFC00
07FFF000
01FFE000
003F0000
00000000
00000000
00000000
7FFFFF80
7FFFFF80
7FFFFF80
7FFFFF80
7FFFFF80
ENDCHAR
STARTCHAR 00BB
ENCODING 187
SWIDTH 556 0
DWIDTH 51 0
BBX 32 30 9 10
BITMAP
80002000
C0003000
E0003C00
F8003E00
FC003F00
FE003F80
FF003FE0
FFC03FF0
7FE00FF8
1FF007FE
0FFC03FF
07FC01FF
01FC007F
00FC003F
007C001F
007C000F
00FC003F
01FC007F
07FC00FF
0FFC03FF
1FF007FE
3FE00FF8
FFC03FF0
FF803FE0
FE003FC0
FC003F00
F8003E00
E0003C00
C0003000
80002000
ENDCHAR
STARTCHAR 00BC
ENCODING 188
SWIDTH 829 0
DWIDTH 76 0
BBX 73 67 2 -2
BITMAP
001E0000000003E00000
001E0000000007C00000
001E000000000FC00000
003E000000000F800000
003E000000001F000000
007E000000003F000000
01FE000000003E000000
1FFE000000007E000000
FFFE000000007C000000
FFFE00000000F8000000
FFFE00000001F8000000
FFFE00000001F0000000
007E00000003E0000000
007E00000007E0000000
007E00000007C0000000
007E0000000FC0000000
007E0000000F80000000
007E0000001F00000000
007E0000003F00000000
007E0000003E00000000
007E0000007C00000000
007E0000007C00000000
007E000000F800000000
007E000001F800000000
007E000001F000000000
007E000003E000000000
007E000007E00003C000
007E000007C00007C000
007E00000F80000FC000
007E00000F80000FC000
007E00001F00001FC000
007E00003F00003FC000
007E00003E00007FC000
007E00007C00007FC000
007E0000FC0000FFC000
007E0000F80001FFC000
007E0001F80003F7C000
007E0001F00003E7C000
007E0003E00007E7C000
00000007E0000FC7C000
00000007C0001F87C000
0000000F80001F07C000
0000001F80003F07C000
0000001F00007E07C000
0000003F0000FC07C000
0000003E0001F807C000
0000007C0001F807C000
000000FC0003F007C000
000000F80007E007C000
000001F0000FC007C000
000001F0000F8007C000
000003E0000FFFFFFF80
000007E0000FFFFFFF80
000007C0000FFFFFFF80
00000F80000FFFFFFF80
00001F80000FFFFFFF80
00001F0000000007C000
00003F0000000007C000
00003E0000000007C000
00007C0000000007C000
0000FC0000000007C000
0000F80000000007C000
0001F00000000007C000
0003F00000000007C000
0003E00000000007C000
0007E000000000000000
0007C000000000000000
ENDCHAR
STARTCHAR 00BD
ENCODING 189
SWIDTH 829 0
DWIDTH 76 0
BBX 72 67 2 -2
BITMAP
001E000000001F8000
001E000000001F0000
003E000000003E0000
003E000000007E0000
003E000000007C0000
007E00000000F80000
01FE00000001F80000
1FFE00000001F00000
FFFE00000003F00000
FFFE00000003E00000
FFFE00000007C00000
FFFE0000000FC00000
007E0000000F800000
007E0000001F000000
007E0000001F000000
007E0000003E000000
007E0000007E000000
007E0000007C000000
007E000000F8000000
007E000001F8000000
007E000001F0000000
007E000003F0000000
007E000003E0000000
007E000007C0000000
007E00000FC0000000
007E00000F80000000
007E00001F0001FC00
007E00003F000FFF80
007E00003E003FFFE0
007E00007E007FFFF0
007E00007C00FFFFFC
007E0000F801FF03FC
007E0001F803FC01FE
007E0001F003F8007E
007E0003E003F0007F
007E0003E007E0003F
007E0007C007E0003F
007E000FC007E0003F
007E000F8007E0003F
0000001F0007E0003F
0000003F000000003F
0000003E000000007E
0000007C00000000FE
0000007C00000001FC
000000F800000003FC
000001F80000000FF8
000001F00000003FF0
000003E0000000FFE0
000007E0000001FF80
000007C0000007FE00
00000FC000001FF800
00000F8000003FE000
00001F0000007F8000
00003F000000FF0000
00003E000001FC0000
00007C000003F80000
00007C000003F00000
0000F8000007F00000
0001F8000007E00000
0001F0000007E00000
0003E000000FFFFFFF
0007E000000FFFFFFF
0007C000000FFFFFFF
000F8000000FFFFFFF
000F8000000FFFFFFF
001F00000000000000
003F00000000000000
ENDCHAR
STARTCHAR 00BE
ENCODING 190
SWIDTH 829 0
DWIDTH 76 0
BBX 72 67 2 -2
BITMAP
003FE000000000F800
01FFFC00000001F800
07FFFE00000001F000
0FFFFF00000003E000
0FFFFF80000003E000
1FE03FC0000007C000
3F801FC000000FC000
3F000FE000000F8000
3E0007E000001F0000
3E0007E000003F0000
7E0007E000003E0000
7E0007E000007E0000
7E0007E000007C0000
000007E00000F80000
00000FC00001F80000
00001FC00001F00000
0007FF800003E00000
001FFF000007E00000
001FFC000007C00000
001FFF00000FC00000
001FFF80000F800000
0000FFC0001F000000
00000FE0003F000000
000007F0003E000000
000003F0007C000000
000003F0007C000000
000003F000F80003C0
FC0001F001F80007C0
FC0001F001F0000FC0
FC0003F003E0001FC0
7E0003F007E0001FC0
7E0003F007C0003FC0
7F0007E00FC0007FC0
3F800FE00F8000FFC0
3FC03FC01F0000FFC0
1FFFFFC03F0001F7C0
0FFFFF803E0003F7C0
07FFFE007C0007E7C0
01FFFC00FC0007C7C0
007FE000F8000F87C0
00000001F8001F87C0
00000001F0003F07C0
00000003E0007E07C0
00000007E0007C07C0
00000007C000FC07C0
0000000F8001F807C0
0000000F8003F007C0
0000001F0003E007C0
0000003F0007E007C0
0000003E000FC007C0
0000007C001F8007C0
000000FC001FFFFFFF
000000F8001FFFFFFF
000001F8001FFFFFFF
000001F0001FFFFFFF
000003E0001FFFFFFF
000007E000000007C0
000007C000000007C0
00000F8000000007C0
00001F8000000007C0
00001F0000000007C0
00003F0000000007C0
00003E0000000007C0
00007C0000000007C0
0000FC0000000007C0
0000F8000000000000
0001F0000000000000
ENDCHAR
STARTCHAR 00BF
ENCODING 191
SWIDTH 610 0
DWIDTH 56 0
BBX 39 68 9 -20
BITMAP
0000FF0000
0000FF0000
0000FF0000
0000FF0000
0000FF0000
0000FF0000
0000FF0000
0000FF0000
0000FF0000
0000FF0000
0000000000
0000000000
0000000000
0000000000
0000000000
0000000000
0000000000
0000000000
0000FF0000
0000FF0000
0000FF0000
0000FF0000
0000FF0000
0000FF0000
0000FF0000
0000FF0000
0000FF0000
0001FF0000
0003FF0000
0003FE0000
0007FC0000
000FFC0000
001FF80000
007FF00000
00FFE00000
01FFC00000
03FF800000
07FF000000
0FFE000000
0FFC000000
1FF8000000
3FF0000000
3FE0000000
7FC0000000
7FC0000000
FF80000000
FF80000000
FF000000FE
FF000000FE
FF000000FE
FF000001FE
FF000001FE
FF000001FE
FF000001FE
FF800003FE
FF800003FC
7FC00007FC
7FE00007FC
7FF0000FF8
3FFC003FF8
1FFF00FFF0
1FFFFFFFE0
0FFFFFFFC0
07FFFFFF80
01FFFFFF00
00FFFFFE00
003FFFF000
0003FF8000
ENDCHAR
STARTCHAR 00C0
ENCODING 192
SWIDTH 665 0
DWIDTH 61 0
BBX 58 86 2 0
BITMAP
0000FFC000000000
00007FE000000000
00003FF000000000
00001FF000000000
00000FF800000000
000007FC00000000
000003FC00000000
000001FE00000000
000000FF00000000
0000007F00000000
0000003F80000000
0000001F80000000
0000000FC0000000
0000000000000000
0000000000000000
0000000000000000
0000000000000000
0000000000000000
0000000000000000
000001FFE0000000
000001FFE0000000
000001FFE0000000
000003FFF0000000
000003FFF0000000
000007FFF0000000
000007FFF8000000
000007FFF8000000
00000FFFF8000000
00000FFFFC000000
00000FF7FC000000
00001FF3FC000000
00001FF3FE000000
00001FE3FE000000
00003FE1FE000000
00003FE1FF000000
00003FC1FF000000
00007FC0FF800000
00007F80FF800000
0000FF80FF800000
0000FF807FC00000
0000FF007FC00000
0001FF007FC00000
0001FF003FE00000
0001FE003FE00000
0003FE003FE00000
0003FE001FF00000
0003FC001FF00000
0007FC001FF00000
0007FC000FF80000
0007F8000FF80000
000FF8000FF80000
000FF00007FC0000
001FF00007FC0000
001FF00007FC0000
001FE00003FE0000
003FE00003FE0000
003FE00003FF0000
003FC00001FF0000
007FC00001FF0000
007FFFFFFFFF8000
007FFFFFFFFF8000
00FFFFFFFFFF8000
00FFFFFFFFFFC000
00FFFFFFFFFFC000
01FFFFFFFFFFC000
01FFFFFFFFFFE000
03FF0000003FE000
03FE0000003FE000
03FE0000003FF000
07FC0000001FF000
07FC0000001FF000
07FC0000001FF800
0FF80000000FF800
0FF80000000FF800
0FF80000000FFC00
1FF000000007FC00
1FF000000007FE00
1FF000000007FE00
3FE000000003FE00
3FE000000003FF00
3FE000000003FF00
7FC000000001FF00
7FC000000001FF80
FFC000000001FF80
FF8000000000FF80
FF8000000000FFC0
ENDCHAR
STARTCHAR 00C1
ENCODING 193
SWIDTH 665 0
DWIDTH 61 0
BBX 58 86 2 0
BITMAP
00000001FFC00000
00000001FF800000
00000003FE000000
00000007FC000000
00000007F8000000
0000000FF0000000
0000000FE0000000
0000001FC0000000
0000003F80000000
0000003F00000000
0000007E00000000
000000FC00000000
000000F800000000
0000000000000000
0000000000000000
0000000000000000
0000000000000000
0000000000000000
0000000000000000
000001FFE0000000
000001FFE0000000
000001FFE0000000
000003FFF0000000
000003FFF0000000
000007FFF0000000
000007FFF8000000
000007FFF8000000
00000FFFF8000000
00000FFFFC000000
00000FF7FC000000
00001FF3FC000000
00001FF3FE000000
00001FE3FE000000
00003FE1FE000000
00003FE1FF000000
00003FC1FF000000
00007FC0FF800000
00007F80FF800000
0000FF80FF800000
0000FF807FC00000
0000FF007FC00000
0001FF007FC00000
0001FF003FE00000
0001FE003FE00000
0003FE003FE00000
0003FE001FF00000
0003FC001FF00000
0007FC001FF00000
0007FC000FF80000
0007F8000FF80000
000FF8000FF80000
000FF00007FC0000
001FF00007FC0000
001FF00007FC0000
001FE00003FE0000
003FE00003FE0000
003FE00003FF0000
003FC00001FF0000
007FC00001FF0000
007FFFFFFFFF8000
007FFFFFFFFF8000
00FFFFFFFFFF8000
00FFFFFFFFFFC000
00FFFFFFFFFFC000
01FFFFFFFFFFC000
01FFFFFFFFFFE000
03FF0000003FE000
03FE0000003FE000
03FE0000003FF000
07FC0000001FF000
07FC0000001FF000
07FC0000001FF800
0FF80000000FF800
0FF80000000FF800
0FF80000000FFC00
1FF000000007FC00
1FF000000007FE00
1FF000000007FE00
3FE000000003FE00
3FE000000003FF00
3FE000000003FF00
7FC000000001FF00
7FC000000001FF80
FFC000000001FF80
FF8000000000FF80
FF8000000000FFC0
ENDCHAR
STARTCHAR 00C2
ENCODING 194
SWIDTH 665 0
DWIDTH 61 0
BBX 58 86 2 0
BITMAP
000000FFC0000000
000001FFC0000000
000001FFE0000000
000003FFF0000000
000007FFF0000000
000007F7F8000000
00000FE3F8000000
00001FC1FC000000
00001FC0FE000000
00003F807E000000
00007F003F000000
00007E003F800000
0000FC001F800000
0000000000000000
0000000000000000
0000000000000000
0000000000000000
0000000000000000
0000000000000000
000001FFE0000000
000001FFE0000000
000001FFE0000000
000003FFF0000000
000003FFF0000000
000007FFF0000000
000007FFF8000000
000007FFF8000000
00000FFFF8000000
00000FFFFC000000
00000FF7FC000000
00001FF3FC000000
00001FF3FE000000
00001FE3FE000000
00003FE1FE000000
00003FE1FF000000
00003FC1FF000000
00007FC0FF800000
00007F80FF800000
0000FF80FF800000
0000FF807FC00000
0000FF007FC00000
0001FF007FC00000
0001FF003FE00000
0001FE003FE00000
0003FE003FE00000
0003FE001FF00000
0003FC001FF00000
0007FC001FF00000
0007FC000FF80000
0007F8000FF80000
000FF8000FF80000
000FF00007FC0000
001FF00007FC0000
001FF00007FC0000
001FE00003FE0000
003FE00003FE0000
003FE00003FF0000
003FC00001FF0000
007FC00001FF0000
007FFFFFFFFF8000
007FFFFFFFFF8000
00FFFFFFFFFF8000
00FFFFFFFFFFC000
00FFFFFFFFFFC000
01FFFFFFFFFFC000
01FFFFFFFFFFE000
03FF0000003FE000
03FE0000003FE000
03FE0000003FF000
07FC0000001FF000
07FC0000001FF000
07FC0000001FF800
0FF80000000FF800
0FF80000000FF800
0FF80000000FFC00
1FF000000007FC00
1FF000000007FE00
1FF000000007FE00
3FE000000003FE00
3FE000000003FF00
3FE000000003FF00
7FC000000001FF00
7FC000000001FF80
FFC000000001FF80
FF8000000000FF80
FF8000000000FFC0
ENDCHAR
STARTCHAR 00C3
ENCODING 195
SWIDTH 665 0
DWIDTH 61 0
BBX 58 84 2 0
BITMAP
00001FC003E00000
00003FF807E00000
00007FFF0FE00000
0000FFFFFFC00000
0000FFFFFFC00000
0001FFFFFF800000
0001F87FFF800000
0001F00FFF000000
0003F001FC000000
0000000000000000
0000000000000000
0000000000000000
0000000000000000
0000000000000000
0000000000000000
0000000000000000
0000000000000000
000001FFE0000000
000001FFE0000000
000001FFE0000000
000003FFF0000000
000003FFF0000000
000007FFF0000000
000007FFF8000000
000007FFF8000000
00000FFFF8000000
00000FFFFC000000
00000FF7FC000000
00001FF3FC000000
00001FF3FE000000
00001FE3FE000000
00003FE1FE000000
00003FE1FF000000
00003FC1FF000000
00007FC0FF800000
00007F80FF800000
0000FF80FF800000
0000FF807FC00000
0000FF007FC00000
0001FF007FC00000
0001FF003FE00000
0001FE003FE00000
0003FE003FE00000
0003FE001FF00000
0003FC001FF00000
0007FC001FF00000
0007FC000FF80000
0007F8000FF80000
000FF8000FF80000
000FF00007FC0000
001FF00007FC0000
001FF00007FC0000
001FE00003FE0000
003FE00003FE0000
003FE00003FF0000
003FC00001FF0000
007FC00001FF0000
007FFFFFFFFF8000
007FFFFFFFFF8000
00FFFFFFFFFF8000
00FFFFFFFFFFC000
00FFFFFFFFFFC000
01FFFFFFFFFFC000
01FFFFFFFFFFE000
03FF0000003FE000
03FE0000003FE000
03FE0000003FF000
07FC0000001FF000
07FC0000001FF000
07FC0000001FF800
0FF80000000FF800
0FF80000000FF800
0FF80000000FFC00
1FF000000007FC00
1FF000000007FE00
1FF000000007FE00
3FE000000003FE00
3FE000000003FF00
3FE000000003FF00
7FC000000001FF00
7FC000000001FF80
FFC000000001FF80
FF8000000000FF80
FF8000000000FFC0
ENDCHAR
STARTCHAR 00C4
ENCODING 196
SWIDTH 665 0
DWIDTH 61 0
BBX 58 84 2 0
BITMAP
00007FC1FF800000
00007FC1FF800000
00007FC1FF800000
00007FC1FF800000
00007FC1FF800000
00007FC1FF800000
00007FC1FF800000
00007FC1FF800000
00007FC1FF800000
0000000000000000
0000000000000000
0000000000000000
0000000000000000
0000000000000000
0000000000000000
0000000000000000
0000000000000000
000001FFE0000000
000001FFE0000000
000001FFE0000000
000003FFF0000000
000003FFF0000000
000007FFF0000000
000007FFF8000000
000007FFF8000000
00000FFFF8000000
00000FFFFC000000
00000FF7FC000000
00001FF3FC000000
00001FF3FE000000
00001FE3FE000000
00003FE1FE000000
00003FE1FF000000
00003FC1FF000000
00007FC0FF800000
00007F80FF800000
0000FF80FF800000
0000FF807FC00000
0000FF007FC00000
0001FF007FC00000
0001FF003FE00000
0001FE003FE00000
0003FE003FE00000
0003FE001FF00000
0003FC001FF00000
0007FC001FF00000
0007FC000FF80000
0007F8000FF80000
000FF8000FF80000
000FF00007FC0000
001FF00007FC0000
001FF00007FC0000
001FE00003FE0000
003FE00003FE0000
003FE00003FF0000
003FC00001FF0000
007FC00001FF0000
007FFFFFFFFF8000
007FFFFFFFFF8000
00FFFFFFFFFF8000
00FFFFFFFFFFC000
00FFFFFFFFFFC000
01FFFFFFFFFFC000
01FFFFFFFFFFE000
03FF0000003FE000
03FE0000003FE000
03FE0000003FF000
07FC0000001FF000
07FC0000001FF000
07FC0000001FF800
0FF80000000FF800
0FF80000000FF800
0FF80000000FFC00
1FF000000007FC00
1FF000000007FE00
1FF000000007FE00
3FE000000003FE00
3FE000000003FF00
3FE000000003FF00
7FC000000001FF00
7FC000000001FF80
FFC000000001FF80
FF8000000000FF80
FF8000000000FFC0
ENDCHAR
STARTCHAR 00C5
ENCODING 197
SWIDTH 665 0
DWIDTH 61 0
BBX 58 88 2 0
BITMAP
0000003F00000000
000000FF80000000
000001FFE0000000
000003FFE0000000
000003E1F0000000
000007C0F0000000
00000780F8000000
0000078078000000
0000078078000000
00000780F8000000
000007C0F0000000
000007E1F0000000
000003FFE0000000
000001FFE0000000
000000FF80000000
0000003F00000000
0000000000000000
0000000000000000
0000000000000000
0000000000000000
0000000000000000
000001FFE0000000
000001FFE0000000
000001FFE0000000
000003FFF0000000
000003FFF0000000
000007FFF0000000
000007FFF8000000
000007FFF8000000
00000FFFF8000000
00000FFFFC000000
00000FF7FC000000
00001FF3FC000000
00001FF3FE000000
00001FE3FE000000
00003FE1FE000000
00003FE1FF000000
00003FC1FF000000
00007FC0FF800000
00007F80FF800000
0000FF80FF800000
0000FF807FC00000
0000FF007FC00000
0001FF007FC00000
0001FF003FE00000
0001FE003FE00000
0003FE003FE00000
0003FE001FF00000
0003FC001FF00000
0007FC001FF00000
0007FC000FF80000
0007F8000FF80000
000FF8000FF80000
000FF00007FC0000
001FF00007FC0000
001FF00007FC0000
001FE00003FE0000
003FE00003FE0000
003FE00003FF0000
003FC00001FF0000
007FC00001FF0000
007FFFFFFFFF8000
007FFFFFFFFF8000
00FFFFFFFFFF8000
00FFFFFFFFFFC000
00FFFFFFFFFFC000
01FFFFFFFFFFC000
01FFFFFFFFFFE000
03FF0000003FE000
03FE0000003FE000
03FE0000003FF000
07FC0000001FF000
07FC0000001FF000
07FC0000001FF800
0FF80000000FF800
0FF80000000FF800
0FF80000000FFC00
1FF000000007FC00
1FF000000007FE00
1FF000000007FE00
3FE000000003FE00
3FE000000003FF00
3FE000000003FF00
7FC000000001FF00
7FC000000001FF80
FFC000000001FF80
FF8000000000FF80
FF8000000000FFC0
ENDCHAR
STARTCHAR 00C6
ENCODING 198
SWIDTH 1003 0
DWIDTH 92 0
BBX 86 67 1 0
BITMAP
0000001FFFFFFFFFFFFFF0
0000001FFFFFFFFFFFFFF0
0000003FFFFFFFFFFFFFF0
0000003FFFFFFFFFFFFFF0
0000003FFFFFFFFFFFFFF0
0000007FFFFFFFFFFFFFF0
0000007FFFFFFFFFFFFFF0
000000FFFFFFFFFFFFFFF0
000000FF003FC000000000
000000FF003FC000000000
000001FF003FC000000000
000001FE003FC000000000
000003FE003FC000000000
000003FC003FC000000000
000007FC003FC000000000
000007FC003FC000000000
000007F8003FC000000000
00000FF8003FC000000000
00000FF0003FC000000000
00001FF0003FC000000000
00001FF0003FC000000000
00001FE0003FC000000000
00003FE0003FC000000000
00003FE0003FC000000000
00007FC0003FC000000000
00007FC0003FC000000000
00007F80003FC000000000
0000FF80003FC000000000
0000FF80003FC000000000
0001FF00003FFFFFFFFFE0
0001FF00003FFFFFFFFFE0
0001FE00003FFFFFFFFFE0
0003FE00003FFFFFFFFFE0
0003FE00003FFFFFFFFFE0
0007FC00003FFFFFFFFFE0
0007FC00003FFFFFFFFFE0
000FF800003FFFFFFFFFE0
000FF800003FC000000000
000FF800003FC000000000
001FF000003FC000000000
001FFFFFFFFFC000000000
003FFFFFFFFFC000000000
003FFFFFFFFFC000000000
003FFFFFFFFFC000000000
007FFFFFFFFFC000000000
007FFFFFFFFFC000000000
00FFFFFFFFFFC000000000
00FFFFFFFFFFC000000000
00FF8000003FC000000000
01FF0000003FC000000000
01FF0000003FC000000000
03FF0000003FC000000000
03FE0000003FC000000000
03FE0000003FC000000000
07FC0000003FC000000000
07FC0000003FC000000000
0FFC0000003FC000000000
0FF80000003FC000000000
1FF80000003FC000000000
1FF00000003FFFFFFFFFFC
1FF00000003FFFFFFFFFFC
3FF00000003FFFFFFFFFFC
3FE00000003FFFFFFFFFFC
7FE00000003FFFFFFFFFFC
7FC00000003FFFFFFFFFFC
7FC00000003FFFFFFFFFFC
FFC00000003FFFFFFFFFFC
ENDCHAR
STARTCHAR 00C7
ENCODING 199
SWIDTH 720 0
DWIDTH 66 0
BBX 58 88 4 -20
BITMAP
0000007FF8000000
000007FFFF800000
00003FFFFFF00000
0000FFFFFFFC0000
0003FFFFFFFE0000
0007FFFFFFFF0000
000FFFFFFFFFC000
001FFFFFFFFFE000
003FFF0007FFE000
007FF80000FFF000
00FFE000007FF800
01FFC000001FF800
01FF8000000FFC00
03FF00000007FC00
07FE00000007FE00
07FC00000003FE00
0FFC00000003FE00
0FF800000001FF00
0FF000000001FF00
1FF000000001FF00
1FF000000000FF00
3FE000000000FF80
3FE0000000000000
3FE0000000000000
3FC0000000000000
7FC0000000000000
7FC0000000000000
7FC0000000000000
7F80000000000000
7F80000000000000
7F80000000000000
7F80000000000000
7F80000000000000
FF80000000000000
FF80000000000000
FF80000000000000
FF80000000000000
FF80000000000000
7F80000000000000
7F80000000000000
7F80000000000000
7F80000000000000
7FC0000000000000
7FC0000000000000
7FC0000000007FC0
7FC0000000007FC0
3FC0000000007FC0
3FE0000000007FC0
3FE000000000FF80
3FE000000000FF80
1FF000000000FF80
1FF000000001FF80
0FF800000001FF00
0FF800000001FF00
0FFC00000003FF00
07FE00000003FE00
07FF00000007FE00
03FF8000000FFC00
01FFC000001FFC00
01FFE000003FF800
00FFF800007FF000
007FFE0001FFF000
003FFFC01FFFE000
001FFFFFFFFFC000
000FFFFFFFFF8000
0007FFFFFFFF0000
0001FFFFFFFC0000
00007FFFFFF00000
00001FFFFFC00000
000003FFFE000000
0000001E00000000
0000001C00000000
0000003C00000000
0000003FC0000000
0000007FF8000000
0000007FFC000000
0000007FFE000000
00000001FE000000
00000000FE000000
00000000FE000000
00000000FE000000
00003000FE000000
00003C00FE000000
00007F03FC000000
00007FFFF8000000
00003FFFF0000000
000007FFE0000000
0000007E00000000
ENDCHAR
STARTCHAR 00C8
ENCODING 200
SWIDTH 665 0
DWIDTH 61 0
BBX 48 86 8 0
BITMAP
001FFC000000
0007FC000000
0003FE000000
0001FF000000
0000FF000000
00007F800000
00003FC00000
00001FC00000
00000FE00000
000007F00000
000003F00000
000001F80000
000000FC0000
000000000000
000000000000
000000000000
000000000000
000000000000
000000000000
FFFFFFFFFFFE
FFFFFFFFFFFE
FFFFFFFFFFFE
FFFFFFFFFFFE
FFFFFFFFFFFE
FFFFFFFFFFFE
FFFFFFFFFFFE
FFFFFFFFFFFE
FF8000000000
FF8000000000
FF8000000000
FF8000000000
FF8000000000
FF8000000000
FF8000000000
FF8000000000
FF8000000000
FF8000000000
FF8000000000
FF8000000000
FF8000000000
FF8000000000
FF8000000000
FF8000000000
FF8000000000
FF8000000000
FF8000000000
FF8000000000
FF8000000000
FFFFFFFFFFF8
FFFFFFFFFFF8
FFFFFFFFFFF8
FFFFFFFFFFF8
FFFFFFFFFFF8
FFFFFFFFFFF8
FFFFFFFFFFF8
FFFFFFFFFFF8
FF8000000000
FF8000000000
FF8000000000
FF8000000000
FF8000000000
FF8000000000
FF8000000000
FF8000000000
FF8000000000
FF8000000000
FF8000000000
FF8000000000
FF8000000000
FF8000000000
FF8000000000
FF8000000000
FF8000000000
FF8000000000
FF8000000000
FF8000000000
FF8000000000
FF8000000000
FFFFFFFFFFFF
FFFFFFFFFFFF
FFFFFFFFFFFF
FFFFFFFFFFFF
FFFFFFFFFFFF
FFFFFFFFFFFF
FFFFFFFFFFFF
FFFFFFFFFFFF
ENDCHAR
STARTCHAR 00C9
ENCODING 201
SWIDTH 665 0
DWIDTH 61 0
BBX 48 86 8 0
BITMAP
0000007FE000
0000007FC000
000000FF8000
000001FF0000
000001FE0000
000003FC0000
000007F80000
000007F00000
00000FE00000
00001FC00000
00001F800000
00003F000000
00007E000000
000000000000
000000000000
000000000000
000000000000
000000000000
000000000000
FFFFFFFFFFFE
FFFFFFFFFFFE
FFFFFFFFFFFE
FFFFFFFFFFFE
FFFFFFFFFFFE
FFFFFFFFFFFE
FFFFFFFFFFFE
FFFFFFFFFFFE
FF8000000000
FF8000000000
FF8000000000
FF8000000000
FF8000000000
FF8000000000
FF8000000000
FF8000000000
FF8000000000
FF8000000000
FF8000000000
FF8000000000
FF8000000000
FF8000000000
FF8000000000
FF8000000000
FF8000000000
FF8000000000
FF8000000000
FF8000000000
FF8000000000
FFFFFFFFFFF8
FFFFFFFFFFF8
FFFFFFFFFFF8
FFFFFFFFFFF8
FFFFFFFFFFF8
FFFFFFFFFFF8
FFFFFFFFFFF8
FFFFFFFFFFF8
FF8000000000
FF8000000000
FF8000000000
FF8000000000
FF8000000000
FF8000000000
FF8000000000
FF8000000000
FF8000000000
FF8000000000
FF8000000000
FF8000000000
FF8000000000
FF8000000000
FF8000000000
FF8000000000
FF8000000000
FF8000000000
FF8000000000
FF8000000000
FF8000000000
FF8000000000
FFFFFFFFFFFF
FFFFFFFFFFFF
FFFFFFFFFFFF
FFFFFFFFFFFF
FFFFFFFFFFFF
FFFFFFFFFFFF
FFFFFFFFFFFF
FFFFFFFFFFFF
ENDCHAR
STARTCHAR 00CA
ENCODING 202
SWIDTH 665 0
DWIDTH 61 0
BBX 48 86 8 0
BITMAP
00001FF00000
00003FF80000
00007FFC0000
00007FFC0000
0000FFFE0000
0001FEFF0000
0001FC7F0000
0003F83F8000
0003F01FC000
0007F00FC000
000FE007E000
000FC007F000
001F8003F000
000000000000
000000000000
000000000000
000000000000
000000000000
000000000000
FFFFFFFFFFFE
FFFFFFFFFFFE
FFFFFFFFFFFE
FFFFFFFFFFFE
FFFFFFFFFFFE
FFFFFFFFFFFE
FFFFFFFFFFFE
FFFFFFFFFFFE
FF8000000000
FF8000000000
FF8000000000
FF8000000000
FF8000000000
FF8000000000
FF8000000000
FF8000000000
FF8000000000
FF8000000000
FF8000000000
FF8000000000
FF8000000000
FF8000000000
FF8000000000
FF8000000000
FF8000000000
FF8000000000
FF8000000000
FF8000000000
FF8000000000
FFFFFFFFFFF8
FFFFFFFFFFF8
FFFFFFFFFFF8
FFFFFFFFFFF8
FFFFFFFFFFF8
FFFFFFFFFFF8
FFFFFFFFFFF8
FFFFFFFFFFF8
FF8000000000
FF8000000000
FF8000000000
FF8000000000
FF8000000000
FF8000000000
FF8000000000
FF8000000000
FF8000000000
FF8000000000
FF8000000000
FF8000000000
FF8000000000
FF8000000000
FF8000000000
FF8000000000
FF8000000000
FF8000000000
FF8000000000
FF8000000000
FF8000000000
FF8000000000
FFFFFFFFFFFF
FFFFFFFFFFFF
FFFFFFFFFFFF
FFFFFFFFFFFF
FFFFFFFFFFFF
FFFFFFFFFFFF
FFFFFFFFFFFF
FFFFFFFFFFFF
ENDCHAR
STARTCHAR 00CB
ENCODING 203
SWIDTH 665 0
DWIDTH 61 0
BBX 48 84 8 0
BITMAP
001FF83FF000
001FF83FF000
001FF83FF000
001FF83FF000
001FF83FF000
001FF83FF000
001FF83FF000
001FF83FF000
001FF83FF000
000000000000
000000000000
000000000000
000000000000
000000000000
000000000000
000000000000
000000000000
FFFFFFFFFFFE
FFFFFFFFFFFE
FFFFFFFFFFFE
FFFFFFFFFFFE
FFFFFFFFFFFE
FFFFFFFFFFFE
FFFFFFFFFFFE
FFFFFFFFFFFE
FF8000000000
FF8000000000
FF8000000000
FF8000000000
FF8000000000
FF8000000000
FF8000000000
FF8000000000
FF8000000000
FF8000000000
FF8000000000
FF8000000000
FF8000000000
FF8000000000
FF8000000000
FF8000000000
FF8000000000
FF8000000000
FF8000000000
FF8000000000
FF8000000000
FFFFFFFFFFF8
FFFFFFFFFFF8
FFFFFFFFFFF8
FFFFFFFFFFF8
FFFFFFFFFFF8
FFFFFFFFFFF8
FFFFFFFFFFF8
FFFFFFFFFFF8
FF8000000000
FF8000000000
FF8000000000
FF8000000000
FF8000000000
FF8000000000
FF8000000000
FF8000000000
FF8000000000
FF8000000000
FF8000000000
FF8000000000
FF8000000000
FF8000000000
FF8000000000
FF8000000000
FF8000000000
FF8000000000
FF8000000000
FF8000000000
FF8000000000
FF8000000000
FFFFFFFFFFFF
FFFFFFFFFFFF
FFFFFFFFFFFF
FFFFFFFFFFFF
FFFFFFFFFFFF
FFFFFFFFFFFF
FFFFFFFFFFFF
FFFFFFFFFFFF
ENDCHAR
STARTCHAR 00CC
ENCODING 204
SWIDTH 272 0
DWIDTH 25 0
BBX 18 86 1 0
BITMAP
FFC000
7FE000
3FE000
1FF000
0FF800
07F800
03FC00
01FC00
00FE00
007F00
003F00
001F80
000FC0
000000
000000
000000
000000
000000
000000
00FF80
00FF80
00FF80
00FF80
00FF80
00FF80
00FF80
00FF80
00FF80
00FF80
00FF80
00FF80
00FF80
00FF80
00FF80
00FF80
00FF80
00FF80
00FF80
00FF80
00FF80
00FF80
00FF80
00FF80
00FF80
00FF80
00FF80
00FF80
00FF80
00FF80
00FF80
00FF80
00FF80
00FF80
00FF80
00FF80
00FF80
00FF80
00FF80
00FF80
00FF80
00FF80
00FF80
00FF80
00FF80
00FF80
00FF80
00FF80
00FF80
00FF80
00FF80
00FF80
00FF80
00FF80
00FF80
00FF80
00FF80
00FF80
00FF80
00FF80
00FF80
00FF80
00FF80
00FF80
00FF80
00FF80
00FF80
ENDCHAR
STARTCHAR 00CD
ENCODING 205
SWIDTH 272 0
DWIDTH 25 0
BBX 18 86 7 0
BITMAP
00FFC0
01FF80
01FF00
03FE00
07FC00
07F800
0FF000
1FE000
1FC000
3F8000
7F0000
7E0000
FC0000
000000
000000
000000
000000
000000
000000
3FE000
3FE000
3FE000
3FE000
3FE000
3FE000
3FE000
3FE000
3FE000
3FE000
3FE000
3FE000
3FE000
3FE000
3FE000
3FE000
3FE000
3FE000
3FE000
3FE000
3FE000
3FE000
3FE000
3FE000
3FE000
3FE000
3FE000
3FE000
3FE000
3FE000
3FE000
3FE000
3FE000
3FE000
3FE000
3FE000
3FE000
3FE000
3FE000
3FE000
3FE000
3FE000
3FE000
3FE000
3FE000
3FE000
3FE000
3FE000
3FE000
3FE000
3FE000
3FE000
3FE000
3FE000
3FE000
3FE000
3FE000
3FE000
3FE000
3FE000
3FE000
3FE000
3FE000
3FE000
3FE000
3FE000
3FE000
ENDCHAR
STARTCHAR 00CE
ENCODING 206
SWIDTH 272 0
DWIDTH 25 0
BBX 26 86 0 0
BITMAP
00FFC000
00FFE000
01FFE000
03FFF000
03FFF800
07F3F800
0FE1FC00
0FE1FC00
1FC0FE00
3F807F00
3F003F00
7E001F80
FE000FC0
00000000
00000000
00000000
00000000
00000000
00000000
007FC000
007FC000
007FC000
007FC000
007FC000
007FC000
007FC000
007FC000
007FC000
007FC000
007FC000
007FC000
007FC000
007FC000
007FC000
007FC000
007FC000
007FC000
007FC000
007FC000
007FC000
007FC000
007FC000
007FC000
007FC000
007FC000
007FC000
007FC000
007FC000
007FC000
007FC000
007FC000
007FC000
007FC000
007FC000
007FC000
007FC000
007FC000
007FC000
007FC000
007FC000
007FC000
007FC000
007FC000
007FC000
007FC000
007FC000
007FC000
007FC000
007FC000
007FC000
007FC000
007FC000
007FC000
007FC000
007FC000
007FC000
007FC000
007FC000
007FC000
007FC000
007FC000
007FC000
007FC000
007FC000
007FC000
007FC000
ENDCHAR
STARTCHAR 00CF
ENCODING 207
SWIDTH 272 0
DWIDTH 25 0
BBX 24 83 1 0
BITMAP
FF81FF
FF81FF
FF81FF
FF81FF
FF81FF
FF81FF
FF81FF
FF81FF
FF81FF
000000
000000
000000
000000
000000
000000
000000
00FF80
00FF80
00FF80
00FF80
00FF80
00FF80
00FF80
00FF80
00FF80
00FF80
00FF80
00FF80
00FF80
00FF80
00FF80
00FF80
00FF80
00FF80
00FF80
00FF80
00FF80
00FF80
00FF80
00FF80
00FF80
00FF80
00FF80
00FF80
00FF80
00FF80
00FF80
00FF80
00FF80
00FF80
00FF80
00FF80
00FF80
00FF80
00FF80
00FF80
00FF80
00FF80
00FF80
00FF80
00FF80
00FF80
00FF80
00FF80
00FF80
00FF80
00FF80
00FF80
00FF80
00FF80
00FF80
00FF80
00FF80
00FF80
00FF80
00FF80
00FF80
00FF80
00FF80
00FF80
00FF80
00FF80
00FF80
ENDCHAR
STARTCHAR 00D0
ENCODING 208
SWIDTH 720 0
DWIDTH 66 0
BBX 59 67 2 0
BITMAP
03FFFFFFFC000000
03FFFFFFFF800000
03FFFFFFFFF00000
03FFFFFFFFFC0000
03FFFFFFFFFE0000
03FFFFFFFFFF8000
03FFFFFFFFFFC000
03FFFFFFFFFFE000
03FE000007FFF000
03FE000000FFF000
03FE0000007FF800
03FE0000001FFC00
03FE0000000FFC00
03FE00000007FE00
03FE00000003FE00
03FE00000003FF00
03FE00000001FF00
03FE00000000FF80
03FE00000000FF80
03FE000000007F80
03FE000000007FC0
03FE000000007FC0
03FE000000007FC0
03FE000000003FC0
03FE000000003FC0
03FE000000003FE0
03FE000000003FE0
03FE000000003FE0
03FE000000003FE0
03FE000000001FE0
FFFFFFFC00001FE0
FFFFFFFC00001FE0
FFFFFFFC00001FE0
FFFFFFFC00001FE0
FFFFFFFC00001FE0
FFFFFFFC00001FE0
03FE000000001FE0
03FE000000001FE0
03FE000000003FE0
03FE000000003FE0
03FE000000003FE0
03FE000000003FE0
03FE000000003FC0
03FE000000003FC0
03FE000000007FC0
03FE000000007FC0
03FE000000007FC0
03FE000000007F80
03FE00000000FF80
03FE00000000FF80
03FE00000001FF00
03FE00000001FF00
03FE00000003FE00
03FE00000007FE00
03FE0000000FFC00
03FE0000001FFC00
03FE0000003FF800
03FE000000FFF000
03FE000003FFF000
03FFFFFFFFFFE000
03FFFFFFFFFFC000
03FFFFFFFFFF8000
03FFFFFFFFFE0000
03FFFFFFFFFC0000
03FFFFFFFFF00000
03FFFFFFFF800000
03FFFFFFF8000000
ENDCHAR
STARTCHAR 00D1
ENCODING 209
SWIDTH 720 0
DWIDTH 66 0
BBX 52 84 7 0
BITMAP
00007F000F8000
0000FFE01F8000
0001FFFC3F8000
0003FFFFFF0000
0003FFFFFF0000
0007FFFFFE0000
0007E1FFFE0000
0007C03FFC0000
000FC007F00000
00000000000000
00000000000000
00000000000000
00000000000000
00000000000000
00000000000000
00000000000000
00000000000000
FFC00000000FF0
FFC00000000FF0
FFE00000000FF0
FFE00000000FF0
FFF00000000FF0
FFF80000000FF0
FFF80000000FF0
FFFC0000000FF0
FFFE0000000FF0
FFFE0000000FF0
FFFF0000000FF0
FFFF8000000FF0
FFFF8000000FF0
FF7FC000000FF0
FF7FC000000FF0
FF3FE000000FF0
FF3FF000000FF0
FF1FF000000FF0
FF0FF800000FF0
FF0FFC00000FF0
FF07FC00000FF0
FF03FE00000FF0
FF03FF00000FF0
FF01FF00000FF0
FF00FF80000FF0
FF00FF80000FF0
FF007FC0000FF0
FF007FE0000FF0
FF003FE0000FF0
FF001FF0000FF0
FF001FF8000FF0
FF000FF8000FF0
FF0007FC000FF0
FF0007FE000FF0
FF0003FE000FF0
FF0003FF000FF0
FF0001FF800FF0
FF0000FF800FF0
FF0000FFC00FF0
FF00007FC00FF0
FF00003FE00FF0
FF00003FF00FF0
FF00001FF00FF0
FF00000FF80FF0
FF00000FFC0FF0
FF000007FC0FF0
FF000007FE0FF0
FF000003FF0FF0
FF000001FF0FF0
FF000001FF8FF0
FF000000FF8FF0
FF0000007FCFF0
FF0000007FEFF0
FF0000003FEFF0
FF0000001FFFF0
FF0000001FFFF0
FF0000000FFFF0
FF0000000FFFF0
FF00000007FFF0
FF00000003FFF0
FF00000003FFF0
FF00000001FFF0
FF00000000FFF0
FF00000000FFF0
FF000000007FF0
FF000000003FF0
FF000000003FF0
ENDCHAR
STARTCHAR 00D2
ENCODING 210
SWIDTH 774 0
DWIDTH 71 0
BBX 65 88 3 -2
BITMAP
00000FFC0000000000
000007FE0000000000
000003FF0000000000
000001FF0000000000
000000FF8000000000
0000007FC000000000
0000003FC000000000
0000001FE000000000
0000000FE000000000
00000007F000000000
00000003F800000000
00000001F800000000
00000000FC00000000
000000000000000000
000000000000000000
000000000000000000
000000000000000000
000000000000000000
0000001FFE00000000
000001FFFFE0000000
00000FFFFFFC000000
00003FFFFFFF000000
0000FFFFFFFFC00000
0003FFFFFFFFE00000
0007FFFFFFFFF80000
000FFFFFFFFFFC0000
001FFFC000FFFE0000
003FFE00003FFF0000
007FF800000FFF8000
00FFE0000003FFC000
01FFC0000001FFE000
03FF80000000FFE000
03FF000000007FF000
07FE000000003FF000
07FC000000001FF800
0FFC000000000FF800
0FF8000000000FFC00
1FF80000000007FC00
1FF00000000007FE00
1FF00000000003FE00
3FE00000000003FE00
3FE00000000001FF00
3FC00000000001FF00
3FC00000000001FF00
7FC00000000000FF00
7FC00000000000FF00
7FC00000000000FF80
7F800000000000FF80
7F800000000000FF80
7F800000000000FF80
7F800000000000FF80
7F800000000000FF80
FF800000000000FF80
FF800000000000FF80
7F800000000000FF80
7F800000000000FF80
7F800000000000FF80
7F800000000000FF80
7F800000000000FF80
7FC00000000000FF80
7FC00000000000FF00
7FC00000000000FF00
7FC00000000001FF00
3FE00000000001FF00
3FE00000000001FF00
3FE00000000003FE00
1FF00000000003FE00
1FF00000000003FE00
1FF80000000007FC00
0FF8000000000FFC00
0FFC000000000FF800
07FC000000001FF800
07FE000000003FF000
03FF000000003FF000
03FF80000000FFE000
01FFC0000001FFC000
00FFF0000003FFC000
007FF800000FFF8000
007FFE00003FFF0000
003FFFC000FFFE0000
000FFFFFFFFFFC0000
0007FFFFFFFFF80000
0003FFFFFFFFE00000
0000FFFFFFFFC00000
00007FFFFFFF000000
00000FFFFFFC000000
000003FFFFE0000000
0000001FFE00000000
ENDCHAR
STARTCHAR 00D3
ENCODING 211
SWIDTH 774 0
DWIDTH 71 0
BBX 65 88 3 -2
BITMAP
000000001FF8000000
000000003FF0000000
000000003FE0000000
000000007FC0000000
00000000FF80000000
00000000FF00000000
00000001FE00000000
00000003FC00000000
00000003F800000000
00000007F000000000
0000000FE000000000
0000000FC000000000
0000001F8000000000
000000000000000000
000000000000000000
000000000000000000
000000000000000000
000000000000000000
0000001FFE00000000
000001FFFFE0000000
00000FFFFFFC000000
00003FFFFFFF000000
0000FFFFFFFFC00000
0003FFFFFFFFE00000
0007FFFFFFFFF80000
000FFFFFFFFFFC0000
001FFFC000FFFE0000
003FFE00003FFF0000
007FF800000FFF8000
00FFE0000003FFC000
01FFC0000001FFE000
03FF80000000FFE000
03FF000000007FF000
07FE000000003FF000
07FC000000001FF800
0FFC000000000FF800
0FF8000000000FFC00
1FF80000000007FC00
1FF00000000007FE00
1FF00000000003FE00
3FE00000000003FE00
3FE00000000001FF00
3FC00000000001FF00
3FC00000000001FF00
7FC00000000000FF00
7FC00000000000FF00
7FC00000000000FF80
7F800000000000FF80
7F800000000000FF80
7F800000000000FF80
7F800000000000FF80
7F800000000000FF80
FF800000000000FF80
FF800000000000FF80
7F800000000000FF80
7F800000000000FF80
7F800000000000FF80
7F800000000000FF80
7F800000000000FF80
7FC00000000000FF80
7FC00000000000FF00
7FC00000000000FF00
7FC00000000001FF00
3FE00000000001FF00
3FE00000000001FF00
3FE00000000003FE00
1FF00000000003FE00
1FF00000000003FE00
1FF80000000007FC00
0FF8000000000FFC00
0FFC000000000FF800
07FC000000001FF800
07FE000000003FF000
03FF000000003FF000
03FF80000000FFE000
01FFC0000001FFC000
00FFF0000003FFC000
007FF800000FFF8000
007FFE00003FFF0000
003FFFC000FFFE0000
000FFFFFFFFFFC0000
0007FFFFFFFFF80000
0003FFFFFFFFE00000
0000FFFFFFFFC00000
00007FFFFFFF000000
00000FFFFFFC000000
000003FFFFE0000000
0000001FFE00000000
ENDCHAR
STARTCHAR 00D4
ENCODING 212
SWIDTH 774 0
DWIDTH 71 0
BBX 65 88 3 -2
BITMAP
0000000FFC00000000
0000001FFC00000000
0000001FFE00000000
0000003FFE00000000
0000007FFF00000000
0000007F7F80000000
000000FE3F80000000
000001FC1FC0000000
000001FC0FE0000000
000003F807E0000000
000003F003F0000000
000007E003F8000000
00000FC001F8000000
00000FC000FC000000
000000000000000000
000000000000000000
000000000000000000
000000000000000000
0000001FFE00000000
000001FFFFE0000000
00000FFFFFFC000000
00003FFFFFFF000000
0000FFFFFFFFC00000
0003FFFFFFFFE00000
0007FFFFFFFFF80000
000FFFFFFFFFFC0000
001FFFC000FFFE0000
003FFE00003FFF0000
007FF800000FFF8000
00FFE0000003FFC000
01FFC0000001FFE000
03FF80000000FFE000
03FF000000007FF000
07FE000000003FF000
07FC000000001FF800
0FFC000000000FF800
0FF8000000000FFC00
1FF80000000007FC00
1FF00000000007FE00
1FF00000000003FE00
3FE00000000003FE00
3FE00000000001FF00
3FC00000000001FF00
3FC00000000001FF00
7FC00000000000FF00
7FC00000000000FF00
7FC00000000000FF80
7F800000000000FF80
7F800000000000FF80
7F800000000000FF80
7F800000000000FF80
7F800000000000FF80
FF800000000000FF80
FF800000000000FF80
7F800000000000FF80
7F800000000000FF80
7F800000000000FF80
7F800000000000FF80
7F800000000000FF80
7FC00000000000FF80
7FC00000000000FF00
7FC00000000000FF00
7FC00000000001FF00
3FE00000000001FF00
3FE00000000001FF00
3FE00000000003FE00
1FF00000000003FE00
1FF00000000003FE00
1FF80000000007FC00
0FF8000000000FFC00
0FFC000000000FF800
07FC000000001FF800
07FE000000003FF000
03FF000000003FF000
03FF80000000FFE000
01FFC0000001FFC000
00FFF0000003FFC000
007FF800000FFF8000
007FFE00003FFF0000
003FFFC000FFFE0000
000FFFFFFFFFFC0000
0007FFFFFFFFF80000
0003FFFFFFFFE00000
0000FFFFFFFFC00000
00007FFFFFFF000000
00000FFFFFFC000000
000003FFFFE0000000
0000001FFE00000000
ENDCHAR
STARTCHAR 00D5
ENCODING 213
SWIDTH 774 0
DWIDTH 71 0
BBX 65 86 3 -2
BITMAP
000000FC003E000000
000003FF807E000000
000007FFF0FE000000
000007FFFFFE000000
00000FFFFFFC000000
00000FFFFFFC000000
00001FC7FFF8000000
00001F80FFF0000000
00001F001FE0000000
000000000000000000
000000000000000000
000000000000000000
000000000000000000
000000000000000000
000000000000000000
000000000000000000
0000001FFE00000000
000001FFFFE0000000
00000FFFFFFC000000
00003FFFFFFF000000
0000FFFFFFFFC00000
0003FFFFFFFFE00000
0007FFFFFFFFF80000
000FFFFFFFFFFC0000
001FFFC000FFFE0000
003FFE00003FFF0000
007FF800000FFF8000
00FFE0000003FFC000
01FFC0000001FFE000
03FF80000000FFE000
03FF000000007FF000
07FE000000003FF000
07FC000000001FF800
0FFC000000000FF800
0FF8000000000FFC00
1FF80000000007FC00
1FF00000000007FE00
1FF00000000003FE00
3FE00000000003FE00
3FE00000000001FF00
3FC00000000001FF00
3FC00000000001FF00
7FC00000000000FF00
7FC00000000000FF00
7FC00000000000FF80
7F800000000000FF80
7F800000000000FF80
7F800000000000FF80
7F800000000000FF80
7F800000000000FF80
FF800000000000FF80
FF800000000000FF80
7F800000000000FF80
7F800000000000FF80
7F800000000000FF80
7F800000000000FF80
7F800000000000FF80
7FC00000000000FF80
7FC00000000000FF00
7FC00000000000FF00
7FC00000000001FF00
3FE00000000001FF00
3FE00000000001FF00
3FE00000000003FE00
1FF00000000003FE00
1FF00000000003FE00
1FF80000000007FC00
0FF8000000000FFC00
0FFC000000000FF800
07FC000000001FF800
07FE000000003FF000
03FF000000003FF000
03FF80000000FFE000
01FFC0000001FFC000
00FFF0000003FFC000
007FF800000FFF8000
007FFE00003FFF0000
003FFFC000FFFE0000
000FFFFFFFFFFC0000
0007FFFFFFFFF80000
0003FFFFFFFFE00000
0000FFFFFFFFC00000
00007FFFFFFF000000
00000FFFFFFC000000
000003FFFFE0000000
0000001FFE00000000
ENDCHAR
STARTCHAR 00D6
ENCODING 214
SWIDTH 774 0
DWIDTH 71 0
BBX 65 86 3 -2
BITMAP
000007FC1FF8000000
000007FC1FF8000000
000007FC1FF8000000
000007FC1FF8000000
000007FC1FF8000000
000007FC1FF8000000
000007FC1FF8000000
000007FC1FF8000000
000007FC1FF8000000
000000000000000000
000000000000000000
000000000000000000
000000000000000000
000000000000000000
000000000000000000
000000000000000000
0000001FFE00000000
000001FFFFE0000000
00000FFFFFFC000000
00003FFFFFFF000000
0000FFFFFFFFC00000
0003FFFFFFFFE00000
0007FFFFFFFFF80000
000FFFFFFFFFFC0000
001FFFC000FFFE0000
003FFE00003FFF0000
007FF800000FFF8000
00FFE0000003FFC000
01FFC0000001FFE000
03FF80000000FFE000
03FF000000007FF000
07FE000000003FF000
07FC000000001FF800
0FFC000000000FF800
0FF8000000000FFC00
1FF80000000007FC00
1FF00000000007FE00
1FF00000000003FE00
3FE00000000003FE00
3FE00000000001FF00
3FC00000000001FF00
3FC00000000001FF00
7FC00000000000FF00
7FC00000000000FF00
7FC00000000000FF80
7F800000000000FF80
7F800000000000FF80
7F800000000000FF80
7F800000000000FF80
7F800000000000FF80
FF800000000000FF80
FF800000000000FF80
7F800000000000FF80
7F800000000000FF80
7F800000000000FF80
7F800000000000FF80
7F800000000000FF80
7FC00000000000FF80
7FC00000000000FF00
7FC00000000000FF00
7FC00000000001FF00
3FE00000000001FF00
3FE00000000001FF00
3FE00000000003FE00
1FF00000000003FE00
1FF00000000003FE00
1FF80000000007FC00
0FF8000000000FFC00
0FFC000000000FF800
07FC000000001FF800
07FE000000003FF000
03FF000000003FF000
03FF80000000FFE000
01FFC0000001FFC000
00FFF0000003FFC000
007FF800000FFF8000
007FFE00003FFF0000
003FFFC000FFFE0000
000FFFFFFFFFFC0000
0007FFFFFFFFF80000
0003FFFFFFFFE00000
0000FFFFFFFFC00000
00007FFFFFFF000000
00000FFFFFFC000000
000003FFFFE0000000
0000001FFE00000000
ENDCHAR
STARTCHAR 00D7
ENCODING 215
SWIDTH 589 0
DWIDTH 54 0
BBX 36 36 9 3
BITMAP
0800000300
1C00000780
3E00000FC0
7F00001FE0
FF80003FF0
7FC0007FE0
3FE000FFC0
1FF001FF80
0FF803FF00
07FC07FE00
03FE0FFC00
01FF1FF800
00FFBFF000
007FFFE000
003FFFC000
001FFF8000
000FFF0000
0007FE0000
000FFE0000
000FFF0000
001FFF8000
003FFFC000
007FFFE000
00FF9FF000
01FF0FF800
03FE07FC00
07FC03FE00
0FF801FF00
1FF000FF80
3FE0007FC0
7FC0003FE0
FF80001FF0
7F00000FE0
3E000007C0
1C00000380
0800000100
ENDCHAR
STARTCHAR 00D8
ENCODING 216
SWIDTH 774 0
DWIDTH 71 0
BBX 65 71 3 -2
BITMAP
000000000000000400
0000001FFE00000F00
000003FFFFE0001F80
00001FFFFFFC003F80
00007FFFFFFF007F00
0000FFFFFFFFC0FE00
0003FFFFFFFFE1FC00
0007FFFFFFFFF3F800
001FFFFFFFFFFFF000
003FFF8001FFFFE000
007FFE00003FFFC000
00FFF800000FFF8000
00FFE0000003FFC000
01FFC0000001FFC000
03FF80000000FFE000
03FF00000001FFF000
07FE00000003FFF000
0FFC00000007FFF800
0FF80000000FEFF800
1FF80000001FCFFC00
1FF00000001F87FC00
1FF00000003F07FC00
3FE00000007E03FE00
3FE0000000FC03FE00
3FE0000001FC03FE00
7FC0000003F801FF00
7FC0000007F001FF00
7FC000000FE001FF00
7F8000001FC001FF00
7F8000003F8000FF00
7F8000007F0000FF00
FF800000FE0000FF80
FF800000FC0000FF80
FF800001F80000FF80
FF800003F00000FF80
FF800007E00000FF80
FF80000FC00000FF80
FF80001FC00000FF80
FF80003F800000FF80
FF80007F000000FF80
FF8000FE000000FF80
7F8001FC000000FF00
7F8003F8000000FF00
7FC007F0000000FF00
7FC007E0000001FF00
7FC00FC0000001FF00
7FC01F80000001FF00
3FE03F00000003FE00
3FE07E00000003FE00
3FE0FE00000003FE00
1FF1FC00000007FC00
1FF3F800000007FC00
1FFFF00000000FFC00
0FFFE00000000FF800
0FFFC00000001FF800
07FF800000003FF000
03FF000000007FF000
03FF80000000FFE000
01FFC0000001FFC000
01FFE0000003FF8000
03FFF800000FFF8000
07FFFE00003FFF0000
0FFFFFC000FFFE0000
1FDFFFFFFFFFFC0000
3F8FFFFFFFFFF00000
7F03FFFFFFFFE00000
FE01FFFFFFFFC00000
FC007FFFFFFF000000
78001FFFFFFC000000
300003FFFFE0000000
0000003FFC00000000
ENDCHAR
STARTCHAR 00D9
ENCODING 217
SWIDTH 720 0
DWIDTH 66 0
BBX 51 88 8 -2
BITMAP
0007FE00000000
0003FF00000000
0001FF00000000
0000FF80000000
00007FC0000000
00003FC0000000
00001FE0000000
00000FF0000000
000007F0000000
000003F8000000
000001FC000000
000000FC000000
0000007E000000
00000000000000
00000000000000
00000000000000
00000000000000
00000000000000
00000000000000
FF000000001FE0
FF000000001FE0
FF000000001FE0
FF000000001FE0
FF000000001FE0
FF000000001FE0
FF000000001FE0
FF000000001FE0
FF000000001FE0
FF000000001FE0
FF000000001FE0
FF000000001FE0
FF000000001FE0
FF000000001FE0
FF000000001FE0
FF000000001FE0
FF000000001FE0
FF000000001FE0
FF000000001FE0
FF000000001FE0
FF000000001FE0
FF000000001FE0
FF000000001FE0
FF000000001FE0
FF000000001FE0
FF000000001FE0
FF000000001FE0
FF000000001FE0
FF000000001FE0
FF000000001FE0
FF000000001FE0
FF000000001FE0
FF000000001FE0
FF000000001FE0
FF000000001FE0
FF000000001FE0
FF000000001FE0
FF000000001FE0
FF000000001FE0
FF000000001FE0
FF000000001FE0
FF000000001FE0
FF000000001FE0
FF000000001FE0
FF000000001FE0
FF000000001FE0
FF000000001FE0
FF000000001FE0
FF000000001FE0
FF800000003FE0
FF800000003FE0
FF800000003FE0
FF800000003FE0
7FC00000007FC0
7FC00000007FC0
7FE0000000FFC0
3FF0000001FF80
3FF8000003FF80
1FFC000007FF00
0FFF00001FFE00
0FFFC0007FFE00
07FFFFFFFFFC00
03FFFFFFFFF800
01FFFFFFFFF000
007FFFFFFFC000
003FFFFFFF8000
000FFFFFFE0000
0001FFFFF00000
00001FFF000000
ENDCHAR
STARTCHAR 00DA
ENCODING 218
SWIDTH 720 0
DWIDTH 66 0
BBX 51 88 8 -2
BITMAP
0000001FF80000
0000003FF00000
0000003FE00000
0000007FC00000
000000FF800000
000000FF000000
000001FE000000
000003FC000000
000003F8000000
000007F0000000
000007E0000000
00000FC0000000
00001F80000000
00000000000000
00000000000000
00000000000000
00000000000000
00000000000000
00000000000000
FF000000003FE0
FF000000003FE0
FF000000003FE0
FF000000003FE0
FF000000003FE0
FF000000003FE0
FF000000003FE0
FF000000003FE0
FF000000001FE0
FF000000001FE0
FF000000001FE0
FF000000001FE0
FF000000001FE0
FF000000001FE0
FF000000001FE0
FF000000001FE0
FF000000001FE0
FF000000001FE0
FF000000001FE0
FF000000001FE0
FF000000001FE0
FF000000001FE0
FF000000001FE0
FF000000001FE0
FF000000001FE0
FF000000001FE0
FF000000001FE0
FF000000001FE0
FF000000001FE0
FF000000001FE0
FF000000001FE0
FF000000001FE0
FF000000001FE0
FF000000001FE0
FF000000001FE0
FF000000001FE0
FF000000001FE0
FF000000001FE0
FF000000001FE0
FF000000001FE0
FF000000001FE0
FF000000001FE0
FF000000001FE0
FF000000001FE0
FF000000001FE0
FF000000001FE0
FF000000001FE0
FF000000001FE0
FF000000001FE0
FF800000003FE0
FF800000003FE0
FF800000003FE0
FF800000003FE0
7FC00000007FC0
7FC00000007FC0
7FE0000000FFC0
3FF0000001FF80
3FF8000003FF80
1FFC000007FF00
0FFF00001FFE00
0FFFC0007FFE00
07FFFFFFFFFC00
03FFFFFFFFF800
01FFFFFFFFE000
007FFFFFFFC000
003FFFFFFF0000
000FFFFFFC0000
0001FFFFF00000
00001FFF000000
ENDCHAR
STARTCHAR 00DB
ENCODING 219
SWIDTH 720 0
DWIDTH 66 0
BBX 51 88 8 -2
BITMAP
000007FC000000
00000FFE000000
00001FFF000000
00001FFF000000
00003FFF800000
00007FBFC00000
00007F1FC00000
0000FE0FE00000
0001FC07E00000
0001F807F00000
0003F803F80000
0003F001F80000
0007E000FC0000
00000000000000
00000000000000
00000000000000
00000000000000
00000000000000
00000000000000
FF000000001FE0
FF000000001FE0
FF000000001FE0
FF000000001FE0
FF000000001FE0
FF000000001FE0
FF000000001FE0
FF000000001FE0
FF000000001FE0
FF000000001FE0
FF000000001FE0
FF000000001FE0
FF000000001FE0
FF000000001FE0
FF000000001FE0
FF000000001FE0
FF000000001FE0
FF000000001FE0
FF000000001FE0
FF000000001FE0
FF000000001FE0
FF000000001FE0
FF000000001FE0
FF000000001FE0
FF000000001FE0
FF000000001FE0
FF000000001FE0
FF000000001FE0
FF000000001FE0
FF000000001FE0
FF000000001FE0
FF000000001FE0
FF000000001FE0
FF000000001FE0
FF000000001FE0
FF000000001FE0
FF000000001FE0
FF000000001FE0
FF000000001FE0
FF000000001FE0
FF000000001FE0
FF000000001FE0
FF000000001FE0
FF000000001FE0
FF000000001FE0
FF000000001FE0
FF000000001FE0
FF000000001FE0
FF000000001FE0
FF800000003FE0
FF800000003FE0
FF800000003FE0
FF800000003FE0
7FC00000007FC0
7FC00000007FC0
7FE0000000FFC0
3FF0000001FF80
3FF8000003FF80
1FFC000007FF00
0FFF00001FFE00
0FFFC0007FFE00
07FFFFFFFFFC00
03FFFFFFFFF800
01FFFFFFFFF000
007FFFFFFFC000
003FFFFFFF8000
000FFFFFFE0000
0001FFFFF00000
00001FFF000000
ENDCHAR
STARTCHAR 00DC
ENCODING 220
SWIDTH 720 0
DWIDTH 66 0
BBX 51 86 8 -2
BITMAP
0007FE0FFC0000
0007FE0FFC0000
0007FE0FFC0000
0007FE0FFC0000
0007FE0FFC0000
0007FE0FFC0000
0007FE0FFC0000
0007FE0FFC0000
0007FE0FFC0000
00000000000000
00000000000000
00000000000000
00000000000000
00000000000000
00000000000000
00000000000000
00000000000000
FF000000001FE0
FF000000001FE0
FF000000001FE0
FF000000001FE0
FF000000001FE0
FF000000001FE0
FF000000001FE0
FF000000001FE0
FF000000001FE0
FF000000001FE0
FF000000001FE0
FF000000001FE0
FF000000001FE0
FF000000001FE0
FF000000001FE0
FF000000001FE0
FF000000001FE0
FF000000001FE0
FF000000001FE0
FF000000001FE0
FF000000001FE0
FF000000001FE0
FF000000001FE0
FF000000001FE0
FF000000001FE0
FF000000001FE0
FF000000001FE0
FF000000001FE0
FF000000001FE0
FF000000001FE0
FF000000001FE0
FF000000001FE0
FF000000001FE0
FF000000001FE0
FF000000001FE0
FF000000001FE0
FF000000001FE0
FF000000001FE0
FF000000001FE0
FF000000001FE0
FF000000001FE0
FF000000001FE0
FF000000001FE0
FF000000001FE0
FF000000001FE0
FF000000001FE0
FF000000001FE0
FF000000001FE0
FF000000001FE0
FF800000003FE0
FF800000003FE0
FF800000003FE0
FF800000003FE0
7FC00000007FC0
7FC00000007FC0
7FE0000000FFC0
3FF0000001FF80
3FF8000003FF80
1FFC000007FF00
0FFF00001FFE00
0FFFC0007FFE00
07FFFFFFFFFC00
03FFFFFFFFF800
01FFFFFFFFF000
007FFFFFFFC000
003FFFFFFF8000
000FFFFFFE0000
0001FFFFF00000
00001FFF000000
ENDCHAR
STARTCHAR 00DD
ENCODING 221
SWIDTH 665 0
DWIDTH 61 0
BBX 59 86 1 0
BITMAP
00000000FFC00000
00000001FF800000
00000001FF000000
00000003FE000000
00000007FC000000
00000007F8000000
0000000FF0000000
0000001FE0000000
0000001FC0000000
0000003F80000000
0000007F00000000
0000007E00000000
000000FC00000000
0000000000000000
0000000000000000
0000000000000000
0000000000000000
0000000000000000
0000000000000000
FFE0000000007FE0
7FF000000000FFE0
3FF000000000FFC0
3FF800000001FF80
1FF800000001FF80
0FFC00000003FF00
0FFE00000003FE00
07FE00000007FE00
03FF0000000FFC00
03FF0000000FFC00
01FF8000001FF800
01FFC000001FF000
00FFC000003FF000
007FE000007FE000
007FE000007FE000
003FF00000FFC000
001FF80000FF8000
001FF80001FF8000
000FFC0001FF0000
000FFC0003FE0000
0007FE0007FE0000
0003FF0007FC0000
0003FF000FFC0000
0001FF800FF80000
0000FF801FF00000
0000FFC03FF00000
00007FE03FE00000
00003FE07FE00000
00003FF07FC00000
00001FF0FF800000
00001FF9FF800000
00000FFDFF000000
000007FFFE000000
000007FFFE000000
000003FFFC000000
000001FFFC000000
000001FFF8000000
000000FFF0000000
000000FFF0000000
0000007FE0000000
0000003FE0000000
0000003FC0000000
0000003FC0000000
0000003FC0000000
0000003FC0000000
0000003FC0000000
0000003FC0000000
0000003FC0000000
0000003FC0000000
0000003FC0000000
0000003FC0000000
0000003FC0000000
0000003FC0000000
0000003FC0000000
0000003FC0000000
0000003FC0000000
0000003FC0000000
0000003FC0000000
0000003FC0000000
0000003FC0000000
0000003FC0000000
0000003FC0000000
0000003FC0000000
0000003FC0000000
0000003FC0000000
0000003FC0000000
0000003FC0000000
ENDCHAR
STARTCHAR 00DE
ENCODING 222
SWIDTH 665 0
DWIDTH 61 0
BBX 48 67 8 0
BITMAP
FF8000000000
FF8000000000
FF8000000000
FF8000000000
FF8000000000
FF8000000000
FF8000000000
FF8000000000
FF8000000000
FF8000000000
FF8000000000
FFFFFFFF8000
FFFFFFFFF800
FFFFFFFFFE00
FFFFFFFFFF80
FFFFFFFFFFC0
FFFFFFFFFFE0
FFFFFFFFFFF0
FFFFFFFFFFF8
FF800000FFFC
FF8000003FFC
FF8000000FFE
FF80000007FE
FF80000007FF
FF80000003FF
FF80000003FF
FF80000001FF
FF80000001FF
FF80000001FF
FF80000001FF
FF80000001FF
FF80000001FF
FF80000001FF
FF80000001FF
FF80000001FF
FF80000003FF
FF80000003FF
FF80000007FE
FF8000000FFE
FF8000001FFE
FF8000003FFC
FF800001FFF8
FFFFFFFFFFF8
FFFFFFFFFFF0
FFFFFFFFFFE0
FFFFFFFFFFC0
FFFFFFFFFF00
FFFFFFFFFE00
FFFFFFFFF000
FFFFFFFC0000
FF8000000000
FF8000000000
FF8000000000
FF8000000000
FF8000000000
FF8000000000
FF8000000000
FF8000000000
FF8000000000
FF8000000000
FF8000000000
FF8000000000
FF8000000000
FF8000000000
FF8000000000
FF8000000000
FF8000000000
ENDCHAR
STARTCHAR 00DF
ENCODING 223
SWIDTH 610 0
DWIDTH 56 0
BBX 45 69 6 -2
BITMAP
0000FFE00000
000FFFFE0000
003FFFFF8000
00FFFFFFE000
03FFFFFFF000
07FFFFFFF800
0FFFFFFFFC00
1FFF80FFFE00
1FFC000FFE00
3FF00007FF00
3FE00001FF00
7FC00000FF80
7F800000FF80
7F8000007F80
7F0000007FC0
FF0000003FC0
FF0000003FC0
FF0000003FC0
FF0000003FC0
FF0000007F80
FF0000007F80
FF0000007F80
FF000000FF80
FF000001FF00
FF000003FE00
FF00000FFC00
FF00003FF800
FF001FFFF000
FF001FFFC000
FF001FFF0000
FF001FFE0000
FF001FFFC000
FF001FFFF000
FF001FFFFC00
FF001FFFFE00
FF00001FFF00
FF000003FF80
FF000000FFC0
FF0000007FE0
FF0000003FE0
FF0000001FF0
FF0000000FF0
FF0000000FF0
FF0000000FF8
FF00000007F8
FF00000007F8
FF00000007F8
FF00000007F8
FF00000007F8
FF00000007F8
FF00000007F8
FF0000000FF8
FF0000000FF0
FF0000000FF0
FF0000001FF0
FF0000001FF0
FF0000003FE0
FF0000007FE0
FF000000FFC0
FF000003FFC0
FF00000FFF80
FF003FFFFF00
FF003FFFFE00
FF003FFFFC00
FF003FFFF800
FF003FFFF000
FF003FFFC000
00003FFE0000
00003FF00000
ENDCHAR
STARTCHAR 00E0
ENCODING 224
SWIDTH 556 0
DWIDTH 51 0
BBX 45 70 4 -2
BITMAP
007FE0000000
003FF0000000
001FF0000000
000FF8000000
0007FC000000
0003FC000000
0001FE000000
0000FF000000
00007F000000
00003F800000
00001FC00000
00000FC00000
000007E00000
000003E00000
000000000000
000000000000
000000000000
000000000000
000000000000
0000FFF00000
000FFFFE0000
007FFFFF8000
00FFFFFFE000
03FFFFFFF000
07FFFFFFF800
07FFFFFFFC00
0FFF807FFC00
1FFC000FFE00
1FF00003FE00
1FE00001FE00
3FE00001FE00
3FC00001FE00
3FC00000FE00
3FC00000FE00
00000000FE00
00000000FE00
00000000FE00
00000001FE00
00000003FE00
0000000FFE00
000001FFFE00
0001FFFFFE00
003FFFFFFE00
00FFFFFFFE00
03FFFFFEFE00
0FFFFFF8FE00
1FFFFE00FE00
3FFF8000FE00
3FF80000FE00
7FE00000FE00
7FC00000FE00
FF800000FE00
FF000000FE00
FF000000FE00
FF000000FE00
FF000001FE00
FF000001FE00
FF000003FE00
FF000007FE00
FF80000FFE00
7FC0001FFE00
7FE0007FFF00
7FF801FFFF00
3FFFFFFEFFE8
1FFFFFFCFFF8
1FFFFFF8FFF8
0FFFFFE07FF8
03FFFFC07FF8
00FFFF003FF8
001FF0000FF0
ENDCHAR
STARTCHAR 00E1
ENCODING 225
SWIDTH 556 0
DWIDTH 51 0
BBX 45 70 4 -2
BITMAP
000000FFC000
000001FF8000
000003FF0000
000003FE0000
000007FC0000
00000FF80000
00000FF00000
00001FE00000
00003FC00000
00003F800000
00007F000000
00007E000000
0000FC000000
0001F8000000
000000000000
000000000000
000000000000
000000000000
000000000000
0000FFF00000
000FFFFE0000
007FFFFF8000
00FFFFFFE000
03FFFFFFF000
07FFFFFFF800
07FFFFFFFC00
0FFF807FFC00
1FFC000FFE00
1FF00003FE00
1FE00001FE00
3FE00001FE00
3FC00001FE00
3FC00000FE00
3FC00000FE00
00000000FE00
00000000FE00
00000000FE00
00000001FE00
00000003FE00
0000000FFE00
000001FFFE00
0001FFFFFE00
003FFFFFFE00
00FFFFFFFE00
03FFFFFEFE00
0FFFFFF8FE00
1FFFFE00FE00
3FFF8000FE00
3FF80000FE00
7FE00000FE00
7FC00000FE00
FF800000FE00
FF000000FE00
FF000000FE00
FF000000FE00
FF000001FE00
FF000001FE00
FF000003FE00
FF000007FE00
FF80000FFE00
7FC0001FFE00
7FE0007FFF00
7FF801FFFF00
3FFFFFFEFFE8
1FFFFFFCFFF8
1FFFFFF8FFF8
0FFFFFE07FF8
03FFFFC07FF8
00FFFF003FF8
001FF0000FF0
ENDCHAR
STARTCHAR 00E2
ENCODING 226
SWIDTH 556 0
DWIDTH 51 0
BBX 45 70 4 -2
BITMAP
00007FC00000
0000FFC00000
0001FFE00000
0001FFF00000
0003FFF00000
0007FBF80000
0007F3FC0000
000FE1FC0000
000FC0FE0000
001FC07F0000
003F803F0000
003F003F8000
007E001F8000
00FC000FC000
000000000000
000000000000
000000000000
000000000000
000000000000
0000FFF00000
000FFFFE0000
007FFFFF8000
00FFFFFFE000
03FFFFFFF000
07FFFFFFF800
07FFFFFFFC00
0FFF807FFC00
1FFC000FFE00
1FF00003FE00
1FE00001FE00
3FE00001FE00
3FC00001FE00
3FC00000FE00
3FC00000FE00
00000000FE00
00000000FE00
00000000FE00
00000001FE00
00000003FE00
0000000FFE00
000001FFFE00
0001FFFFFE00
003FFFFFFE00
00FFFFFFFE00
03FFFFFEFE00
0FFFFFF8FE00
1FFFFE00FE00
3FFF8000FE00
3FF80000FE00
7FE00000FE00
7FC00000FE00
FF800000FE00
FF000000FE00
FF000000FE00
FF000000FE00
FF000001FE00
FF000001FE00
FF000003FE00
FF000007FE00
FF80000FFE00
7FC0001FFE00
7FE0007FFF00
7FF801FFFF00
3FFFFFFEFFE8
1FFFFFFCFFF8
1FFFFFF8FFF8
0FFFFFE07FF8
03FFFFC07FF8
00FFFF003FF8
001FF0000FF0
ENDCHAR
STARTCHAR 00E3
ENCODING 227
SWIDTH 556 0
DWIDTH 51 0
BBX 45 68 4 -2
BITMAP
000FC003F000
001FF803E000
003FFF07E000
007FFFFFE000
00FFFFFFC000
00FFFFFFC000
00FC7FFF8000
01F80FFF0000
01F001FE0000
000000000000
000000000000
000000000000
000000000000
000000000000
000000000000
000000000000
000000000000
0000FFF00000
000FFFFE0000
007FFFFF8000
00FFFFFFE000
03FFFFFFF000
07FFFFFFF800
07FFFFFFFC00
0FFF807FFC00
1FFC000FFE00
1FF00003FE00
1FE00001FE00
3FE00001FE00
3FC00001FE00
3FC00000FE00
3FC00000FE00
00000000FE00
00000000FE00
00000000FE00
00000001FE00
00000003FE00
0000000FFE00
000001FFFE00
0001FFFFFE00
003FFFFFFE00
00FFFFFFFE00
03FFFFFEFE00
0FFFFFF8FE00
1FFFFE00FE00
3FFF8000FE00
3FF80000FE00
7FE00000FE00
7FC00000FE00
FF800000FE00
FF000000FE00
FF000000FE00
FF000000FE00
FF000001FE00
FF000001FE00
FF000003FE00
FF000007FE00
FF80000FFE00
7FC0001FFE00
7FE0007FFF00
7FF801FFFF00
3FFFFFFEFFE8
1FFFFFFCFFF8
1FFFFFF8FFF8
0FFFFFE07FF8
03FFFFC07FF8
00FFFF003FF8
001FF0000FF0
ENDCHAR
STARTCHAR 00E4
ENCODING 228
SWIDTH 556 0
DWIDTH 51 0
BBX 45 68 4 -2
BITMAP
007FC0FF8000
007FC0FF8000
007FC0FF8000
007FC0FF8000
007FC0FF8000
007FC0FF8000
007FC0FF8000
007FC0FF8000
007FC0FF8000
000000000000
000000000000
000000000000
000000000000
000000000000
000000000000
000000000000
000000000000
0000FFF00000
000FFFFE0000
007FFFFF8000
00FFFFFFE000
03FFFFFFF000
07FFFFFFF800
07FFFFFFFC00
0FFF807FFC00
1FFC000FFE00
1FF00003FE00
1FE00001FE00
3FE00001FE00
3FC00001FE00
3FC00000FE00
3FC00000FE00
00000000FE00
00000000FE00
00000000FE00
00000001FE00
00000003FE00
0000000FFE00
000001FFFE00
0001FFFFFE00
003FFFFFFE00
00FFFFFFFE00
03FFFFFEFE00
0FFFFFF8FE00
1FFFFE00FE00
3FFF8000FE00
3FF80000FE00
7FE00000FE00
7FC00000FE00
FF800000FE00
FF000000FE00
FF000000FE00
FF000000FE00
FF000001FE00
FF000001FE00
FF000003FE00
FF000007FE00
FF80000FFE00
7FC0001FFE00
7FE0007FFF00
7FF801FFFF00
3FFFFFFEFFE8
1FFFFFFCFFF8
1FFFFFF8FFF8
0FFFFFE07FF8
03FFFFC07FF8
00FFFF003FF8
001FF0000FF0
ENDCHAR
STARTCHAR 00E5
ENCODING 229
SWIDTH 556 0
DWIDTH 51 0
BBX 45 71 4 -2
BITMAP
00001F000000
00007FC00000
0001FFE00000
0001FFF00000
0003E1F80000
0003C0F80000
0007C0780000
000780780000
000780780000
0007C0780000
0003C0F80000
0003E1F00000
0003FFF00000
0001FFE00000
0000FFC00000
00003F000000
000000000000
000000000000
000000000000
000000000000
0000FFF00000
000FFFFE0000
007FFFFF8000
00FFFFFFE000
03FFFFFFF000
07FFFFFFF800
07FFFFFFFC00
0FFF807FFC00
1FFC000FFE00
1FF00003FE00
1FE00001FE00
3FE00001FE00
3FC00001FE00
3FC00000FE00
3FC00000FE00
00000000FE00
00000000FE00
00000000FE00
00000001FE00
00000003FE00
0000000FFE00
000001FFFE00
0001FFFFFE00
003FFFFFFE00
00FFFFFFFE00
03FFFFFEFE00
0FFFFFF8FE00
1FFFFE00FE00
3FFF8000FE00
3FF80000FE00
7FE00000FE00
7FC00000FE00
FF800000FE00
FF000000FE00
FF000000FE00
FF000000FE00
FF000001FE00
FF000001FE00
FF000003FE00
FF000007FE00
FF80000FFE00
7FC0001FFE00
7FE0007FFF00
7FF801FFFF00
3FFFFFFEFFE8
1FFFFFFCFFF8
1FFFFFF8FFF8
0FFFFFE07FF8
03FFFFC07FF8
00FFFF003FF8
001FF0000FF0
ENDCHAR
STARTCHAR 00E6
ENCODING 230
SWIDTH 894 0
DWIDTH 82 0
BBX 74 51 3 -2
BITMAP
0000FFE000007FC00000
000FFFFC0007FFFC0000
003FFFFF001FFFFF0000
00FFFFFFC03FFFFF8000
01FFFFFFE0FFFFFFE000
03FFFFFFF1FFFFFFF000
07FFFFFFFBFFFFFFF800
0FFF807FFFFF80FFFC00
0FFC000FFFFE001FFC00
1FF80003FFF80007FE00
1FF00001FFF00003FF00
1FE00001FFE00001FF00
1FE00000FFC00000FF00
3FC00000FFC00000FF80
3FC00000FF8000007F80
3FC00000FF8000007F80
00000000FF0000007FC0
00000000FF0000003FC0
00000000FF0000003FC0
00000001FF0000003FC0
00000003FE0000003FC0
0000003FFE0000003FC0
00007FFFFFFFFFFFFFC0
000FFFFFFFFFFFFFFFC0
007FFFFFFFFFFFFFFFC0
01FFFFFFFFFFFFFFFFC0
07FFFFFCFFFFFFFFFFC0
0FFFFFC0FFFFFFFFFFC0
1FFFE000FE0000000000
3FFE0000FE0000000000
3FF00000FE0000000000
7FC00000FE0000000000
7F800000FF0000000000
7F800000FF0000000000
FF000000FF00000003C0
FF000000FF0000003F80
FF000000FF8000007F80
FF000001FF8000007F80
FF000003FFC00000FF00
FF800007FFE00001FF00
FF80000FFFF00003FE00
7FC0001FEFF80007FE00
7FE0007FCFFE000FFC00
3FF801FF87FFC07FFC00
3FFFFFFF03FFFFFFF800
1FFFFFFC03FFFFFFF000
0FFFFFF800FFFFFFE000
07FFFFF0007FFFFF8000
03FFFFC0003FFFFF0000
00FFFF000007FFFC0000
001FF0000000FFC00000
ENDCHAR
STARTCHAR 00E7
ENCODING 231
SWIDTH 501 0
DWIDTH 46 0
BBX 41 69 3 -20
BITMAP
0000FFC00000
0007FFFC0000
001FFFFF0000
003FFFFF8000
00FFFFFFE000
01FFFFFFF000
03FFFFFFF800
07FFC07FF800
07FE001FFC00
0FFC0007FC00
1FF80003FE00
1FF00003FE00
3FE00001FE00
3FC00001FF00
3FC00000FF00
7FC00000FF00
7F800000FF00
7F8000000000
7F8000000000
FF0000000000
FF0000000000
FF0000000000
FF0000000000
FF0000000000
FF0000000000
FF0000000000
FF0000000000
FF0000000000
FF0000000000
FF0000000000
FF0000000000
FF0000000000
FF8000000000
7F8000007F80
7F8000007F80
7F800000FF00
7FC00000FF00
3FC00000FF00
3FE00001FF00
1FF00001FE00
1FF80003FE00
0FFC0007FC00
0FFE001FFC00
07FFC07FF800
03FFFFFFF000
01FFFFFFE000
00FFFFFFC000
007FFFFF8000
001FFFFE0000
0007FFF80000
0000FFC00000
000078000000
000078000000
0000F0000000
0000FFE00000
0000FFF00000
0001FFF80000
000187F80000
000003FC0000
000001FC0000
000001FC0000
000001FC0000
004001F80000
00F003F80000
00FE0FF80000
01FFFFF00000
007FFFE00000
001FFF800000
0001FC000000
ENDCHAR
STARTCHAR 00E8
ENCODING 232
SWIDTH 556 0
DWIDTH 51 0
BBX 43 70 4 -2
BITMAP
007FE0000000
003FF0000000
001FF8000000
000FF8000000
0007FC000000
0003FE000000
0001FE000000
0000FF000000
00007F000000
00003F800000
00001FC00000
00000FC00000
000007E00000
000003F00000
000000000000
000000000000
000000000000
000000000000
000000000000
00007FE00000
0003FFFC0000
001FFFFF0000
003FFFFFC000
00FFFFFFE000
01FFFFFFF000
03FFFFFFF800
07FFC07FFC00
07FE000FFE00
0FFC0007FF00
1FF80003FF00
1FF00001FF80
3FE00000FF80
3FC000007F80
3FC000007FC0
7F8000003FC0
7F8000003FC0
7F8000003FC0
FF0000003FE0
FF0000001FE0
FF0000001FE0
FF0000001FE0
FFFFFFFFFFE0
FFFFFFFFFFE0
FFFFFFFFFFE0
FFFFFFFFFFE0
FFFFFFFFFFE0
FFFFFFFFFFE0
FF0000000000
FF0000000000
FF0000000000
FF0000000000
FF0000000000
FF0000000000
7F8000000000
7F8000003FC0
7F8000003FC0
3FC000007F80
3FE00000FF80
3FE00000FF80
1FF00001FF00
1FFC0003FF00
0FFE000FFE00
07FFC07FFC00
03FFFFFFF800
01FFFFFFF000
00FFFFFFE000
007FFFFFC000
001FFFFF0000
0007FFFC0000
0000FFE00000
ENDCHAR
STARTCHAR 00E9
ENCODING 233
SWIDTH 556 0
DWIDTH 51 0
BBX 43 70 4 -2
BITMAP
000000FFC000
000001FF8000
000001FF0000
000003FE0000
000007FC0000
000007F80000
00000FF00000
00000FE00000
00001FC00000
00003F800000
00003F000000
00007E000000
0000FC000000
0000F8000000
000000000000
000000000000
000000000000
000000000000
000000000000
00007FE00000
0003FFFC0000
001FFFFF0000
003FFFFFC000
00FFFFFFE000
01FFFFFFF000
03FFFFFFF800
07FFC07FFC00
07FE000FFE00
0FFC0007FF00
1FF80003FF00
1FF00001FF80
3FE00000FF80
3FC000007F80
3FC000007FC0
7F8000003FC0
7F8000003FC0
7F8000003FC0
FF0000003FE0
FF0000001FE0
FF0000001FE0
FF0000001FE0
FFFFFFFFFFE0
FFFFFFFFFFE0
FFFFFFFFFFE0
FFFFFFFFFFE0
FFFFFFFFFFE0
FFFFFFFFFFE0
FF0000000000
FF0000000000
FF0000000000
FF0000000000
FF0000000000
FF0000000000
7F8000000000
7F8000003FC0
7F8000003FC0
3FC000007F80
3FE00000FF80
3FE00000FF80
1FF00001FF00
1FFC0003FF00
0FFE000FFE00
07FFC07FFC00
03FFFFFFF800
01FFFFFFF000
00FFFFFFE000
007FFFFFC000
001FFFFF0000
0007FFFC0000
0000FFE00000
ENDCHAR
STARTCHAR 00EA
ENCODING 234
SWIDTH 556 0
DWIDTH 51 0
BBX 43 70 4 -2
BITMAP
00003FE00000
00007FF00000
0000FFF00000
0000FFF80000
0001FFF80000
0003FDFC0000
0003F9FE0000
0007F0FE0000
0007E07F0000
000FE03F8000
001FC01F8000
001F801FC000
003F000FC000
007E0007E000
000000000000
000000000000
000000000000
000000000000
000000000000
00007FE00000
0003FFFC0000
001FFFFF0000
003FFFFFC000
00FFFFFFE000
01FFFFFFF000
03FFFFFFF800
07FFC07FFC00
07FE000FFE00
0FFC0007FF00
1FF80003FF00
1FF00001FF80
3FE00000FF80
3FC000007F80
3FC000007FC0
7F8000003FC0
7F8000003FC0
7F8000003FC0
FF0000003FE0
FF0000001FE0
FF0000001FE0
FF0000001FE0
FFFFFFFFFFE0
FFFFFFFFFFE0
FFFFFFFFFFE0
FFFFFFFFFFE0
FFFFFFFFFFE0
FFFFFFFFFFE0
FF0000000000
FF0000000000
FF0000000000
FF0000000000
FF0000000000
FF0000000000
7F8000000000
7F8000003FC0
7F8000003FC0
3FC000007F80
3FE00000FF80
3FE00000FF80
1FF00001FF00
1FFC0003FF00
0FFE000FFE00
07FFC07FFC00
03FFFFFFF800
01FFFFFFF000
00FFFFFFE000
007FFFFFC000
001FFFFF0000
0007FFFC0000
0000FFE00000
ENDCHAR
STARTCHAR 00EB
ENCODING 235
SWIDTH 556 0
DWIDTH 51 0
BBX 43 68 4 -2
BITMAP
003FF07FC000
003FF07FC000
003FF07FC000
003FF07FC000
003FF07FC000
003FF07FC000
003FF07FC000
003FF07FC000
003FF07FC000
000000000000
000000000000
000000000000
000000000000
000000000000
000000000000
000000000000
000000000000
00007FE00000
0003FFFC0000
001FFFFF0000
003FFFFFC000
00FFFFFFE000
01FFFFFFF000
03FFFFFFF800
07FFC07FFC00
07FE000FFE00
0FFC0007FF00
1FF80003FF00
1FF00001FF80
3FE00000FF80
3FC000007F80
3FC000007FC0
7F8000003FC0
7F8000003FC0
7F8000003FC0
FF0000003FE0
FF0000001FE0
FF0000001FE0
FF0000001FE0
FFFFFFFFFFE0
FFFFFFFFFFE0
FFFFFFFFFFE0
FFFFFFFFFFE0
FFFFFFFFFFE0
FFFFFFFFFFE0
FF0000000000
FF0000000000
FF0000000000
FF0000000000
FF0000000000
FF0000000000
7F8000000000
7F8000003FC0
7F8000003FC0
3FC000007F80
3FE00000FF80
3FE00000FF80
1FF00001FF00
1FFC0003FF00
0FFE000FFE00
07FFC07FFC00
03FFFFFFF800
01FFFFFFF000
00FFFFFFE000
007FFFFFC000
001FFFFF0000
0007FFFC0000
0000FFE00000
ENDCHAR
STARTCHAR 00EC
ENCODING 236
SWIDTH 272 0
DWIDTH 25 0
BBX 19 68 0 0
BITMAP
FFC000
7FE000
3FF000
1FF000
0FF800
07F800
03FC00
01FE00
00FE00
007F00
003F80
001F80
000FC0
0007E0
000000
000000
000000
000000
000000
000000
007F00
007F00
007F00
007F00
007F00
007F00
007F00
007F00
007F00
007F00
007F00
007F00
007F00
007F00
007F00
007F00
007F00
007F00
007F00
007F00
007F00
007F00
007F00
007F00
007F00
007F00
007F00
007F00
007F00
007F00
007F00
007F00
007F00
007F00
007F00
007F00
007F00
007F00
007F00
007F00
007F00
007F00
007F00
007F00
007F00
007F00
007F00
007F00
ENDCHAR
STARTCHAR 00ED
ENCODING 237
SWIDTH 272 0
DWIDTH 25 0
BBX 19 68 6 0
BITMAP
00FFE0
00FFC0
01FF80
03FF00
03FE00
07FC00
07F800
0FF000
1FE000
1FC000
3F8000
7F0000
7E0000
FC0000
000000
000000
000000
000000
000000
000000
1FC000
1FC000
1FC000
1FC000
1FC000
1FC000
1FC000
1FC000
1FC000
1FC000
1FC000
1FC000
1FC000
1FC000
1FC000
1FC000
1FC000
1FC000
1FC000
1FC000
1FC000
1FC000
1FC000
1FC000
1FC000
1FC000
1FC000
1FC000
1FC000
1FC000
1FC000
1FC000
1FC000
1FC000
1FC000
1FC000
1FC000
1FC000
1FC000
1FC000
1FC000
1FC000
1FC000
1FC000
1FC000
1FC000
1FC000
1FC000
ENDCHAR
STARTCHAR 00EE
ENCODING 238
SWIDTH 272 0
DWIDTH 25 0
BBX 25 68 0 0
BITMAP
00FF8000
01FFC000
01FFC000
03FFE000
07FFF000
07F7F000
0FE3F800
1FC1FC00
1FC1FC00
3F80FE00
7F007F00
7E003F00
FC001F80
F8000F80
00000000
00000000
00000000
00000000
00000000
00000000
007F0000
007F0000
007F0000
007F0000
007F0000
007F0000
007F0000
007F0000
007F0000
007F0000
007F0000
007F0000
007F0000
007F0000
007F0000
007F0000
007F0000
007F0000
007F0000
007F0000
007F0000
007F0000
007F0000
007F0000
007F0000
007F0000
007F0000
007F0000
007F0000
007F0000
007F0000
007F0000
007F0000
007F0000
007F0000
007F0000
007F0000
007F0000
007F0000
007F0000
007F0000
007F0000
007F0000
007F0000
007F0000
007F0000
007F0000
007F0000
ENDCHAR
STARTCHAR 00EF
ENCODING 239
SWIDTH 272 0
DWIDTH 25 0
BBX 25 65 0 0
BITMAP
FFC1FF80
FFC1FF80
FFC1FF80
FFC1FF80
FFC1FF80
FFC1FF80
FFC1FF80
FFC1FF80
FFC1FF80
00000000
00000000
00000000
00000000
00000000
00000000
00000000
00000000
007F0000
007F0000
007F0000
007F0000
007F0000
007F0000
007F0000
007F0000
007F0000
007F0000
007F0000
007F0000
007F0000
007F0000
007F0000
007F0000
007F0000
007F0000
007F0000
007F0000
007F0000
007F0000
007F0000
007F0000
007F0000
007F0000
007F0000
007F0000
007F0000
007F0000
007F0000
007F0000
007F0000
007F0000
007F0000
007F0000
007F0000
007F0000
007F0000
007F0000
007F0000
007F0000
007F0000
007F0000
007F0000
007F0000
007F0000
007F0000
ENDCHAR
STARTCHAR 00F0
ENCODING 240
SWIDTH 556 0
DWIDTH 51 0
BBX 44 70 3 -2
BITMAP
004000000000
00F000000000
01FC00180000
03FF007C0000
03FF83FE0000
01FFEFFE0000
007FFFF80000
001FFFE00000
000FFF800000
001FFF000000
007FFFC00000
01FFFFE00000
07FF3FF00000
03FC1FF80000
01F00FFC0000
00C007FE0000
000003FF0000
000001FF8000
000000FFC000
0000FF7FE000
0007FFFFF000
001FFFFFF000
007FFFFFF800
00FFFFFFFC00
01FFFFFFFC00
03FFFFFFFE00
07FFC03FFF00
07FF000FFF00
0FFC0003FF80
1FF80001FF80
1FF00000FF80
3FE000007FC0
3FE000007FC0
3FC000003FC0
7FC000003FE0
7FC000003FE0
7F8000001FE0
7F8000001FE0
7F8000001FE0
7F8000001FF0
FF0000000FF0
FF0000000FF0
FF0000000FF0
FF0000000FF0
FF0000000FF0
FF0000000FF0
FF0000000FF0
FF0000000FF0
7F8000000FF0
7F8000001FE0
7F8000001FE0
7F8000001FE0
7F8000001FE0
7FC000003FE0
3FC000003FE0
3FE000003FC0
3FE000007FC0
1FF00000FFC0
1FF00000FF80
1FF80001FF80
0FFC0003FF00
07FF000FFE00
07FFE03FFE00
03FFFFFFFC00
01FFFFFFF800
00FFFFFFF000
007FFFFFE000
001FFFFF8000
0007FFFE0000
00007FE00000
ENDCHAR
STARTCHAR 00F1
ENCODING 241
SWIDTH 556 0
DWIDTH 51 0
BBX 39 66 6 0
BITMAP
001F000FC0
007FF00FC0
00FFFE1F80
01FFFFFF80
01FFFFFF80
03FFFFFF00
03F0FFFF00
03E03FFE00
07E003F800
0000000000
0000000000
0000000000
0000000000
0000000000
0000000000
0000000000
0000000000
00003FF000
FE01FFFE00
FE07FFFF80
FE0FFFFFC0
FE1FFFFFF0
FE3FFFFFF0
FE7FFFFFF8
FE7F803FFC
FEFE001FFC
FFF80007FC
FFF00007FC
FFE00003FE
FFE00003FE
FFC00001FE
FFC00001FE
FF800001FE
FF800001FE
FF800001FE
FF000001FE
FF000001FE
FF000001FE
FF000001FE
FF000001FE
FF000001FE
FF000001FE
FF000001FE
FF000001FE
FF000001FE
FF000001FE
FF000001FE
FF000001FE
FF000001FE
FF000001FE
FF000001FE
FF000001FE
FF000001FE
FF000001FE
FF000001FE
FF000001FE
FF000001FE
FF000001FE
FF000001FE
FF000001FE
FF000001FE
FF000001FE
FF000001FE
FF000001FE
FF000001FE
FF000001FE
ENDCHAR
STARTCHAR 00F2
ENCODING 242
SWIDTH 556 0
DWIDTH 51 0
BBX 44 70 3 -2
BITMAP
003FF0000000
001FF0000000
000FF8000000
000FFC000000
0007FC000000
0003FE000000
0001FF000000
0000FF000000
00007F800000
00003F800000
00001FC00000
00000FE00000
000007E00000
000003F00000
000000000000
000000000000
000000000000
000000000000
000000000000
00007FE00000
0003FFFE0000
001FFFFF8000
003FFFFFE000
00FFFFFFF000
01FFFFFFF800
03FFFFFFFC00
03FFC07FFE00
07FF000FFE00
0FFC0003FF00
0FF80001FF80
1FF00000FF80
1FF00000FFC0
3FE000007FC0
3FC000003FC0
3FC000003FE0
7FC000003FE0
7F8000001FE0
7F8000001FE0
7F8000001FE0
7F8000001FE0
7F8000000FF0
FF0000000FF0
FF0000000FF0
FF0000000FF0
FF0000000FF0
FF0000000FF0
FF0000000FF0
FF0000000FF0
7F8000000FF0
7F8000001FF0
7F8000001FE0
7F8000001FE0
7F8000001FE0
7FC000003FE0
3FC000003FE0
3FC000003FC0
3FE000007FC0
1FF00000FFC0
1FF00000FF80
0FF80001FF80
0FFC0003FF00
07FF000FFE00
07FFE03FFE00
03FFFFFFFC00
01FFFFFFF800
00FFFFFFF000
003FFFFFC000
001FFFFF8000
0007FFFE0000
00007FE00000
ENDCHAR
STARTCHAR 00F3
ENCODING 243
SWIDTH 556 0
DWIDTH 51 0
BBX 44 70 3 -2
BITMAP
000000FFC000
000001FF8000
000001FF0000
000003FE0000
000007FC0000
000007F80000
00000FF00000
00000FE00000
00001FC00000
00003F800000
00003F000000
00007E000000
0000FC000000
0000F8000000
000000000000
000000000000
000000000000
000000000000
000000000000
00007FE00000
0003FFFE0000
001FFFFF8000
003FFFFFE000
00FFFFFFF000
01FFFFFFF800
03FFFFFFFC00
03FFC07FFE00
07FF000FFE00
0FFC0003FF00
0FF80001FF80
1FF00000FF80
1FF00000FFC0
3FE000007FC0
3FC000003FC0
3FC000003FE0
7FC000003FE0
7F8000001FE0
7F8000001FE0
7F8000001FE0
7F8000001FE0
7F8000000FF0
FF0000000FF0
FF0000000FF0
FF0000000FF0
FF0000000FF0
FF0000000FF0
FF0000000FF0
FF0000000FF0
7F8000000FF0
7F8000001FF0
7F8000001FE0
7F8000001FE0
7F8000001FE0
7FC000003FE0
3FC000003FE0
3FC000003FC0
3FE000007FC0
1FF00000FFC0
1FF00000FF80
0FF80001FF80
0FFC0003FF00
07FF000FFE00
07FFE03FFE00
03FFFFFFFC00
01FFFFFFF800
00FFFFFFF000
003FFFFFC000
001FFFFF8000
0007FFFE0000
00007FE00000
ENDCHAR
STARTCHAR 00F4
ENCODING 244
SWIDTH 556 0
DWIDTH 51 0
BBX 44 70 3 -2
BITMAP
00007FE00000
00007FE00000
0000FFF00000
0000FFF80000
0001FFF80000
0003FFFC0000
0003F9FC0000
0007F0FE0000
000FE07F0000
000FC03F0000
001FC03F8000
001F801FC000
003F000FC000
007E0007E000
000000000000
000000000000
000000000000
000000000000
000000000000
00007FE00000
0003FFFE0000
001FFFFF8000
003FFFFFE000
00FFFFFFF000
01FFFFFFF800
03FFFFFFFC00
03FFC07FFE00
07FF000FFE00
0FFC0003FF00
0FF80001FF80
1FF00000FF80
1FF00000FFC0
3FE000007FC0
3FC000003FC0
3FC000003FE0
7FC000003FE0
7F8000001FE0
7F8000001FE0
7F8000001FE0
7F8000001FE0
7F8000000FF0
FF0000000FF0
FF0000000FF0
FF0000000FF0
FF0000000FF0
FF0000000FF0
FF0000000FF0
FF0000000FF0
7F8000000FF0
7F8000001FF0
7F8000001FE0
7F8000001FE0
7F8000001FE0
7FC000003FE0
3FC000003FE0
3FC000003FC0
3FE000007FC0
1FF00000FFC0
1FF00000FF80
0FF80001FF80
0FFC0003FF00
07FF000FFE00
07FFE03FFE00
03FFFFFFFC00
01FFFFFFF800
00FFFFFFF000
003FFFFFC000
001FFFFF8000
0007FFFE0000
00007FE00000
ENDCHAR
STARTCHAR 00F5
ENCODING 245
SWIDTH 556 0
DWIDTH 51 0
BBX 44 68 3 -2
BITMAP
0007E001F800
000FFC01F000
001FFF83F000
003FFFFFF000
007FFFFFF000
007FFFFFE000
007E3FFFC000
00FC07FFC000
00FC00FF0000
000000000000
000000000000
000000000000
000000000000
000000000000
000000000000
000000000000
000000000000
00007FE00000
0003FFFE0000
001FFFFF8000
003FFFFFE000
00FFFFFFF000
01FFFFFFF800
03FFFFFFFC00
03FFC07FFE00
07FF000FFE00
0FFC0003FF00
0FF80001FF80
1FF00000FF80
1FF00000FFC0
3FE000007FC0
3FC000003FC0
3FC000003FE0
7FC000003FE0
7F8000001FE0
7F8000001FE0
7F8000001FE0
7F8000001FE0
7F8000000FF0
FF0000000FF0
FF0000000FF0
FF0000000FF0
FF0000000FF0
FF0000000FF0
FF0000000FF0
FF0000000FF0
7F8000000FF0
7F8000001FF0
7F8000001FE0
7F8000001FE0
7F8000001FE0
7FC000003FE0
3FC000003FE0
3FC000003FC0
3FE000007FC0
1FF00000FFC0
1FF00000FF80
0FF80001FF80
0FFC0003FF00
07FF000FFE00
07FFE03FFE00
03FFFFFFFC00
01FFFFFFF800
00FFFFFFF000
003FFFFFC000
001FFFFF8000
0007FFFE0000
00007FE00000
ENDCHAR
STARTCHAR 00F6
ENCODING 246
SWIDTH 556 0
DWIDTH 51 0
BBX 44 68 3 -2
BITMAP
003FE07FC000
003FE07FC000
003FE07FC000
003FE07FC000
003FE07FC000
003FE07FC000
003FE07FC000
003FE07FC000
003FE07FC000
000000000000
000000000000
000000000000
000000000000
000000000000
000000000000
000000000000
000000000000
00007FE00000
0003FFFE0000
001FFFFF8000
003FFFFFE000
00FFFFFFF000
01FFFFFFF800
03FFFFFFFC00
03FFC07FFE00
07FF000FFE00
0FFC0003FF00
0FF80001FF80
1FF00000FF80
1FF00000FFC0
3FE000007FC0
3FC000003FC0
3FC000003FE0
7FC000003FE0
7F8000001FE0
7F8000001FE0
7F8000001FE0
7F8000001FE0
7F8000000FF0
FF0000000FF0
FF0000000FF0
FF0000000FF0
FF0000000FF0
FF0000000FF0
FF0000000FF0
FF0000000FF0
7F8000000FF0
7F8000001FF0
7F8000001FE0
7F8000001FE0
7F8000001FE0
7FC000003FE0
3FC000003FE0
3FC000003FC0
3FE000007FC0
1FF00000FFC0
1FF00000FF80
0FF80001FF80
0FFC0003FF00
07FF000FFE00
07FFE03FFE00
03FFFFFFFC00
01FFFFFFF800
00FFFFFFF000
003FFFFFC000
001FFFFF8000
0007FFFE0000
00007FE00000
ENDCHAR
STARTCHAR 00F7
ENCODING 247
SWIDTH 589 0
DWIDTH 54 0
BBX 44 44 5 0
BITMAP
00007FE00000
00007FE00000
00007FE00000
00007FE00000
00007FE00000
00007FE00000
00007FE00000
00007FE00000
00007FE00000
00007FE00000
000000000000
000000000000
000000000000
000000000000
000000000000
000000000000
000000000000
000000000000
000000000000
FFFFFFFFFFF0
FFFFFFFFFFF0
FFFFFFFFFFF0
FFFFFFFFFFF0
FFFFFFFFFFF0
FFFFFFFFFFF0
000000000000
000000000000
000000000000
000000000000
000000000000
000000000000
000000000000
000000000000
000000000000
00007FE00000
00007FE00000
00007FE00000
00007FE00000
00007FE00000
00007FE00000
00007FE00000
00007FE00000
00007FE00000
00007FE00000
ENDCHAR
STARTCHAR 00F8
ENCODING 248
SWIDTH 610 0
DWIDTH 56 0
BBX 46 52 2 -3
BITMAP
00003FF00010
0001FFFF0038
000FFFFFC07C
001FFFFFE0FC
007FFFFFF8F8
00FFFFFFFDF0
01FFFFFFFFE0
03FFE03FFFC0
03FF8007FF80
07FE0001FF80
07FC0000FFC0
0FF800007FC0
0FF80000FFE0
1FF00000FFE0
1FE00001FFE0
1FE00003FFF0
3FE00007CFF0
3FC0000F8FF0
3FC0001F0FF0
3FC0003E0FF0
3FC0007C0FF8
3FC000FC07F8
7F8001F807F8
7F8001F007F8
7F8003E007F8
7F8007C007F8
7F800F8007F8
7F801F0007F8
7F803E0007F8
7FC07C0007F8
3FC0F8000FF0
3FC1F8000FF0
3FC3F0000FF0
3FC3E0000FF0
3FE7C0001FF0
1FEF80001FF0
1FFF00001FE0
1FFE00003FE0
0FFC00003FC0
0FF800007FC0
07FC0000FFC0
07FE0001FF80
03FF8007FF00
07FFF01FFF00
0FFFFFFFFE00
1FFFFFFFFC00
3E7FFFFFF800
7C1FFFFFE000
F80FFFFFC000
F003FFFF0000
70003FF00000
200000000000
ENDCHAR
STARTCHAR 00F9
ENCODING 249
SWIDTH 556 0
DWIDTH 51 0
BBX 38 70 6 -2
BITMAP
03FF800000
01FF800000
00FFC00000
007FE00000
003FE00000
001FF00000
000FF00000
0007F80000
0003FC0000
0001FC0000
0000FE0000
00007F0000
00003F0000
00001F8000
0000000000
0000000000
0000000000
0000000000
0000000000
0000000000
FF000001FC
FF000001FC
FF000001FC
FF000001FC
FF000001FC
FF000001FC
FF000001FC
FF000001FC
FF000001FC
FF000001FC
FF000001FC
FF000001FC
FF000001FC
FF000001FC
FF000001FC
FF000001FC
FF000001FC
FF000001FC
FF000001FC
FF000001FC
FF000001FC
FF000001FC
FF000001FC
FF000001FC
FF000001FC
FF000001FC
FF000001FC
FF000001FC
FF000001FC
FF000001FC
FF000003FC
FF000003FC
FF000003FC
FF000003FC
FF000007FC
FF000007FC
FF000007FC
FF00000FFC
FF80001FFC
FF80001FFC
FFC0003FFC
7FE000FFFC
7FF803FDFC
3FFFFFFDFC
3FFFFFF9FC
1FFFFFF1FC
0FFFFFE1FC
03FFFF81FC
01FFFE0000
003FF00000
ENDCHAR
STARTCHAR 00FA
ENCODING 250
SWIDTH 556 0
DWIDTH 51 0
BBX 38 70 6 -2
BITMAP
000007FE00
00000FFC00
00000FF800
00001FF000
00003FE000
00003FC000
00007F8000
0000FF0000
0000FE0000
0001FC0000
0003F80000
0003F00000
0007E00000
000FC00000
0000000000
0000000000
0000000000
0000000000
0000000000
0000000000
FF000001FC
FF000001FC
FF000001FC
FF000001FC
FF000001FC
FF000001FC
FF000001FC
FF000001FC
FF000001FC
FF000001FC
FF000001FC
FF000001FC
FF000001FC
FF000001FC
FF000001FC
FF000001FC
FF000001FC
FF000001FC
FF000001FC
FF000001FC
FF000001FC
FF000001FC
FF000001FC
FF000001FC
FF000001FC
FF000001FC
FF000001FC
FF000001FC
FF000001FC
FF000001FC
FF000003FC
FF000003FC
FF000003FC
FF000003FC
FF000007FC
FF000007FC
FF000007FC
FF00000FFC
FF80001FFC
FF80001FFC
FFC0003FFC
7FE000FFFC
7FF803FDFC
3FFFFFFDFC
3FFFFFF9FC
1FFFFFF1FC
0FFFFFE1FC
03FFFF81FC
01FFFE0000
003FF00000
ENDCHAR
STARTCHAR 00FB
ENCODING 251
SWIDTH 556 0
DWIDTH 51 0
BBX 38 70 6 -2
BITMAP
0003FF0000
0003FF0000
0007FF8000
0007FFC000
000FFFC000
001FEFE000
001FCFF000
003F87F000
007F03F800
007E01FC00
00FE00FC00
01FC007E00
01F8007F00
03F0003F00
0000000000
0000000000
0000000000
0000000000
0000000000
0000000000
FF000001FC
FF000001FC
FF000001FC
FF000001FC
FF000001FC
FF000001FC
FF000001FC
FF000001FC
FF000001FC
FF000001FC
FF000001FC
FF000001FC
FF000001FC
FF000001FC
FF000001FC
FF000001FC
FF000001FC
FF000001FC
FF000001FC
FF000001FC
FF000001FC
FF000001FC
FF000001FC
FF000001FC
FF000001FC
FF000001FC
FF000001FC
FF000001FC
FF000001FC
FF000001FC
FF000003FC
FF000003FC
FF000003FC
FF000003FC
FF000007FC
FF000007FC
FF000007FC
FF00000FFC
FF80001FFC
FF80001FFC
FFC0003FFC
7FE000FFFC
7FF803FDFC
3FFFFFFDFC
3FFFFFF9FC
1FFFFFF1FC
0FFFFFE1FC
03FFFF81FC
01FFFE0000
003FF00000
ENDCHAR
STARTCHAR 00FC
ENCODING 252
SWIDTH 556 0
DWIDTH 51 0
BBX 38 68 6 -2
BITMAP
01FF03FE00
01FF03FE00
01FF03FE00
01FF03FE00
01FF03FE00
01FF03FE00
01FF03FE00
01FF03FE00
01FF03FE00
0000000000
0000000000
0000000000
0000000000
0000000000
0000000000
0000000000
0000000000
0000000000
FF000001FC
FF000001FC
FF000001FC
FF000001FC
FF000001FC
FF000001FC
FF000001FC
FF000001FC
FF000001FC
FF000001FC
FF000001FC
FF000001FC
FF000001FC
FF000001FC
FF000001FC
FF000001FC
FF000001FC
FF000001FC
FF000001FC
FF000001FC
FF000001FC
FF000001FC
FF000001FC
FF000001FC
FF000001FC
FF000001FC
FF000001FC
FF000001FC
FF000001FC
FF000001FC
FF000003FC
FF000003FC
FF000003FC
FF000003FC
FF000007FC
FF000007FC
FF000007FC
FF00000FFC
FF80001FFC
FF80001FFC
FFC0003FFC
7FE000FFFC
7FF803FDFC
3FFFFFFDFC
3FFFFFF9FC
1FFFFFF1FC
0FFFFFE1FC
03FFFF81FC
01FFFE0000
003FF00000
ENDCHAR
STARTCHAR 00FD
ENCODING 253
SWIDTH 501 0
DWIDTH 46 0
BBX 42 88 2 -20
BITMAP
000001FF8000
000003FF0000
000007FE0000
000007FC0000
00000FF80000
00001FF00000
00001FE00000
00003FC00000
00007F800000
00007F000000
0000FE000000
0001FC000000
0001F8000000
0003F0000000
000000000000
000000000000
000000000000
000000000000
000000000000
000000000000
FF0000007FC0
FF0000007F80
7F8000007F80
7F800000FF80
7F800000FF00
3FC00000FF00
3FC00001FE00
3FC00001FE00
1FE00001FE00
1FE00003FC00
1FE00003FC00
0FF00007FC00
0FF00007F800
0FF00007F800
07F8000FF000
07F8000FF000
07F8000FF000
03FC001FE000
03FC001FE000
03FC001FE000
01FE003FC000
01FE003FC000
01FE003FC000
00FF007F8000
00FF007F8000
00FF007F0000
007F80FF0000
007F80FF0000
007F81FE0000
003FC1FE0000
003FC1FE0000
003FC3FC0000
001FE3FC0000
001FE3F80000
001FE7F80000
000FF7F80000
000FF7F00000
000FFFF00000
0007FFF00000
0007FFE00000
0007FFE00000
0003FFE00000
0003FFC00000
0003FFC00000
0001FF800000
0001FF800000
0001FF800000
0000FF000000
0000FF000000
0000FF000000
0001FE000000
0001FE000000
0003FE000000
0003FC000000
0003FC000000
0007F8000000
0007F8000000
000FF8000000
000FF0000000
001FF0000000
1FFFE0000000
1FFFE0000000
1FFFC0000000
1FFFC0000000
1FFF80000000
1FFF00000000
1FFC00000000
07E000000000
ENDCHAR
STARTCHAR 00FE
ENCODING 254
SWIDTH 556 0
DWIDTH 51 0
BBX 43 85 5 -20
BITMAP
FF0000000000
FF0000000000
FF0000000000
FF0000000000
FF0000000000
FF0000000000
FF0000000000
FF0000000000
FF0000000000
FF0000000000
FF0000000000
FF0000000000
FF0000000000
FF0000000000
FF0000000000
FF0000000000
FF003FE00000
FF01FFFC0000
FF07FFFF0000
FF1FFFFFC000
FF3FFFFFE000
FF7FFFFFF000
FFFFFFFFF800
FFFFC0FFFC00
FFFE001FFC00
FFFC000FFE00
FFF80003FF00
FFF00003FF00
FFE00001FF00
FFC00000FF80
FFC00000FF80
FF8000007FC0
FF8000007FC0
FF8000003FC0
FF0000003FC0
FF0000003FC0
FF0000003FE0
FF0000001FE0
FF0000001FE0
FF0000001FE0
FF0000001FE0
FF0000001FE0
FF0000001FE0
FF0000001FE0
FF0000001FE0
FF0000001FE0
FF0000001FE0
FF0000003FC0
FF0000003FC0
FF8000003FC0
FF8000007FC0
FF8000007FC0
FFC000007F80
FFC00000FF80
FFE00001FF80
FFF00001FF00
FFF80003FF00
FFFC000FFE00
FFFE001FFC00
FFFFC0FFFC00
FFFFFFFFF800
FF7FFFFFF000
FF3FFFFFE000
FF1FFFFFC000
FF07FFFF0000
FF01FFFC0000
FF003FE00000
FF0000000000
FF0000000000
FF0000000000
FF0000000000
FF0000000000
FF0000000000
FF0000000000
FF0000000000
FF0000000000
FF0000000000
FF0000000000
FF0000000000
FF0000000000
FF0000000000
FF0000000000
FF0000000000
FF0000000000
FF0000000000
ENDCHAR
STARTCHAR 00FF
ENCODING 255
SWIDTH 501 0
DWIDTH 46 0
BBX 42 86 2 -20
BITMAP
00FFC1FF8000
00FFC1FF8000
00FFC1FF8000
00FFC1FF8000
00FFC1FF8000
00FFC1FF8000
00FFC1FF8000
00FFC1FF8000
00FFC1FF8000
000000000000
000000000000
000000000000
000000000000
000000000000
000000000000
000000000000
000000000000
000000000000
FF0000007FC0
FF0000007F80
7F8000007F80
7F800000FF80
7F800000FF00
3FC00000FF00
3FC00001FE00
3FC00001FE00
1FE00001FE00
1FE00003FC00
1FE00003FC00
0FF00007FC00
0FF00007F800
0FF00007F800
07F8000FF000
07F8000FF000
07F8000FF000
03FC001FE000
03FC001FE000
03FC001FE000
01FE003FC000
01FE003FC000
01FE003FC000
00FF007F8000
00FF007F8000
00FF007F0000
007F80FF0000
007F80FF0000
007F81FE0000
003FC1FE0000
003FC1FE0000
003FC3FC0000
001FE3FC0000
001FE3F80000
001FE7F80000
000FF7F80000
000FF7F00000
000FFFF00000
0007FFF00000
0007FFE00000
0007FFE00000
0003FFE00000
0003FFC00000
0003FFC00000
0001FF800000
0001FF800000
0001FF800000
0000FF000000
0000FF000000
0000FF000000
0001FE000000
0001FE000000
0003FE000000
0003FC000000
0003FC000000
0007F8000000
0007F8000000
000FF8000000
000FF0000000
001FF0000000
1FFFE0000000
1FFFE0000000
1FFFC0000000
1FFFC0000000
1FFF80000000
1FFF00000000
1FFC00000000
07E000000000
ENDCHAR
STARTCHAR 0100
ENCODING 256
SWIDTH 665 0
DWIDTH 61 0
BBX 58 82 2 0
BITMAP
0000FFFFFF800000
0000FFFFFF800000
0000FFFFFF800000
0000FFFFFF800000
0000FFFFFF800000
0000FFFFFF800000
0000000000000000
0000000000000000
0000000000000000
0000000000000000
0000000000000000
0000000000000000
0000000000000000
0000000000000000
0000000000000000
000001FFE0000000
000001FFE0000000
000001FFE0000000
000003FFF0000000
000003FFF0000000
000007FFF0000000
000007FFF8000000
000007FFF8000000
00000FFFF8000000
00000FFFFC000000
00000FF7FC000000
00001FF3FC000000
00001FF3FE000000
00001FE3FE000000
00003FE1FE000000
00003FE1FF000000
00003FC1FF000000
00007FC0FF800000
00007F80FF800000
0000FF80FF800000
0000FF807FC00000
0000FF007FC00000
0001FF007FC00000
0001FF003FE00000
0001FE003FE00000
0003FE003FE00000
0003FE001FF00000
0003FC001FF00000
0007FC001FF00000
0007FC000FF80000
0007F8000FF80000
000FF8000FF80000
000FF00007FC0000
001FF00007FC0000
001FF00007FC0000
001FE00003FE0000
003FE00003FE0000
003FE00003FF0000
003FC00001FF0000
007FC00001FF0000
007FFFFFFFFF8000
007FFFFFFFFF8000
00FFFFFFFFFF8000
00FFFFFFFFFFC000
00FFFFFFFFFFC000
01FFFFFFFFFFC000
01FFFFFFFFFFE000
03FF0000003FE000
03FE0000003FE000
03FE0000003FF000
07FC0000001FF000
07FC0000001FF000
07FC0000001FF800
0FF80000000FF800
0FF80000000FF800
0FF80000000FFC00
1FF000000007FC00
1FF000000007FE00
1FF000000007FE00
3FE000000003FE00
3FE000000003FF00
3FE000000003FF00
7FC000000001FF00
7FC000000001FF80
FFC000000001FF80
FF8000000000FF80
FF8000000000FFC0
ENDCHAR
STARTCHAR 0101
ENCODING 257
SWIDTH 556 0
DWIDTH 51 0
BBX 45 66 4 -2
BITMAP
007FFFFFC000
007FFFFFC000
007FFFFFC000
007FFFFFC000
007FFFFFC000
007FFFFFC000
000000000000
000000000000
000000000000
000000000000
000000000000
000000000000
000000000000
000000000000
000000000000
0000FFF00000
000FFFFE0000
007FFFFF8000
00FFFFFFE000
03FFFFFFF000
07FFFFFFF800
07FFFFFFFC00
0FFF807FFC00
1FFC000FFE00
1FF00003FE00
1FE00001FE00
3FE00001FE00
3FC00001FE00
3FC00000FE00
3FC00000FE00
00000000FE00
00000000FE00
00000000FE00
00000001FE00
00000003FE00
0000000FFE00
000001FFFE00
0001FFFFFE00
003FFFFFFE00
00FFFFFFFE00
03FFFFFEFE00
0FFFFFF8FE00
1FFFFE00FE00
3FFF8000FE00
3FF80000FE00
7FE00000FE00
7FC00000FE00
FF800000FE00
FF000000FE00
FF000000FE00
FF000000FE00
FF000001FE00
FF000001FE00
FF000003FE00
FF000007FE00
FF80000FFE00
7FC0001FFE00
7FE0007FFF00
7FF801FFFF00
3FFFFFFEFFE8
1FFFFFFCFFF8
1FFFFFF8FFF8
0FFFFFE07FF8
03FFFFC07FF8
00FFFF003FF8
001FF0000FF0
ENDCHAR
STARTCHAR 0102
ENCODING 258
SWIDTH 665 0
DWIDTH 61 0
BBX 58 85 2 0
BITMAP
0001F00007C00000
0001F80007C00000
0001F8000FC00000
0001FC001FC00000
0000FE003FC00000
0000FFE3FF800000
00007FFFFF800000
00007FFFFF000000
00003FFFFE000000
00000FFFFC000000
000007FFF0000000
000000FF80000000
0000000000000000
0000000000000000
0000000000000000
0000000000000000
0000000000000000
0000000000000000
000001FFE0000000
000001FFE0000000
000001FFE0000000
000003FFF0000000
000003FFF0000000
000007FFF0000000
000007FFF8000000
000007FFF8000000
00000FFFF8000000
00000FFFFC000000
00000FF7FC000000
00001FF3FC000000
00001FF3FE000000
00001FE3FE000000
00003FE1FE000000
00003FE1FF000000
00003FC1FF000000
00007FC0FF800000
00007F80FF800000
0000FF80FF800000
0000FF807FC00000
0000FF007FC00000
0001FF007FC00000
0001FF003FE00000
0001FE003FE00000
0003FE003FE00000
0003FE001FF00000
0003FC001FF00000
0007FC001FF00000
0007FC000FF80000
0007F8000FF80000
000FF8000FF80000
000FF00007FC0000
001FF00007FC0000
001FF00007FC0000
001FE00003FE0000
003FE00003FE0000
003FE00003FF0000
003FC00001FF0000
007FC00001FF0000
007FFFFFFFFF8000
007FFFFFFFFF8000
00FFFFFFFFFF8000
00FFFFFFFFFFC000
00FFFFFFFFFFC000
01FFFFFFFFFFC000
01FFFFFFFFFFE000
03FF0000003FE000
03FE0000003FE000
03FE0000003FF000
07FC0000001FF000
07FC0000001FF000
07FC0000001FF800
0FF80000000FF800
0FF80000000FF800
0FF80000000FFC00
1FF000000007FC00
1FF000000007FE00
1FF000000007FE00
3FE000000003FE00
3FE000000003FF00
3FE000000003FF00
7FC000000001FF00
7FC000000001FF80
FFC000000001FF80
FF8000000000FF80
FF8000000000FFC0
ENDCHAR
STARTCHAR 0103
ENCODING 259
SWIDTH 556 0
DWIDTH 51 0
BBX 45 69 4 -2
BITMAP
01F80003E000
00F80007E000
00FC0007E000
00FC000FC000
00FE001FC000
00FF807FC000
007FFFFF8000
003FFFFF8000
001FFFFF0000
000FFFFE0000
0007FFF80000
0001FFE00000
000000000000
000000000000
000000000000
000000000000
000000000000
000000000000
0000FFF00000
000FFFFE0000
007FFFFF8000
00FFFFFFE000
03FFFFFFF000
07FFFFFFF800
07FFFFFFFC00
0FFF807FFC00
1FFC000FFE00
1FF00003FE00
1FE00001FE00
3FE00001FE00
3FC00001FE00
3FC00000FE00
3FC00000FE00
00000000FE00
00000000FE00
00000000FE00
00000001FE00
00000003FE00
0000000FFE00
000001FFFE00
0001FFFFFE00
003FFFFFFE00
00FFFFFFFE00
03FFFFFEFE00
0FFFFFF8FE00
1FFFFE00FE00
3FFF8000FE00
3FF80000FE00
7FE00000FE00
7FC00000FE00
FF800000FE00
FF000000FE00
FF000000FE00
FF000000FE00
FF000001FE00
FF000001FE00
FF000003FE00
FF000007FE00
FF80000FFE00
7FC0001FFE00
7FE0007FFF00
7FF801FFFF00
3FFFFFFEFFE8
1FFFFFFCFFF8
1FFFFFF8FFF8
0FFFFFE07FF8
03FFFFC07FF8
00FFFF003FF8
001FF0000FF0
ENDCHAR
STARTCHAR 0104
ENCODING 260
SWIDTH 665 0
DWIDTH 61 0
BBX 61 86 2 -19
BITMAP
000001FFE0000000
000001FFE0000000
000001FFE0000000
000003FFF0000000
000003FFF0000000
000007FFF0000000
000007FFF8000000
000007FFF8000000
00000FFFF8000000
00000FFFFC000000
00000FF7FC000000
00001FF3FC000000
00001FF3FE000000
00001FE3FE000000
00003FE1FE000000
00003FE1FF000000
00003FC1FF000000
00007FC0FF800000
00007F80FF800000
0000FF80FF800000
0000FF807FC00000
0000FF007FC00000
0001FF007FC00000
0001FF003FE00000
0001FE003FE00000
0003FE003FE00000
0003FE001FF00000
0003FC001FF00000
0007FC001FF00000
0007FC000FF80000
0007F8000FF80000
000FF8000FF80000
000FF00007FC0000
001FF00007FC0000
001FF00007FC0000
001FE00003FE0000
003FE00003FE0000
003FE00003FF0000
003FC00001FF0000
007FC00001FF0000
007FFFFFFFFF8000
007FFFFFFFFF8000
00FFFFFFFFFF8000
00FFFFFFFFFFC000
00FFFFFFFFFFC000
01FFFFFFFFFFC000
01FFFFFFFFFFE000
03FF0000003FE000
03FE0000003FE000
03FE0000003FF000
07FC0000001FF000
07FC0000001FF000
07FC0000001FF800
0FF80000000FF800
0FF80000000FF800
0FF80000000FFC00
1FF000000007FC00
1FF000000007FE00
1FF000000007FE00
3FE000000003FE00
3FE000000003FF00
3FE000000003FF00
7FC000000001FF00
7FC000000001FF80
FFC000000001FF80
FF8000000000FF80
FF8000000000FFC0
0000000000001F80
0000000000007E00
000000000001FC00
000000000003F000
000000000007E000
00000000000FC000
00000000001FC000
00000000001F8000
00000000001F8000
00000000003F8000
00000000003F8000
00000000003F8000
00000000001FC000
00000000001FE000
00000000000FF808
00000000000FFFF8
000000000003FFF8
000000000001FFF8
0000000000003FE0
ENDCHAR
STARTCHAR 0105
ENCODING 261
SWIDTH 556 0
DWIDTH 51 0
BBX 51 68 4 -19
BITMAP
0000FFF0000000
000FFFFE000000
003FFFFFC00000
00FFFFFFE00000
01FFFFFFF00000
07FFFFFFF80000
07FFFFFFFC0000
0FFF807FFC0000
0FFC000FFE0000
1FF00003FE0000
1FF00001FE0000
1FE00001FE0000
3FC00000FE0000
3FC00000FE0000
3FC00000FE0000
00000000FE0000
00000000FE0000
00000000FE0000
00000001FE0000
00000003FE0000
0000000FFE0000
000001FFFE0000
0001FFFFFE0000
001FFFFFFE0000
00FFFFFFFE0000
03FFFFFEFE0000
07FFFFF8FE0000
1FFFFE00FE0000
1FFF8000FE0000
3FF80000FE0000
7FE00000FE0000
7FC00000FE0000
7F800000FE0000
FF000000FE0000
FF000000FE0000
FF000000FE0000
FF000001FE0000
FF000001FE0000
FF000003FE0000
FF000007FE0000
FF80000FFE0000
7FC0001FFE0000
7FE0007FFF0000
7FF801FFFF0000
3FFFFFFEFFE800
1FFFFFFCFFF800
1FFFFFF87FF800
07FFFFF07FF800
03FFFFC03FF800
00FFFF003FF800
001FF0000FF000
0000000007E000
000000001F8000
000000003F0000
000000007E0000
000000007E0000
00000000FE0000
00000000FC0000
00000000FC0000
00000000FC0000
00000000FC0000
00000000FE0000
00000000FF0000
000000007FC060
000000003FFFE0
000000001FFFE0
000000000FFFE0
0000000000FF80
ENDCHAR
STARTCHAR 0106
ENCODING 262
SWIDTH 720 0
DWIDTH 66 0
BBX 58 88 4 -2
BITMAP
000000007FE00000
00000000FFC00000
00000001FF800000
00000001FF000000
00000003FE000000
00000003FC000000
00000007F8000000
0000000FF0000000
0000000FE0000000
0000001FC0000000
0000003F80000000
0000003F00000000
0000007E00000000
0000000000000000
0000000000000000
0000000000000000
0000000000000000
0000000000000000
0000007FF8000000
000007FFFF800000
00003FFFFFF00000
0000FFFFFFFC0000
0003FFFFFFFE0000
0007FFFFFFFF0000
000FFFFFFFFFC000
001FFFFFFFFFE000
003FFE0007FFE000
007FF80000FFF000
00FFE000003FF800
01FFC000001FF800
01FF8000000FFC00
03FF00000007FC00
07FE00000007FE00
07FC00000003FE00
0FF800000003FE00
0FF800000001FF00
1FF000000001FF00
1FF000000001FF00
1FE000000000FF00
3FE000000000FF80
3FE0000000000000
3FC0000000000000
3FC0000000000000
7FC0000000000000
7FC0000000000000
7FC0000000000000
7F80000000000000
7F80000000000000
7F80000000000000
7F80000000000000
7F80000000000000
FF80000000000000
FF80000000000000
FF80000000000000
FF80000000000000
FF80000000000000
7F80000000000000
7F80000000000000
7F80000000000000
7F80000000000000
7FC0000000000000
7FC0000000000000
7FC0000000007FC0
7FC0000000007FC0
3FC0000000007FC0
3FE0000000007F80
3FE000000000FF80
1FF000000000FF80
1FF000000000FF80
1FF800000001FF80
0FF800000001FF00
0FFC00000003FF00
07FC00000003FE00
07FE00000007FE00
03FF00000007FE00
03FF8000000FFC00
01FFC000001FFC00
00FFF000007FF800
00FFFC0000FFF000
007FFF0007FFE000
003FFFFFFFFFE000
001FFFFFFFFFC000
0007FFFFFFFF0000
0003FFFFFFFE0000
0000FFFFFFF80000
00007FFFFFF00000
00000FFFFF800000
000000FFF8000000
ENDCHAR
STARTCHAR 0107
ENCODING 263
SWIDTH 501 0
DWIDTH 46 0
BBX 41 70 3 -2
BITMAP
000000FFC000
000001FF8000
000001FF0000
000003FE0000
000003FC0000
000007F80000
00000FF00000
00000FE00000
00001FC00000
00003F800000
00003F000000
00007E000000
0000FC000000
0000F8000000
000000000000
000000000000
000000000000
000000000000
000000000000
0000FFC00000
0007FFFC0000
001FFFFF0000
003FFFFF8000
00FFFFFFE000
01FFFFFFF000
03FFFFFFF800
07FFC07FF800
07FE001FFC00
0FFC0007FC00
1FF80003FE00
1FF00003FE00
3FE00001FE00
3FC00001FF00
3FC00000FF00
7FC00000FF00
7F800000FF00
7F8000000000
7F8000000000
FF0000000000
FF0000000000
FF0000000000
FF0000000000
FF0000000000
FF0000000000
FF0000000000
FF0000000000
FF0000000000
FF0000000000
FF0000000000
FF0000000000
FF0000000000
FF8000000000
7F8000007F80
7F8000007F80
7F800000FF00
7FC00000FF00
3FC00000FF00
3FE00001FF00
1FF00001FE00
1FF80003FE00
0FFC0007FC00
0FFE001FFC00
07FFC07FF800
03FFFFFFF000
01FFFFFFE000
00FFFFFFC000
007FFFFF8000
001FFFFF0000
0007FFF80000
0000FFC00000
ENDCHAR
STARTCHAR 0108
ENCODING 264
SWIDTH 720 0
DWIDTH 66 0
BBX 58 88 4 -2
BITMAP
0000007FE0000000
0000007FF0000000
000000FFF0000000
000001FFF8000000
000001FFFC000000
000003FDFC000000
000003F8FE000000
000007F07F000000
00000FE07F000000
00000FC03F800000
00001F801F800000
00003F800FC00000
00003F0007E00000
00007E0003E00000
0000000000000000
0000000000000000
0000000000000000
0000000000000000
0000007FF8000000
000007FFFF800000
00003FFFFFF00000
0000FFFFFFFC0000
0003FFFFFFFE0000
0007FFFFFFFF0000
000FFFFFFFFFC000
001FFFFFFFFFE000
003FFE0007FFE000
007FF80000FFF000
00FFE000003FF800
01FFC000001FF800
01FF8000000FFC00
03FF00000007FC00
07FE00000007FE00
07FC00000003FE00
0FF800000003FE00
0FF800000001FF00
1FF000000001FF00
1FF000000001FF00
1FE000000000FF00
3FE000000000FF80
3FE0000000000000
3FC0000000000000
3FC0000000000000
7FC0000000000000
7FC0000000000000
7FC0000000000000
7F80000000000000
7F80000000000000
7F80000000000000
7F80000000000000
7F80000000000000
FF80000000000000
FF80000000000000
FF80000000000000
FF80000000000000
FF80000000000000
7F80000000000000
7F80000000000000
7F80000000000000
7F80000000000000
7FC0000000000000
7FC0000000000000
7FC0000000007FC0
7FC0000000007FC0
3FC0000000007FC0
3FE0000000007F80
3FE000000000FF80
1FF000000000FF80
1FF000000000FF80
1FF800000001FF80
0FF800000001FF00
0FFC00000003FF00
07FC00000003FE00
07FE00000007FE00
03FF00000007FE00
03FF8000000FFC00
01FFC000001FFC00
00FFF000007FF800
00FFFC0000FFF000
007FFF0007FFE000
003FFFFFFFFFE000
001FFFFFFFFFC000
0007FFFFFFFF0000
0003FFFFFFFE0000
0000FFFFFFF80000
00007FFFFFF00000
00000FFFFF800000
000000FFF8000000
ENDCHAR
STARTCHAR 0109
ENCODING 265
SWIDTH 501 0
DWIDTH 46 0
BBX 41 70 3 -2
BITMAP
00007FC00000
0000FFE00000
0000FFE00000
0001FFF00000
0003FFF80000
0003FBF80000
0007F1FC0000
000FF1FE0000
000FE0FE0000
001FC07F0000
001F803F0000
003F001F8000
007F001FC000
007E000FC000
000000000000
000000000000
000000000000
000000000000
000000000000
0000FFC00000
0007FFFC0000
001FFFFF0000
003FFFFF8000
00FFFFFFE000
01FFFFFFF000
03FFFFFFF800
07FFC07FF800
07FE001FFC00
0FFC0007FC00
1FF80003FE00
1FF00003FE00
3FE00001FE00
3FC00001FF00
3FC00000FF00
7FC00000FF00
7F800000FF00
7F8000000000
7F8000000000
FF0000000000
FF0000000000
FF0000000000
FF0000000000
FF0000000000
FF0000000000
FF0000000000
FF0000000000
FF0000000000
FF0000000000
FF0000000000
FF0000000000
FF0000000000
FF8000000000
7F8000007F80
7F8000007F80
7F800000FF00
7FC00000FF00
3FC00000FF00
3FE00001FF00
1FF00001FE00
1FF80003FE00
0FFC0007FC00
0FFE001FFC00
07FFC07FF800
03FFFFFFF000
01FFFFFFE000
00FFFFFFC000
007FFFFF8000
001FFFFF0000
0007FFF80000
0000FFC00000
ENDCHAR
STARTCHAR 010A
ENCODING 266
SWIDTH 720 0
DWIDTH 66 0
BBX 58 86 4 -2
BITMAP
0000003FF0000000
0000003FF0000000
0000003FF0000000
0000003FF0000000
0000003FF0000000
0000003FF0000000
0000003FF0000000
0000003FF0000000
0000003FF0000000
0000003FF0000000
0000000000000000
0000000000000000
0000000000000000
0000000000000000
0000000000000000
0000000000000000
0000007FF8000000
000007FFFF800000
00003FFFFFF00000
0000FFFFFFFC0000
0003FFFFFFFE0000
0007FFFFFFFF0000
000FFFFFFFFFC000
001FFFFFFFFFE000
003FFE0007FFE000
007FF80000FFF000
00FFE000003FF800
01FFC000001FF800
01FF8000000FFC00
03FF00000007FC00
07FE00000007FE00
07FC00000003FE00
0FF800000003FE00
0FF800000001FF00
1FF000000001FF00
1FF000000001FF00
1FE000000000FF00
3FE000000000FF80
3FE0000000000000
3FC0000000000000
3FC0000000000000
7FC0000000000000
7FC0000000000000
7FC0000000000000
7F80000000000000
7F80000000000000
7F80000000000000
7F80000000000000
7F80000000000000
FF80000000000000
FF80000000000000
FF80000000000000
FF80000000000000
FF80000000000000
7F80000000000000
7F80000000000000
7F80000000000000
7F80000000000000
7FC0000000000000
7FC0000000000000
7FC0000000007FC0
7FC0000000007FC0
3FC0000000007FC0
3FE0000000007F80
3FE000000000FF80
1FF000000000FF80
1FF000000000FF80
1FF800000001FF80
0FF800000001FF00
0FFC00000003FF00
07FC00000003FE00
07FE00000007FE00
03FF00000007FE00
03FF8000000FFC00
01FFC000001FFC00
00FFF000007FF800
00FFFC0000FFF000
007FFF0007FFE000
003FFFFFFFFFE000
001FFFFFFFFFC000
0007FFFFFFFF0000
0003FFFFFFFE0000
0000FFFFFFF80000
00007FFFFFF00000
00000FFFFF800000
000000FFF8000000
ENDCHAR
STARTCHAR 010B
ENCODING 267
SWIDTH 501 0
DWIDTH 46 0
BBX 41 68 3 -2
BITMAP
00007FC00000
00007FC00000
00007FC00000
00007FC00000
00007FC00000
00007FC00000
00007FC00000
00007FC00000
00007FC00000
00007FC00000
000000000000
000000000000
000000000000
000000000000
000000000000
000000000000
000000000000
0000FFC00000
0007FFFC0000
001FFFFF0000
003FFFFF8000
00FFFFFFE000
01FFFFFFF000
03FFFFFFF800
07FFC07FF800
07FE001FFC00
0FFC0007FC00
1FF80003FE00
1FF00003FE00
3FE00001FE00
3FC00001FF00
3FC00000FF00
7FC00000FF00
7F800000FF00
7F8000000000
7F8000000000
FF0000000000
FF0000000000
FF0000000000
FF0000000000
FF0000000000
FF0000000000
FF0000000000
FF0000000000
FF0000000000
FF0000000000
FF0000000000
FF0000000000
FF0000000000
FF8000000000
7F8000007F80
7F8000007F80
7F800000FF00
7FC00000FF00
3FC00000FF00
3FE00001FF00
1FF00001FE00
1FF80003FE00
0FFC0007FC00
0FFE001FFC00
07FFC07FF800
03FFFFFFF000
01FFFFFFE000
00FFFFFFC000
007FFFFF8000
001FFFFF0000
0007FFF80000
0000FFC00000
ENDCHAR
STARTCHAR 010C
ENCODING 268
SWIDTH 720 0
DWIDTH 66 0
BBX 58 88 4 -2
BITMAP
00003F0003F00000
00001F8007E00000
00001FC00FC00000
00000FE01FC00000
000007F03F800000
000007F07F000000
000003F87F000000
000001FCFE000000
000001FFFC000000
000000FFFC000000
0000007FF8000000
0000007FF8000000
0000003FF0000000
0000001FE0000000
0000000000000000
0000000000000000
0000000000000000
0000000000000000
0000007FF8000000
000007FFFF800000
00003FFFFFF00000
0000FFFFFFFC0000
0003FFFFFFFE0000
0007FFFFFFFF0000
000FFFFFFFFFC000
001FFFFFFFFFE000
003FFE0007FFE000
007FF80000FFF000
00FFE000003FF800
01FFC000001FF800
01FF8000000FFC00
03FF00000007FC00
07FE00000007FE00
07FC00000003FE00
0FF800000003FE00
0FF800000001FF00
1FF000000001FF00
1FF000000001FF00
1FE000000000FF00
3FE000000000FF80
3FE0000000000000
3FC0000000000000
3FC0000000000000
7FC0000000000000
7FC0000000000000
7FC0000000000000
7F80000000000000
7F80000000000000
7F80000000000000
7F80000000000000
7F80000000000000
FF80000000000000
FF80000000000000
FF80000000000000
FF80000000000000
FF80000000000000
7F80000000000000
7F80000000000000
7F80000000000000
7F80000000000000
7FC0000000000000
7FC0000000000000
7FC0000000007FC0
7FC0000000007FC0
3FC0000000007FC0
3FE0000000007F80
3FE000000000FF80
1FF000000000FF80
1FF000000000FF80
1FF800000001FF80
0FF800000001FF00
0FFC00000003FF00
07FC00000003FE00
07FE00000007FE00
03FF00000007FE00
03FF8000000FFC00
01FFC000001FFC00
00FFF000007FF800
00FFFC0000FFF000
007FFF0007FFE000
003FFFFFFFFFE000
001FFFFFFFFFC000
0007FFFFFFFF0000
0003FFFFFFFE0000
0000FFFFFFF80000
00007FFFFFF00000
00000FFFFF800000
000000FFF8000000
ENDCHAR
STARTCHAR 010D
ENCODING 269
SWIDTH 501 0
DWIDTH 46 0
BBX 41 70 3 -2
BITMAP
00FC000FC000
007E001FC000
003F001F8000
003F803F0000
001FC07F0000
000FE0FE0000
000FE1FC0000
0007F1FC0000
0003FBF80000
0003FFF80000
0001FFF00000
0001FFE00000
0000FFE00000
00007FC00000
000000000000
000000000000
000000000000
000000000000
000000000000
0000FFC00000
0007FFFC0000
001FFFFF0000
003FFFFF8000
00FFFFFFE000
01FFFFFFF000
03FFFFFFF800
07FFC07FF800
07FE001FFC00
0FFC0007FC00
1FF80003FE00
1FF00003FE00
3FE00001FE00
3FC00001FF00
3FC00000FF00
7FC00000FF00
7F800000FF00
7F8000000000
7F8000000000
FF0000000000
FF0000000000
FF0000000000
FF0000000000
FF0000000000
FF0000000000
FF0000000000
FF0000000000
FF0000000000
FF0000000000
FF0000000000
FF0000000000
FF0000000000
FF8000000000
7F8000007F80
7F8000007F80
7F800000FF00
7FC00000FF00
3FC00000FF00
3FE00001FF00
1FF00001FE00
1FF80003FE00
0FFC0007FC00
0FFE001FFC00
07FFC07FF800
03FFFFFFF000
01FFFFFFE000
00FFFFFFC000
007FFFFF8000
001FFFFF0000
0007FFF80000
0000FFC00000
ENDCHAR
STARTCHAR 010E
ENCODING 270
SWIDTH 720 0
DWIDTH 66 0
BBX 53 86 8 0
BITMAP
003F0003F00000
001F8007E00000
000FC00FC00000
000FE01FC00000
0007F03F800000
0003F87F000000
0003F87F000000
0001FCFE000000
0000FFFE000000
0000FFFC000000
00007FF8000000
00007FF8000000
00003FF0000000
00000000000000
00000000000000
00000000000000
00000000000000
00000000000000
00000000000000
FFFFFFFF000000
FFFFFFFFE00000
FFFFFFFFFC0000
FFFFFFFFFF0000
FFFFFFFFFF8000
FFFFFFFFFFE000
FFFFFFFFFFF000
FFFFFFFFFFF800
FF800001FFFC00
FF8000003FFC00
FF8000000FFE00
FF80000007FF00
FF80000003FF00
FF80000001FF80
FF80000000FF80
FF80000000FFC0
FF800000007FC0
FF800000003FE0
FF800000003FE0
FF800000003FE0
FF800000001FF0
FF800000001FF0
FF800000001FF0
FF800000000FF0
FF800000000FF0
FF800000000FF8
FF800000000FF8
FF800000000FF8
FF800000000FF8
FF8000000007F8
FF8000000007F8
FF8000000007F8
FF8000000007F8
FF8000000007F8
FF8000000007F8
FF8000000007F8
FF8000000007F8
FF8000000007F8
FF800000000FF8
FF800000000FF8
FF800000000FF8
FF800000000FF8
FF800000000FF0
FF800000000FF0
FF800000001FF0
FF800000001FF0
FF800000001FF0
FF800000001FE0
FF800000003FE0
FF800000003FE0
FF800000007FC0
FF800000007FC0
FF80000000FF80
FF80000001FF80
FF80000003FF00
FF80000007FF00
FF8000000FFE00
FF8000003FFC00
FF800001FFF800
FFFFFFFFFFF800
FFFFFFFFFFF000
FFFFFFFFFFC000
FFFFFFFFFF8000
FFFFFFFFFF0000
FFFFFFFFFC0000
FFFFFFFFE00000
FFFFFFFE000000
ENDCHAR
STARTCHAR 010F
ENCODING 271
SWIDTH 643 0
DWIDTH 59 0
BBX 57 69 2 -2
BITMAP
000000000FE0FF80
000000000FE0FF80
000000000FE0FF80
000000000FE0FF80
000000000FE0FF80
000000000FE0FF80
000000000FE0FF80
000000000FE0FF80
000000000FE0FF80
000000000FE00780
000000000FE00780
000000000FE00780
000000000FE00780
000000000FE00780
000000000FE00780
000000000FE00F00
000000000FE01F00
000000000FE07E00
0000FFC00FE0FE00
0007FFF80FE0FC00
001FFFFE0FE0F000
003FFFFF0FE00000
00FFFFFF8FE00000
01FFFFFFCFE00000
03FFFFFFEFE00000
03FFE07FFFE00000
07FF800FFFE00000
0FFE0007FFE00000
0FFC0001FFE00000
1FF80000FFE00000
1FF00000FFE00000
3FE000007FE00000
3FE000003FE00000
3FC000003FE00000
7FC000003FE00000
7FC000001FE00000
7F8000001FE00000
7F8000001FE00000
7F8000001FE00000
7F8000000FE00000
FF8000000FE00000
FF0000000FE00000
FF0000000FE00000
FF0000000FE00000
FF0000000FE00000
FF0000000FE00000
7F8000000FE00000
7F8000000FE00000
7F8000001FE00000
7F8000001FE00000
7F8000001FE00000
7FC000001FE00000
7FC000003FE00000
3FC000003FE00000
3FE000003FE00000
3FE000007FE00000
1FF00000FFE00000
1FF80000FFE00000
0FFC0001FFE00000
0FFE0003FFE00000
07FF800FFFE00000
03FFE07FF7E00000
03FFFFFFE7E00000
01FFFFFFC7E00000
00FFFFFF87E00000
003FFFFF07E00000
001FFFFE07E00000
0007FFF800000000
0000FFC000000000
ENDCHAR
STARTCHAR 0110
ENCODING 272
SWIDTH 720 0
DWIDTH 66 0
BBX 59 67 2 0
BITMAP
03FFFFFFFC000000
03FFFFFFFF800000
03FFFFFFFFF00000
03FFFFFFFFFC0000
03FFFFFFFFFE0000
03FFFFFFFFFF8000
03FFFFFFFFFFC000
03FFFFFFFFFFE000
03FE000007FFF000
03FE000000FFF000
03FE0000007FF800
03FE0000001FFC00
03FE0000000FFC00
03FE00000007FE00
03FE00000003FE00
03FE00000003FF00
03FE00000001FF00
03FE00000000FF80
03FE00000000FF80
03FE000000007F80
03FE000000007FC0
03FE000000007FC0
03FE000000007FC0
03FE000000003FC0
03FE000000003FC0
03FE000000003FE0
03FE000000003FE0
03FE000000003FE0
03FE000000003FE0
03FE000000001FE0
FFFFFFFC00001FE0
FFFFFFFC00001FE0
FFFFFFFC00001FE0
FFFFFFFC00001FE0
FFFFFFFC00001FE0
FFFFFFFC00001FE0
03FE000000001FE0
03FE000000001FE0
03FE000000003FE0
03FE000000003FE0
03FE000000003FE0
03FE000000003FE0
03FE000000003FC0
03FE000000003FC0
03FE000000007FC0
03FE000000007FC0
03FE000000007FC0
03FE000000007F80
03FE00000000FF80
03FE00000000FF80
03FE00000001FF00
03FE00000001FF00
03FE00000003FE00
03FE00000007FE00
03FE0000000FFC00
03FE0000001FFC00
03FE0000003FF800
03FE000000FFF000
03FE000003FFF000
03FFFFFFFFFFE000
03FFFFFFFFFFC000
03FFFFFFFFFF8000
03FFFFFFFFFE0000
03FFFFFFFFFC0000
03FFFFFFFFF00000
03FFFFFFFF800000
03FFFFFFF8000000
ENDCHAR
STARTCHAR 0111
ENCODING 273
SWIDTH 556 0
DWIDTH 51 0
BBX 49 69 2 -2
BITMAP
000000000FE000
000000000FE000
000000000FE000
000000000FE000
000000000FE000
000000000FE000
000000000FE000
000003FFFFFF80
000003FFFFFF80
000003FFFFFF80
000003FFFFFF80
000003FFFFFF80
000000000FE000
000000000FE000
000000000FE000
000000000FE000
000000000FE000
000000000FE000
0000FFC00FE000
0007FFF80FE000
001FFFFE0FE000
003FFFFF0FE000
00FFFFFF8FE000
01FFFFFFCFE000
03FFFFFFEFE000
03FFFFFFFFE000
07FF801FFFE000
0FFE0007FFE000
0FFC0003FFE000
1FF80001FFE000
1FF00000FFE000
3FE000007FE000
3FE000007FE000
3FC000003FE000
7FC000003FE000
7FC000001FE000
7F8000001FE000
7F8000001FE000
7F8000001FE000
7F8000001FE000
FF8000000FE000
FF0000000FE000
FF0000000FE000
FF0000000FE000
FF0000000FE000
FF0000000FE000
7F8000000FE000
7F8000001FE000
7F8000001FE000
7F8000001FE000
7F8000001FE000
7FC000001FE000
3FC000003FE000
3FC000003FE000
3FE000007FE000
1FF000007FE000
1FF00000FFE000
1FF80001FFE000
0FFC0003FFE000
0FFE0007FFE000
07FF801FFFE000
03FFFFFFFFE000
01FFFFFFFFE000
00FFFFFFEFE000
007FFFFFCFE000
003FFFFF0FE000
001FFFFE0FE000
0007FFF8000000
0000FFC0000000
ENDCHAR
STARTCHAR 0112
ENCODING 274
SWIDTH 665 0
DWIDTH 61 0
BBX 48 82 8 0
BITMAP
001FFFFFF000
001FFFFFF000
001FFFFFF000
001FFFFFF000
001FFFFFF000
001FFFFFF000
000000000000
000000000000
000000000000
000000000000
000000000000
000000000000
000000000000
000000000000
000000000000
FFFFFFFFFFFE
FFFFFFFFFFFE
FFFFFFFFFFFE
FFFFFFFFFFFE
FFFFFFFFFFFE
FFFFFFFFFFFE
FFFFFFFFFFFE
FFFFFFFFFFFE
FF8000000000
FF8000000000
FF8000000000
FF8000000000
FF8000000000
FF8000000000
FF8000000000
FF8000000000
FF8000000000
FF8000000000
FF8000000000
FF8000000000
FF8000000000
FF8000000000
FF8000000000
FF8000000000
FF8000000000
FF8000000000
FF8000000000
FF8000000000
FF8000000000
FFFFFFFFFFF8
FFFFFFFFFFF8
FFFFFFFFFFF8
FFFFFFFFFFF8
FFFFFFFFFFF8
FFFFFFFFFFF8
FFFFFFFFFFF8
FFFFFFFFFFF8
FF8000000000
FF8000000000
FF8000000000
FF8000000000
FF8000000000
FF8000000000
FF8000000000
FF8000000000
FF8000000000
FF8000000000
FF8000000000
FF8000000000
FF8000000000
FF8000000000
FF8000000000
FF8000000000
FF8000000000
FF8000000000
FF8000000000
FF8000000000
FF8000000000
FF8000000000
FFFFFFFFFFFF
FFFFFFFFFFFF
FFFFFFFFFFFF
FFFFFFFFFFFF
FFFFFFFFFFFF
FFFFFFFFFFFF
FFFFFFFFFFFF
FFFFFFFFFFFF
ENDCHAR
STARTCHAR 0113
ENCODING 275
SWIDTH 556 0
DWIDTH 51 0
BBX 43 66 4 -2
BITMAP
003FFFFFE000
003FFFFFE000
003FFFFFE000
003FFFFFE000
003FFFFFE000
003FFFFFE000
000000000000
000000000000
000000000000
000000000000
000000000000
000000000000
000000000000
000000000000
000000000000
00007FE00000
0003FFFC0000
001FFFFF0000
003FFFFFC000
00FFFFFFE000
01FFFFFFF000
03FFFFFFF800
07FFC07FFC00
07FE000FFE00
0FFC0007FF00
1FF80003FF00
1FF00001FF80
3FE00000FF80
3FC000007F80
3FC000007FC0
7F8000003FC0
7F8000003FC0
7F8000003FC0
FF0000003FE0
FF0000001FE0
FF0000001FE0
FF0000001FE0
FFFFFFFFFFE0
FFFFFFFFFFE0
FFFFFFFFFFE0
FFFFFFFFFFE0
FFFFFFFFFFE0
FFFFFFFFFFE0
FF0000000000
FF0000000000
FF0000000000
FF0000000000
FF0000000000
FF0000000000
7F8000000000
7F8000003FC0
7F8000003FC0
3FC000007F80
3FE00000FF80
3FE00000FF80
1FF00001FF00
1FFC0003FF00
0FFE000FFE00
07FFC07FFC00
03FFFFFFF800
01FFFFFFF000
00FFFFFFE000
007FFFFFC000
001FFFFF0000
0007FFFC0000
0000FFE00000
ENDCHAR
STARTCHAR 0114
ENCODING 276
SWIDTH 665 0
DWIDTH 61 0
BBX 48 85 8 0
BITMAP
003E0000F800
003F0000F800
003F0001F800
003F8003F800
001FC007F000
001FFC7FF000
000FFFFFE000
000FFFFFE000
0007FFFFC000
0003FFFF8000
0000FFFE0000
00001FF00000
000000000000
000000000000
000000000000
000000000000
000000000000
000000000000
FFFFFFFFFFFE
FFFFFFFFFFFE
FFFFFFFFFFFE
FFFFFFFFFFFE
FFFFFFFFFFFE
FFFFFFFFFFFE
FFFFFFFFFFFE
FFFFFFFFFFFE
FF8000000000
FF8000000000
FF8000000000
FF8000000000
FF8000000000
FF8000000000
FF8000000000
FF8000000000
FF8000000000
FF8000000000
FF8000000000
FF8000000000
FF8000000000
FF8000000000
FF8000000000
FF8000000000
FF8000000000
FF8000000000
FF8000000000
FF8000000000
FF8000000000
FFFFFFFFFFF8
FFFFFFFFFFF8
FFFFFFFFFFF8
FFFFFFFFFFF8
FFFFFFFFFFF8
FFFFFFFFFFF8
FFFFFFFFFFF8
FFFFFFFFFFF8
FF8000000000
FF8000000000
FF8000000000
FF8000000000
FF8000000000
FF8000000000
FF8000000000
FF8000000000
FF8000000000
FF8000000000
FF8000000000
FF8000000000
FF8000000000
FF8000000000
FF8000000000
FF8000000000
FF8000000000
FF8000000000
FF8000000000
FF8000000000
FF8000000000
FF8000000000
FFFFFFFFFFFF
FFFFFFFFFFFF
FFFFFFFFFFFF
FFFFFFFFFFFF
FFFFFFFFFFFF
FFFFFFFFFFFF
FFFFFFFFFFFF
FFFFFFFFFFFF
ENDCHAR
STARTCHAR 0115
ENCODING 277
SWIDTH 556 0
DWIDTH 51 0
BBX 43 69 4 -2
BITMAP
00FC0001F000
007C0003F000
007E0003F000
007E0007E000
007F000FE000
007FE03FE000
003FFFFFC000
001FFFFFC000
000FFFFF8000
0007FFFF0000
0003FFFC0000
00007FF00000
000000000000
000000000000
000000000000
000000000000
000000000000
000000000000
00007FE00000
0003FFFC0000
001FFFFF0000
003FFFFFC000
00FFFFFFE000
01FFFFFFF000
03FFFFFFF800
07FFC07FFC00
07FE000FFE00
0FFC0007FF00
1FF80003FF00
1FF00001FF80
3FE00000FF80
3FC000007F80
3FC000007FC0
7F8000003FC0
7F8000003FC0
7F8000003FC0
FF0000003FE0
FF0000001FE0
FF0000001FE0
FF0000001FE0
FFFFFFFFFFE0
FFFFFFFFFFE0
FFFFFFFFFFE0
FFFFFFFFFFE0
FFFFFFFFFFE0
FFFFFFFFFFE0
FF0000000000
FF0000000000
FF0000000000
FF0000000000
FF0000000000
FF0000000000
7F8000000000
7F8000003FC0
7F8000003FC0
3FC000007F80
3FE00000FF80
3FE00000FF80
1FF00001FF00
1FFC0003FF00
0FFE000FFE00
07FFC07FFC00
03FFFFFFF800
01FFFFFFF000
00FFFFFFE000
007FFFFFC000
001FFFFF0000
0007FFFC0000
0000FFE00000
ENDCHAR
STARTCHAR 0116
ENCODING 278
SWIDTH 665 0
DWIDTH 61 0
BBX 48 84 8 0
BITMAP
00001FF00000
00001FF00000
00001FF00000
00001FF00000
00001FF00000
00001FF00000
00001FF00000
00001FF00000
00001FF00000
00001FF00000
000000000000
000000000000
000000000000
000000000000
000000000000
000000000000
000000000000
FFFFFFFFFFFE
FFFFFFFFFFFE
FFFFFFFFFFFE
FFFFFFFFFFFE
FFFFFFFFFFFE
FFFFFFFFFFFE
FFFFFFFFFFFE
FFFFFFFFFFFE
FF8000000000
FF8000000000
FF8000000000
FF8000000000
FF8000000000
FF8000000000
FF8000000000
FF8000000000
FF8000000000
FF8000000000
FF8000000000
FF8000000000
FF8000000000
FF8000000000
FF8000000000
FF8000000000
FF8000000000
FF8000000000
FF8000000000
FF8000000000
FF8000000000
FFFFFFFFFFF8
FFFFFFFFFFF8
FFFFFFFFFFF8
FFFFFFFFFFF8
FFFFFFFFFFF8
FFFFFFFFFFF8
FFFFFFFFFFF8
FFFFFFFFFFF8
FF8000000000
FF8000000000
FF8000000000
FF8000000000
FF8000000000
FF8000000000
FF8000000000
FF8000000000
FF8000000000
FF8000000000
FF8000000000
FF8000000000
FF8000000000
FF8000000000
FF8000000000
FF8000000000
FF8000000000
FF8000000000
FF8000000000
FF8000000000
FF8000000000
FF8000000000
FFFFFFFFFFFF
FFFFFFFFFFFF
FFFFFFFFFFFF
FFFFFFFFFFFF
FFFFFFFFFFFF
FFFFFFFFFFFF
FFFFFFFFFFFF
FFFFFFFFFFFF
ENDCHAR
STARTCHAR 0117
ENCODING 279
SWIDTH 556 0
DWIDTH 51 0
BBX 43 68 4 -2
BITMAP
00007FE00000
00007FE00000
00007FE00000
00007FE00000
00007FE00000
00007FE00000
00007FE00000
00007FE00000
00007FE00000
00007FE00000
000000000000
000000000000
000000000000
000000000000
000000000000
000000000000
000000000000
00007FE00000
0003FFFC0000
001FFFFF0000
003FFFFFC000
00FFFFFFE000
01FFFFFFF000
03FFFFFFF800
07FFC07FFC00
07FE000FFE00
0FFC0007FF00
1FF80003FF00
1FF00001FF80
3FE00000FF80
3FC000007F80
3FC000007FC0
7F8000003FC0
7F8000003FC0
7F8000003FC0
FF0000003FE0
FF0000001FE0
FF0000001FE0
FF0000001FE0
FFFFFFFFFFE0
FFFFFFFFFFE0
FFFFFFFFFFE0
FFFFFFFFFFE0
FFFFFFFFFFE0
FFFFFFFFFFE0
FF0000000000
FF0000000000
FF0000000000
FF0000000000
FF0000000000
FF0000000000
7F8000000000
7F8000003FC0
7F8000003FC0
3FC000007F80
3FE00000FF80
3FE00000FF80
1FF00001FF00
1FFC0003FF00
0FFE000FFE00
07FFC07FFC00
03FFFFFFF800
01FFFFFFF000
00FFFFFFE000
007FFFFFC000
001FFFFF0000
0007FFFC0000
0000FFE00000
ENDCHAR
ENDFONT
